<?xml version="1.0" encoding="utf-8"?>
<!-- Generator: Adobe Illustrator 22.1.0, SVG Export Plug-In . SVG Version: 6.00 Build 0)  -->
<svg version="1.1" id="Layer_1" xmlns="http://www.w3.org/2000/svg" xmlns:xlink="http://www.w3.org/1999/xlink" x="0px" y="0px"
	 viewBox="0 0 512 512" style="enable-background:new 0 0 512 512;" xml:space="preserve">
<style type="text/css">
	.st0{fill:#EAEBEC;}
	.st1{fill:#9C9EA1;}
	.st2{fill:#D0D2D3;}
</style>
<g>
	<path class="st0" d="M256,269.8c-116.3,0-210.7,94.3-210.7,210.7h421.3C466.6,364.1,372.3,269.8,256,269.8"/>
</g>
<g>
	<path class="st0" d="M256,254.2c61.6,0,111.5-49.9,111.5-111.5c0-61.6-49.9-111.5-111.5-111.5S144.5,81.2,144.5,142.7
		C144.5,204.3,194.4,254.2,256,254.2"/>
</g>
<g>
	<path class="st1" d="M256,267.6c-68.8,0-124.8-56-124.8-124.8c0-68.8,56-124.8,124.8-124.8c68.8,0,124.8,56,124.8,124.8
		C380.8,211.6,324.8,267.6,256,267.6z M256,44.6c-54.1,0-98.1,44-98.1,98.1c0,54.1,44,98.1,98.1,98.1c54.1,0,98.1-44,98.1-98.1
		C354.1,88.7,310.1,44.6,256,44.6z"/>
</g>
<g>
	<polygon class="st2" points="256,273.2 256,484.9 57.8,484.9 57.8,436 79.2,380.4 100.5,329.1 144.5,307.7 186.1,286.3 	"/>
</g>
<g>
	<path class="st1" d="M480,493.8H31.9v-13.4c0-123.5,100.5-224,224-224s224,100.5,224,224V493.8z M59.1,467.1h393.7
		c-6.9-102.6-92.6-183.9-196.9-183.9S66,364.5,59.1,467.1z"/>
</g>
</svg>
