<?xml version="1.0" encoding="utf-8"?>
<!-- Generator: Adobe Illustrator 22.1.0, SVG Export Plug-In . SVG Version: 6.00 Build 0)  -->
<svg version="1.1" id="Layer_1" xmlns="http://www.w3.org/2000/svg" xmlns:xlink="http://www.w3.org/1999/xlink" x="0px" y="0px"
	 viewBox="0 0 512 512" style="enable-background:new 0 0 512 512;" xml:space="preserve">
<style type="text/css">
	.st0{fill:#EFB6B6;}
	.st1{fill:#EE6A7A;}
	.st2{fill:#D6B21A;}
	.st3{fill:#EFDC8E;}
	.st4{fill:#784ACE;}
	.st5{fill:#9F7AE5;}
	.st6{fill:#2F9640;}
	.st7{fill:#6DE294;}
</style>
<path class="st6" d="M349.6,441.7H167.7c-29.9,0-54.3-24.3-54.3-54.3V255.3c0-29.9,24.3-54.3,54.3-54.3h181.9
	c29.9,0,54.3,24.3,54.3,54.3v132.2C403.8,417.4,379.5,441.7,349.6,441.7z"/>
<path class="st7" d="M167.7,233.2c-12.2,0-22.1,9.9-22.1,22.1v132.2c0,12.2,9.9,22.1,22.1,22.1h181.9c12.2,0,22.1-9.9,22.1-22.1
	V255.3c0-12.2-9.9-22.1-22.1-22.1H167.7z"/>
<path class="st6" d="M358.5,216.6h-32.2v-94.9c0-13.9-10-25.3-22.2-25.3h-90.9c-12.2,0-22.2,11.3-22.2,25.3v94.9h-32.2v-94.9
	c0-31.7,24.4-57.5,54.4-57.5h90.9c30,0,54.4,25.8,54.4,57.5V216.6z"/>
<circle class="st6" cx="259" cy="290.3" r="26.2"/>
<path class="st6" d="M250.1,302.3l-14.3,60.3c-2,8.5,4.4,16.6,13.1,16.6h19.6c8.7,0,15.2-8.2,13.1-16.7l-14.7-60.2H250.1z"/>
</svg>
