<?xml version="1.0" encoding="utf-8"?>
<!-- Generator: Adobe Illustrator 19.0.0, SVG Export Plug-In . SVG Version: 6.00 Build 0)  -->
<svg version="1.1" id="Layer_1" xmlns="http://www.w3.org/2000/svg" xmlns:xlink="http://www.w3.org/1999/xlink" x="0px" y="0px"
	 viewBox="0 0 512 512" enable-background="new 0 0 512 512" xml:space="preserve">
<path id="XMLID_39_" fill="#7061a8" d="M256,203.2c-36.8,0-66.7,29.9-66.7,66.7c0,36.8,29.9,66.7,66.7,66.7s66.7-29.9,66.7-66.7
	C322.8,233.1,292.8,203.2,256,203.2"/>
<path fill="#7061a8" d="M378.4,242.1c-12.3,0-22.2-10-22.2-22.2c0-12.3,10-22.2,22.2-22.2s22.2,10,22.2,22.2
	C400.6,232.1,390.7,242.1,378.4,242.1 M256,370c-55.2,0-100.1-44.9-100.1-100.1c0-55.2,44.9-100.1,100.1-100.1
	c55.2,0,100.1,44.9,100.1,100.1C356.1,325.1,311.2,370,256,370 M144.7,175.3L144.7,175.3h-11.1v-16.7h11.1V175.3z M396.2,175.3
	h-47.4l-13.6-34.1c0,0-8.6-21.5-31.8-21.5H197.9c0,0-12.5,0-17.1,11.6l-17.6,44.1h-7.4v-27.8h-33.4v27.8h-6.7
	c-14.7,0-26.7,12-26.7,26.7v163.4c0,14.8,12.1,26.9,26.9,26.9h280c14.8,0,26.9-12.1,26.9-26.9V202
	C422.9,187.3,410.9,175.3,396.2,175.3"/>
</svg>
