<?xml version="1.0" encoding="utf-8"?>
<!-- Generator: Adobe Illustrator 19.0.0, SVG Export Plug-In . SVG Version: 6.00 Build 0)  -->
<svg version="1.1" id="Layer_1" xmlns="http://www.w3.org/2000/svg" xmlns:xlink="http://www.w3.org/1999/xlink" x="0px" y="0px"
	 viewBox="0 0 512 512" enable-background="new 0 0 512 512" xml:space="preserve">
<path id="XMLID_3_" fill="#231F20" d="M404.1,217.1l-96.4,93.5c-3.5,3.4-7.6,5-12.3,5c-2.2,0-4.4-0.4-6.6-1.3c-7.3-3-11-8.2-11-15.7
	v-42.5c-25.6,0-46,2.1-61.3,6.3c-15.3,4.2-27.2,10.8-35.6,20.1c-19.3,21.1-25,63-17,125.7c0.5,4.2-1.2,7.2-5.2,8.8
	c-1.1,0.5-2.3,0.8-3.6,0.8c-2.7,0-5-1.1-6.8-3.2c-30.5-39.5-45.7-75.3-45.7-107.4c0-10.6,0.5-20.4,1.4-29.4
	c0.9-8.9,2.9-18.8,5.9-29.6c3-10.8,7.1-20.5,12.2-29c5.1-8.5,12.1-16.9,20.9-25.4s19.3-15.4,31.2-21c11.9-5.6,26.8-10.1,44.5-13.5
	c17.7-3.5,37.4-5.2,59.1-5.2v-42.5c0-7.5,3.6-12.7,10.9-15.7c7.1-3,13.4-1.8,18.9,3.7l96.4,93.5c3.5,3.4,5.2,7.4,5.2,12
	C409.3,209.7,407.6,213.7,404.1,217.1"/>
</svg>
