<?xml version="1.0" encoding="utf-8"?>
<!-- Generator: Adobe Illustrator 22.1.0, SVG Export Plug-In . SVG Version: 6.00 Build 0)  -->
<svg version="1.1" id="Layer_1" xmlns="http://www.w3.org/2000/svg" xmlns:xlink="http://www.w3.org/1999/xlink" x="0px" y="0px"
	 viewBox="0 0 512 512" style="enable-background:new 0 0 512 512;" xml:space="preserve">
<style type="text/css">
	.st0{fill:#FFF9B4;}
	.st1{fill:#FFE78B;}
	.st2{fill:#79B8E1;}
	.st3{fill:#79D3F6;}
</style>
<g>
	<path class="st0" d="M131.2,277.6C97,252.5,80.9,207.4,94.7,164.9c6.9-21.3,20.2-39.3,38.6-52c2.4-1.7,3.4-4.7,2.3-7.5
		c-1-2.7-3.8-4.4-6.7-4.1c-22.5,2.6-43.8,11.6-61.5,25.8c-18.2,14.6-31.6,34.2-38.8,56.5c-20.4,63,14.3,130.8,77.3,151.1
		c22.3,7.2,46,7.8,68.5,1.6c21.9-6,41.6-18,57-34.8c2-2.2,2.2-5.4,0.6-7.8c-1.6-2.4-4.7-3.5-7.4-2.5c-21,7.4-43.4,7.7-64.7,0.9
		c-5.9-1.9-11.5-4.3-16.8-7.1"/>
	<path class="st1" d="M188.1,329.4c-22.5,6.2-46.2,5.6-68.5-1.6c-63-20.4-97.6-88.2-77.3-151.1c7.2-22.3,20.6-41.8,38.8-56.5
		c4.5-3.6,9.3-6.9,14.2-9.9c-10,4.3-19.4,10-28,16.9c-18.2,14.6-31.6,34.2-38.8,56.5c-20.4,63,14.3,130.8,77.3,151.1
		c22.3,7.2,46,7.8,68.5,1.6c10.4-2.9,20.4-7.1,29.6-12.5C198.8,326.1,193.5,327.9,188.1,329.4"/>
	<path class="st0" d="M144.6,191.1c1.1-15.7-13.7-32.8-29.5-33.9c15.7,1.1,32.8-13.8,33.9-29.5c-1.1,15.7,13.7,32.8,29.5,33.9
		C162.8,160.5,145.7,175.4,144.6,191.1"/>
	<path class="st0" d="M193.7,222.7c0.7-10.3-9-21.4-19.3-22.1c10.3,0.7,21.4-9,22.1-19.3c-0.7,10.3,9,21.4,19.2,22.1
		C205.6,202.7,194.4,212.4,193.7,222.7"/>
	<path class="st0" d="M154.2,230.1c0.5-7.4-6.5-15.5-13.9-16c7.4,0.5,15.5-6.5,16-13.9c-0.5,7.4,6.5,15.4,13.9,16
		C162.8,215.7,154.7,222.7,154.2,230.1"/>
	<path class="st0" d="M27.8,327.5c0.4-5.5-4.8-11.5-10.3-11.9c5.5,0.4,11.5-4.8,11.9-10.3c-0.4,5.5,4.8,11.5,10.3,11.9
		C34.2,316.8,28.2,322,27.8,327.5"/>
	<path class="st2" d="M175.3,289.8c4.3,0,8.6,0.4,12.8,1.2c3.2-15,7.2-31.7,21.6-38.7c14.4-6.9,31.3-7.2,46-0.8
		c13.3-34.7,56.1-56.6,92.6-44c36.5,12.6,45.3,41,48.6,77.8c32,1,48.2,37.9,47.7,68.3c-0.5,30.4-26.5,54.8-58.5,54.9h-217
		c-35.6,0-64.5-27.4-64.5-61.3S139.7,289.8,175.3,289.8"/>
	<path class="st3" d="M205.3,283.2c4.6,0,9.2,0.4,13.7,1.3c3.4-16.1,7.7-34.1,23.2-41.5c15.5-7.5,33.7-7.8,49.4-0.9
		c14.2-37.2,60.3-60.8,99.5-47.3c39.2,13.5,48.7,44,52.2,83.6c34.3,1,51.8,40.7,51.2,73.3c-0.5,32.6-28.5,58.9-62.8,58.9H198.6
		c-38.3,0-69.3-29.5-69.3-65.8S167,283.2,205.3,283.2"/>
</g>
</svg>
