<?xml version="1.0" encoding="utf-8"?>
<!-- Generator: Adobe Illustrator 19.0.0, SVG Export Plug-In . SVG Version: 6.00 Build 0)  -->
<svg version="1.1" id="Layer_1" xmlns="http://www.w3.org/2000/svg" xmlns:xlink="http://www.w3.org/1999/xlink" x="0px" y="0px"
	 viewBox="0 0 512 512" enable-background="new 0 0 512 512" xml:space="preserve">
<g id="XMLID_1_">
	<path id="XMLID_14_" fill="#6D6E70" d="M256,326.5c-38.9,0-70.6-31.6-70.6-70.5c0-38.9,31.6-70.6,70.6-70.6
		c38.9,0,70.5,31.6,70.5,70.6C326.6,294.9,294.9,326.5,256,326.5 M402.7,221.7l-22.9-3.9c-2.4-7.7-5.5-15.2-9.2-22.3l13.5-18.9
		c5.7-8.1,4.8-19.1-2.2-26l-20.3-20.3c-3.8-3.8-8.9-5.9-14.3-5.9c-4.2,0-8.3,1.3-11.7,3.7l-19,13.5c-7.4-3.9-15.1-7.1-23.1-9.5
		l-3.8-22.7c-1.6-9.8-10-16.9-19.9-16.9H241c-9.9,0-18.3,7.1-20,16.9l-4,23.2c-7.6,2.4-15.1,5.5-22.2,9.3l-18.8-13.5
		c-3.4-2.5-7.5-3.7-11.8-3.7c-5.4,0-10.5,2.1-14.3,5.9L129.6,151c-7,7-7.9,18-2.2,26l13.7,19.2c-3.7,7.2-6.8,14.6-9.1,22.3
		l-22.7,3.8c-9.8,1.6-16.9,10-16.9,19.9v28.8c0,9.9,7.1,18.3,16.9,19.9l23.2,4c2.4,7.7,5.5,15.1,9.3,22.2l-13.5,18.7
		c-5.7,8.1-4.8,19.1,2.2,26l20.3,20.3c3.8,3.8,8.9,5.9,14.3,5.9c4.2,0,8.3-1.3,11.7-3.7l19.2-13.7c6.9,3.6,14.1,6.6,21.6,8.9
		l3.8,22.9c1.6,9.8,10,16.9,19.9,16.9h28.8c9.9,0,18.3-7.1,20-16.9l3.9-22.9c7.7-2.4,15.2-5.5,22.3-9.2l18.9,13.5
		c3.4,2.5,7.5,3.8,11.7,3.8c5.4,0,10.5-2.1,14.3-5.9l20.4-20.4c7-7,7.9-18,2.2-26l-13.5-19c3.8-7.2,6.9-14.6,9.2-22.3l22.9-3.8
		c9.8-1.7,16.9-10,16.9-20V256c0,0,0-14.4,0.1-19.3C419.6,231.7,412.5,223.3,402.7,221.7"/>
	<path id="XMLID_2_" fill="#6D6E70" d="M256,210.1c-25.3,0-45.9,20.6-45.9,45.9c0,25.3,20.6,45.9,45.9,45.9s45.9-20.6,45.9-45.9
		C301.9,230.7,281.3,210.1,256,210.1"/>
</g>
</svg>
