<?xml version="1.0" encoding="utf-8"?>
<!-- Generator: Adobe Illustrator 19.0.0, SVG Export Plug-In . SVG Version: 6.00 Build 0)  -->
<svg version="1.1" id="Layer_1" xmlns="http://www.w3.org/2000/svg" xmlns:xlink="http://www.w3.org/1999/xlink" x="0px" y="0px"
	 viewBox="0 0 512 512" enable-background="new 0 0 512 512" xml:space="preserve">
<g id="XMLID_1_">
	<path id="XMLID_7_" fill="#4F5261" d="M300.5,367.1h-89.1c-12.2,0-22.2-10-22.2-22.3s10-22.2,22.2-22.2h89.1
		c12.2,0,22.3,10,22.3,22.2S312.8,367.1,300.5,367.1"/>
	<path id="XMLID_6_" fill="#4F5261" d="M340.3,278.3H171.7c-12.2,0-22.2-10-22.2-22.3c0-12.2,10-22.2,22.2-22.2h168.6
		c12.2,0,22.3,10,22.3,22.2C362.6,268.2,352.5,278.3,340.3,278.3"/>
	<path id="XMLID_5_" fill="#4F5261" d="M378.3,189.4H133.7c-12.2,0-22.3-10-22.3-22.3c0-12.2,10-22.2,22.3-22.2h244.6
		c12.2,0,22.3,10,22.3,22.2C400.6,179.4,390.6,189.4,378.3,189.4"/>
</g>
</svg>
