<?xml version="1.0" encoding="utf-8"?>
<!-- Generator: Adobe Illustrator 22.1.0, SVG Export Plug-In . SVG Version: 6.00 Build 0)  -->
<svg version="1.1" id="Layer_1" xmlns="http://www.w3.org/2000/svg" xmlns:xlink="http://www.w3.org/1999/xlink" x="0px" y="0px"
	 viewBox="0 0 512 512" style="enable-background:new 0 0 512 512;" xml:space="preserve">
<style type="text/css">
	.st0{fill:#88C1EB;}
	.st1{fill:#427891;}
	.st2{fill:#78B8E0;}
</style>
<path class="st0" d="M52.3,361.1c1.3,0,2.6-0.6,3.5-1.6l10.9-11.7c1.9-2,1.8-5.2-0.2-7.1s-5.2-1.8-7.1,0.2l-10.9,11.7
	c-1.9,2-1.8,5.2,0.2,7.1C49.7,360.7,51,361.1,52.3,361.1"/>
<path class="st0" d="M110.8,368.9c-2-1.9-5.2-1.8-7.1,0.2l-10.9,11.7c-1.9,2-1.8,5.2,0.3,7.1c1,0.9,2.3,1.4,3.6,1.3
	c1.3,0,2.6-0.6,3.5-1.6l10.9-11.7C113,374,112.8,370.8,110.8,368.9"/>
<path class="st0" d="M230.3,334.8c-2,2.1-1.9,5.5,0.2,7.4c1,0.9,2.2,1.3,3.5,1.2c1.3,0,2.6-0.6,3.5-1.6l21-22.5
	c0.4-0.4,0.7-0.9,0.9-1.4c-8.8,0.3-17.2,4.1-23.2,10.6L230.3,334.8z"/>
<path class="st0" d="M49.5,385.4c-2,2.1-1.9,5.5,0.2,7.4c1,0.8,2.2,1.2,3.4,1.2c1.3,0,2.6-0.6,3.5-1.6l56.7-60.8
	c3-3.3,0.6-8.6-3.8-8.4c-1.3,0-2.6,0.6-3.5,1.6L49.5,385.4z"/>
<path class="st0" d="M291.7,327.1c-2-1.9-5.2-1.8-7.1,0.2l-37.8,40.5c-1.9,2-1.8,5.2,0.2,7.1c1,0.9,2.3,1.4,3.6,1.3
	c1.3,0,2.6-0.6,3.5-1.6l37.8-40.5C293.8,332.2,293.7,329,291.7,327.1"/>
<path class="st0" d="M230.5,385.3l-12.1,13c-1.9,2-1.8,5.2,0.2,7.1c1,0.9,2.3,1.4,3.6,1.3c1.3,0,2.6-0.6,3.5-1.6l12.1-13
	c1.9-2,1.8-5.2-0.3-7.1C235.6,383.2,232.4,383.3,230.5,385.3"/>
<path class="st0" d="M276.4,377.5c-2,2.1-1.9,5.5,0.2,7.4c1,0.8,2.2,1.2,3.4,1.2c1.3,0,2.6-0.6,3.5-1.6l56.7-60.8
	c3-3.3,0.6-8.6-3.8-8.4c-1.3,0-2.6,0.6-3.5,1.6L276.4,377.5z"/>
<path class="st0" d="M265,395.2L265,395.2L265,395.2c-2.8,0.1-5,2.4-4.9,5.2c0.1,2.8,2.4,5,5.2,4.9h0.1l0,0c2.8-0.1,4.9-2.4,4.8-5.2
	C270,397.3,267.7,395.1,265,395.2"/>
<path class="st0" d="M337.7,348.7L337.7,348.7L337.7,348.7c-2.9,0.1-5,2.4-4.9,5.2c0.1,2.8,2.4,4.9,5.2,4.9h0.1l0,0
	c2.8-0.1,4.9-2.4,4.8-5.2C342.8,350.7,340.4,348.6,337.7,348.7"/>
<path class="st0" d="M74.7,413.6L74.7,413.6c-2.8,0.1-5,2.4-4.9,5.2c0.1,2.8,2.4,4.9,5.2,4.8h0.1c2.8-0.1,4.9-2.4,4.8-5.2
	C79.8,415.7,77.5,413.5,74.7,413.6"/>
<path class="st0" d="M195.9,376.6c-2-1.9-5.2-1.8-7.1,0.2l-10.9,11.7c-1.9,2-1.8,5.2,0.3,7.1c1,0.9,2.3,1.4,3.6,1.3
	c1.3,0,2.6-0.6,3.5-1.6l10.9-11.7C198,381.6,197.9,378.4,195.9,376.6"/>
<path class="st0" d="M118.8,404.2c-2,2.1-1.9,5.5,0.2,7.4c1,0.8,2.2,1.2,3.4,1.2c1.3,0,2.6-0.6,3.5-1.6l56.7-60.8
	c3-3.3,0.6-8.6-3.8-8.4c-1.3,0-2.6,0.6-3.5,1.6L118.8,404.2z"/>
<path class="st0" d="M366.5,345.7c-2-1.9-5.2-1.8-7.1,0.2l-37.8,40.5c-1.9,2-1.8,5.2,0.2,7.1c1,0.9,2.3,1.4,3.6,1.3
	c1.3,0,2.6-0.6,3.5-1.6l37.8-40.5C368.6,350.7,368.5,347.6,366.5,345.7"/>
<path class="st0" d="M306.7,413.9l-12.1,13c-1.9,2-1.8,5.2,0.2,7.1c1,0.9,2.3,1.4,3.6,1.3c1.3,0,2.6-0.6,3.5-1.6l12.1-13
	c1.9-2,1.8-5.2-0.3-7.1C311.7,411.7,308.6,411.8,306.7,413.9"/>
<path class="st0" d="M351.2,396.1c-2,2.1-1.9,5.5,0.2,7.4c1,0.8,2.2,1.2,3.4,1.2c1.3,0,2.6-0.6,3.5-1.6l56.7-60.8
	c3-3.3,0.6-8.6-3.8-8.4c-1.3,0-2.6,0.6-3.5,1.6L351.2,396.1z"/>
<path class="st0" d="M398.3,377.7L398.3,377.7L398.3,377.7c-2.9,0.1-5,2.4-4.9,5.2c0.1,2.8,2.4,4.9,5.2,4.9h0.1l0,0
	c2.8-0.1,4.9-2.4,4.8-5.2S401.1,377.6,398.3,377.7"/>
<path class="st0" d="M149.6,432.2L149.6,432.2c-2.8,0.1-5,2.4-4.9,5.2c0.1,2.8,2.4,4.9,5.2,4.8h0.1c2.8-0.1,4.9-2.4,4.8-5.2
	C154.7,434.2,152.3,432.1,149.6,432.2"/>
<path class="st1" d="M403.6,176.4c-5.3,0-10.6,0.5-15.9,1.5c-3.9-18.7-8.9-39.4-26.8-48s-38.9-9-57.1-1
	c-16.5-43.1-69.7-70.3-115.1-54.7c-45.3,15.6-56.3,50.9-60.4,96.7C88.6,172.1,68.4,218,69,255.8c0.6,37.7,33,68.1,72.7,68.1h269.6
	c44.3,0,80.2-34.1,80.2-76.1c0-37.8-35.4-65.3-74.7-70.5C412.4,176.7,408,176.4,403.6,176.4"/>
<path class="st2" d="M326.1,195.2c-4.7,0-9.4,0.5-14,1.4c-3.5-16.4-7.9-34.8-23.8-42.5c-15.7-7.7-34.4-7.9-50.5-0.9
	c-14.5-38.1-61.7-62.2-101.7-48.4c-40,13.8-49.8,44.9-53.3,85.4c-35.1,1-52.9,41.6-52.4,74.9s29.2,60.1,64.3,60.3h238.1
	c39.1,0,70.8-30,70.8-67.3c0-33.4-31.3-57.7-66-62.2C333.8,195.3,330,195.2,326.1,195.2"/>
</svg>
