<?xml version="1.0" encoding="utf-8"?>
<!-- Generator: Adobe Illustrator 22.1.0, SVG Export Plug-In . SVG Version: 6.00 Build 0)  -->
<svg version="1.1" id="Layer_1" xmlns="http://www.w3.org/2000/svg" xmlns:xlink="http://www.w3.org/1999/xlink" x="0px" y="0px"
	 viewBox="0 0 512 512" style="enable-background:new 0 0 512 512;" xml:space="preserve">
<style type="text/css">
	.st0{fill:#EFB6B6;}
	.st1{fill:#EE6A7A;}
	.st2{fill:#D6B21A;}
	.st3{fill:#EFDC8E;}
	.st4{fill:#784ACE;}
	.st5{fill:#9F7AE5;}
	.st6{fill:#2F9640;}
	.st7{fill:#6DE294;}
</style>
<circle class="st0" cx="252.2" cy="281.3" r="147.4"/>
<g>
	<path class="st1" d="M318.9,117.7V158c44.7,24.7,73.8,74.2,68.7,129.8c-5.8,62.5-55.6,113.4-118,120.4
		c-80.6,9-149.2-54.2-149.2-133c0-50.4,28-94.4,69.2-117.2v-40.3c-66.5,27.4-111.9,95.6-104.9,173.3
		c7.4,82.4,74.6,148.2,157.1,154.1c99.5,7.1,182.7-71.8,182.7-169.8C424.5,204.2,380.8,143.2,318.9,117.7z"/>
</g>
<g>
	<g>
		<path class="st1" d="M254.3,309.9L254.3,309.9c-10.1,0-18.2-8.1-18.2-18.2V84c0-10.1,8.1-18.2,18.2-18.2h0
			c10.1,0,18.2,8.1,18.2,18.2v207.6C272.5,301.7,264.3,309.9,254.3,309.9z"/>
	</g>
</g>
</svg>
