<?xml version="1.0" encoding="utf-8"?>
<!-- Generator: Adobe Illustrator 19.0.0, SVG Export Plug-In . SVG Version: 6.00 Build 0)  -->
<svg version="1.1" id="Capa_1" xmlns="http://www.w3.org/2000/svg" xmlns:xlink="http://www.w3.org/1999/xlink" x="0px" y="0px"
	 viewBox="-449 451 100 100" enable-background="new -449 451 100 100" xml:space="preserve">
<g>
	<g>
		<path fill="#7061a8" d="M-399,519.1c-7.7,0-14-6.3-14-13.9c0-7.7,6.3-14,14-14s14,6.3,14,14C-385,512.8-391.3,519.1-399,519.1z
			 M-399,494.2c-6,0-11,4.9-11,11c0,6,4.9,10.9,11,10.9s11-4.9,11-10.9C-388,499.1-393,494.2-399,494.2z"/>
	</g>
	<g>
		<path fill="#7061a8" d="M-365.8,535.7h-66.4c-5.4,0-9.8-4.4-9.8-9.8v-37.4c0-5.4,4.4-9.8,9.8-9.8h10c0.7,0,1.6-0.6,1.9-1.3
			l2.6-7.7c0.6-1.9,2.7-3.4,4.7-3.4h28.2c2,0,4.1,1.5,4.7,3.4l2.6,7.7c0.2,0.7,1.1,1.3,1.9,1.3h10c5.4,0,9.8,4.4,9.8,9.8v37.4
			C-356,531.3-360.4,535.7-365.8,535.7z M-432.2,481.8c-3.7,0-6.8,3.1-6.8,6.8v37.4c0,3.7,3.1,6.8,6.8,6.8h66.4
			c3.7,0,6.8-3.1,6.8-6.8v-37.4c0-3.7-3.1-6.8-6.8-6.8h-10c-2,0-4.1-1.5-4.7-3.4l-2.6-7.7c-0.2-0.7-1.1-1.3-1.9-1.3h-28.2
			c-0.7,0-1.6,0.6-1.9,1.3l-2.6,7.7c-0.6,1.9-2.7,3.4-4.7,3.4H-432.2z"/>
	</g>
	<g>
		<path fill="#7061a8" d="M-399,527.4c-12.3,0-22.3-10-22.3-22.3c0-12.3,10-22.3,22.3-22.3s22.3,10,22.3,22.3
			C-376.8,517.4-386.7,527.4-399,527.4z M-399,485.9c-10.6,0-19.3,8.6-19.3,19.3c0,10.6,8.6,19.3,19.3,19.3s19.3-8.6,19.3-19.3
			C-379.8,494.5-388.4,485.9-399,485.9z"/>
	</g>
	<g>
		<path fill="#7061a8" d="M-368.7,495.9c-2.4,0-4.4-2-4.4-4.4s2-4.4,4.4-4.4s4.4,2,4.4,4.4S-366.3,495.9-368.7,495.9z M-368.7,490
			c-0.8,0-1.4,0.6-1.4,1.4s0.6,1.4,1.4,1.4s1.4-0.6,1.4-1.4S-367.9,490-368.7,490z"/>
	</g>
	<g>
		<circle fill="#7061a8" cx="-431.1" cy="491.4" r="2.9"/>
	</g>
	<g>
		<path fill="#7061a8" d="M-399,522.3c-9.5,0-17.2-7.7-17.2-17.2c0-9.5,7.7-17.2,17.2-17.2c9.5,0,17.2,7.7,17.2,17.2
			C-381.8,514.6-389.5,522.3-399,522.3z M-399,489c-8.9,0-16.2,7.3-16.2,16.2s7.3,16.2,16.2,16.2s16.2-7.3,16.2-16.2
			S-390.1,489-399,489z"/>
	</g>
</g>
</svg>
