<?xml version="1.0" encoding="utf-8"?>
<!-- Generator: Adobe Illustrator 19.0.0, SVG Export Plug-In . SVG Version: 6.00 Build 0)  -->
<svg version="1.1" id="Capa_1" xmlns="http://www.w3.org/2000/svg" xmlns:xlink="http://www.w3.org/1999/xlink" x="0px" y="0px"
	 viewBox="-449 451 100 100" enable-background="new -449 451 100 100" xml:space="preserve">
<path fill="#7061a8" d="M-372.1,469.9h-12.2c-1.3,0-2.7,0.5-3.6,1.5l-41.6,41.6c-1,1-1.5,2.3-1.5,3.6v10.3c0,2.1,1.2,3.9,3.2,4.7
	c0.7,0.3,1.3,0.4,2,0.4c1.3,0,2.6-0.5,3.6-1.5l27.6-27.6c1-1,1.5-2.3,1.5-3.6c0-1.4-0.5-2.7-1.5-3.6l-0.5-0.4c-1-1-2.3-1.5-3.6-1.5
	c-1.4,0-2.7,0.5-3.6,1.5l-13.1,13.1l2.1,2.1l13.1-13.1c0.8-0.8,2.3-0.8,3.1,0l0.5,0.5c0.4,0.4,0.6,1,0.6,1.5c0,0.6-0.2,1.1-0.6,1.5
	l-27.6,27.6c-0.6,0.6-1.5,0.8-2.4,0.5c-0.8-0.3-1.3-1.1-1.3-2v-10.3c0-0.6,0.2-1.1,0.6-1.5l41.6-41.6c0.4-0.4,1-0.6,1.5-0.6h12.2
	c1.2,0,2.2,1,2.2,2.2v10c0,0.6-0.2,1.1-0.6,1.5l-33.3,33.3l2.1,2.1l33.3-33.3c1-1,1.5-2.3,1.5-3.6v-10
	C-367,472.2-369.3,469.9-372.1,469.9z"/>
</svg>
