<?xml version="1.0" encoding="utf-8"?>
<!-- Generator: Adobe Illustrator 22.1.0, SVG Export Plug-In . SVG Version: 6.00 Build 0)  -->
<svg version="1.1" id="Layer_1" xmlns="http://www.w3.org/2000/svg" xmlns:xlink="http://www.w3.org/1999/xlink" x="0px" y="0px"
	 viewBox="0 0 512 512" style="enable-background:new 0 0 512 512;" xml:space="preserve">
<style type="text/css">
	.st0{clip-path:url(#SVGID_2_);}
	.st1{fill:#EE6172;}
	.st2{clip-path:url(#SVGID_4_);}
	.st3{clip-path:url(#SVGID_6_);}
	.st4{fill:#4D4D4F;}
</style>
<g>
	<g>
		<defs>
			<rect id="SVGID_5_" x="45.8" y="46.1" width="420.5" height="419.7"/>
		</defs>
		<clipPath id="SVGID_2_">
			<use xlink:href="#SVGID_5_"  style="overflow:visible;"/>
		</clipPath>
		<g class="st0">
			<path class="st4" d="M394.5,465.9h-277c-52.6,0-71.7-42.9-71.7-71.7V117.8c0-52.6,42.9-71.7,71.7-71.7h186.2v40.2H117.5
				c-9.4,0.2-31.5,3.6-31.5,31.5v276.3c0.2,9.3,3.6,31.5,31.5,31.5h277c9.4-0.2,31.5-3.6,31.5-31.5V204.3h40.2v189.9
				C466.2,446.8,423.3,465.9,394.5,465.9z"/>
		</g>
		<g class="st0">
			
				<rect x="221.6" y="141.7" transform="matrix(0.7071 -0.7071 0.7071 0.7071 -11.8278 295.0278)" class="st4" width="257.1" height="40.2"/>
		</g>
	</g>
</g>
</svg>
