<?xml version="1.0" encoding="utf-8"?>
<!-- Generator: Adobe Illustrator 22.1.0, SVG Export Plug-In . SVG Version: 6.00 Build 0)  -->
<svg version="1.1" id="Layer_1" xmlns="http://www.w3.org/2000/svg" xmlns:xlink="http://www.w3.org/1999/xlink" x="0px" y="0px"
	 viewBox="0 0 512 512" style="enable-background:new 0 0 512 512;" xml:space="preserve">
<g>
	<line x1="97.1" y1="97.1" x2="414.9" y2="414.9"/>
	<path d="M381.8,420.2L91.8,130.2c-7.7-7.7-7.7-20.1,0-27.8l10.6-10.6c7.7-7.7,20.1-7.7,27.8,0l289.9,289.9c7.7,7.7,7.7,20.1,0,27.8
		l-10.6,10.6C401.9,427.8,389.5,427.8,381.8,420.2z"/>
</g>
<g>
	<line x1="414.9" y1="97.1" x2="97.1" y2="414.9"/>
	<path d="M102.4,420.2l-10.6-10.6c-7.7-7.7-7.7-20.1,0-27.8L381.8,91.8c7.7-7.7,20.1-7.7,27.8,0l10.6,10.6c7.7,7.7,7.7,20.1,0,27.8
		L130.2,420.2C122.5,427.8,110.1,427.8,102.4,420.2z"/>
</g>
</svg>
