<?xml version="1.0" encoding="utf-8"?>
<!-- Generator: Adobe Illustrator 22.1.0, SVG Export Plug-In . SVG Version: 6.00 Build 0)  -->
<svg version="1.1" id="Capa_1" xmlns="http://www.w3.org/2000/svg" xmlns:xlink="http://www.w3.org/1999/xlink" x="0px" y="0px"
	 viewBox="0 0 512 512" style="enable-background:new 0 0 512 512;" xml:space="preserve">
<style type="text/css">
	.st0{fill:#EBE3F9;}
	.st1{fill:#7061A7;}
	.st2{fill:#E6E7E8;}
	.st3{fill:#BBBDBF;}
	.st4{fill:#EA4559;}
	.st5{fill:#FAD9DD;}
	.st6{fill:#D5E8EC;}
	.st7{fill:#336173;}
	.st8{fill:#7DD3A0;stroke:#5FAF6A;stroke-width:18;stroke-miterlimit:10;}
	.st9{opacity:0.54;}
	.st10{fill:#FFFFFF;}
	.st11{fill:#C5EDD1;}
	.st12{fill:none;stroke:#7DD3A0;stroke-width:33;stroke-miterlimit:10;}
	.st13{fill:#A5D6B2;}
</style>
<g>
	<circle class="st8" cx="256" cy="256" r="180.7"/>
	<g class="st9">
		<path class="st10" d="M335.7,340.3h-69.1c-11.4,0-20.6-10.1-20.6-22.6v-55c0-12.4,9.2-22.6,20.6-22.6h69.1
			c11.4,0,20.6,10.1,20.6,22.6v55C356.3,330.2,347.1,340.3,335.7,340.3"/>
		<path class="st11" d="M266.6,253.6c-4.6,0-8.4,4.1-8.4,9.2v55c0,5.1,3.8,9.2,8.4,9.2h69.1c4.6,0,8.4-4.1,8.4-9.2v-55
			c0-5.1-3.8-9.2-8.4-9.2H266.6z"/>
		<path class="st10" d="M342.7,246.7h-13.4v-39.5c0-5.8-4.1-10.5-9.2-10.5h-37.8c-5.1,0-9.2,4.7-9.2,10.5v39.5h-13.4v-39.5
			c0-13.2,10.1-23.9,22.6-23.9h37.8c12.5,0,22.6,10.7,22.6,23.9V246.7z"/>
		<path class="st10" d="M312.2,277.4c0,6-4.9,10.9-10.9,10.9c-6,0-10.9-4.9-10.9-10.9c0-6,4.9-10.9,10.9-10.9
			C307.4,266.4,312.2,271.3,312.2,277.4"/>
		<path class="st10" d="M297.6,282.3l-5.9,25.1c-0.8,3.5,1.8,6.9,5.5,6.9h8.2c3.6,0,6.3-3.4,5.4-6.9l-6.1-25H297.6z"/>
	</g>
	<path class="st12" d="M258.9,223h2.3c20.8,0,37.7,16.9,37.7,37.7v52.4c0,20.8-16.9,37.7-37.7,37.7h-2.3
		c-20.8,0-37.7-16.9-37.7-37.7v-52.4C221.2,239.9,238.1,223,258.9,223z"/>
	<path class="st10" d="M274.5,352.8H183c-15.1,0-27.3-13.4-27.3-29.9v-72.8c0-16.5,12.2-29.9,27.3-29.9h91.5
		c15,0,27.3,13.4,27.3,29.9v72.8C301.8,339.4,289.5,352.8,274.5,352.8"/>
	<path class="st13" d="M183,238c-6.1,0-11.1,5.5-11.1,12.2v72.8c0,6.7,5,12.2,11.1,12.2h91.5c6.1,0,11.1-5.5,11.1-12.2v-72.8
		c0-6.7-5-12.2-11.1-12.2H183z"/>
	<path class="st10" d="M283.7,228.8H266v-52.2c0-7.7-5.5-13.9-12.2-13.9h-50.1c-6.7,0-12.2,6.2-12.2,13.9v52.2h-17.7v-52.2
		c0-17.5,13.4-31.7,30-31.7h50.1c16.5,0,30,14.2,30,31.7V228.8z"/>
	<path class="st10" d="M243.4,269.4c0,8-6.5,14.5-14.5,14.5c-8,0-14.5-6.5-14.5-14.5c0-8,6.5-14.5,14.5-14.5
		C236.9,254.9,243.4,261.4,243.4,269.4"/>
	<path class="st10" d="M224,276l-7.9,33.2c-1.1,4.7,2.4,9.1,7.2,9.1h10.8c4.8,0,8.4-4.5,7.2-9.2l-8.1-33.1H224z"/>
</g>
</svg>
