<?xml version="1.0" encoding="utf-8"?>
<!-- Generator: Adobe Illustrator 22.1.0, SVG Export Plug-In . SVG Version: 6.00 Build 0)  -->
<svg version="1.1" id="Layer_1" xmlns="http://www.w3.org/2000/svg" xmlns:xlink="http://www.w3.org/1999/xlink" x="0px" y="0px"
	 viewBox="0 0 512 512" style="enable-background:new 0 0 512 512;" xml:space="preserve">
<style type="text/css">
	.st0{clip-path:url(#SVGID_2_);}
</style>
<g>
	<defs>
		<rect id="SVGID_1_" x="23.7" y="77.5" width="464.5" height="357"/>
	</defs>
	<clipPath id="SVGID_2_">
		<use xlink:href="#SVGID_1_"  style="overflow:visible;"/>
	</clipPath>
	<path class="st0" d="M327.5,434.5h-143c-19.7,0-35.8-16.1-35.8-35.8c0-19.6,16.1-35.8,35.8-35.8h143c19.7,0,35.8,16.1,35.8,35.8
		C363.3,418.4,347.2,434.5,327.5,434.5"/>
	<path class="st0" d="M391.4,291.8H120.6c-19.7,0-35.8-16.1-35.8-35.8s16.1-35.8,35.8-35.8h270.8c19.7,0,35.8,16.1,35.8,35.8
		S411.1,291.8,391.4,291.8"/>
	<path class="st0" d="M452.5,149h-393c-19.7,0-35.8-16.1-35.8-35.8c0-19.7,16.1-35.8,35.8-35.8h393c19.7,0,35.8,16.1,35.8,35.8
		C488.2,132.9,472.2,149,452.5,149"/>
</g>
</svg>
