<?xml version="1.0" encoding="utf-8"?>
<!-- Generator: Adobe Illustrator 19.0.0, SVG Export Plug-In . SVG Version: 6.00 Build 0)  -->
<svg version="1.1" id="Layer_1" xmlns="http://www.w3.org/2000/svg" xmlns:xlink="http://www.w3.org/1999/xlink" x="0px" y="0px"
	 viewBox="0 0 512 512" enable-background="new 0 0 512 512" xml:space="preserve">
<g>
	<path id="XMLID_9_" fill="#9B90C2" d="M268.1,405.8h-24.4c-14,0-25.9-10.1-28.2-23.9l-2.1-12.6c-2.3-0.9-4.6-1.8-6.9-2.8l-10.7,7.6
		c-10.9,7.9-27.2,6.6-36.8-3.1l-17.2-17.2c-10-9.9-11.3-25.4-3.1-36.9l7.3-10.2c-1.1-2.5-2.2-5-3.2-7.5l-12.9-2.2
		c-13.8-2.3-23.9-14.2-23.9-28.2v-24.3c0-14,10-25.9,23.9-28.3l12.3-2.1c0.9-2.6,2-5.1,3.1-7.5l-7.6-10.7
		c-8.1-11.4-6.8-26.9,3.1-36.9l17.3-17.2c9.4-9.6,25.8-11,36.9-3l10.2,7.4c2.5-1.1,4.9-2.2,7.5-3.1l2.2-12.9
		c2.3-13.8,14.2-23.9,28.2-23.9h24.3c14,0,25.9,10,28.3,23.9l2.1,12.4c2.7,1,5.5,2.1,8.2,3.4l10.4-7.4c11-7.9,27.2-6.6,36.8,3.1
		l17.2,17.2c9.9,9.8,11.3,25.4,3.1,36.8l-7.5,10.4c1.1,2.4,2.1,4.9,3.1,7.5l12.6,2.1c12.8,2.2,24,13.5,23.8,24.2
		c0,4.1,0,16.2,0,16.2v12.2c0,14-10,25.9-23.9,28.2l-12.6,2.1c-0.9,2.5-2,5-3.1,7.5l7.5,10.5c8.1,11.4,6.8,26.9-3.1,36.9l-17.2,17.2
		c-9.6,9.7-25.9,11-36.9,3.1l-10.4-7.4c-2.5,1.1-5,2.1-7.5,3.1l-2.2,12.6C294,395.7,282.2,405.8,268.1,405.8z M204.5,339.5l6.3,3.3
		c5,2.6,10.5,4.9,16.3,6.7l6.8,2.1l4.4,26.4c0.4,2.7,2.8,4.6,5.5,4.6h24.4c2.7,0,5-2,5.5-4.6l4.5-26.4l6.8-2.1
		c5.8-1.8,11.5-4.1,16.8-7l6.3-3.3l21.8,15.6c2.1,1.5,5.2,1.3,7.1-0.6l17.3-17.2c1.9-1.9,2.2-4.9,0.6-7.2L339.2,308l3.3-6.3
		c3-5.6,5.3-11.3,6.9-16.8l2.1-6.9l26.5-4.4c2.7-0.4,4.6-2.8,4.6-5.5V256c0,0,0-9.9,0-15c-0.8-0.9-2.5-2.3-4.6-2.7l0,0l-26.4-4.5
		l-2.1-6.8c-1.8-5.8-4.1-11.5-7-16.8l-3.3-6.3l15.6-21.8c1.6-2.2,1.3-5.2-0.6-7.1l-17.3-17.3c-1.9-2-4.9-2.2-7-0.7l-21.9,15.6
		l-6.3-3.3c-5.8-3-11.6-5.4-17.5-7.2l-6.9-2.1l-4.4-26.2c-0.4-2.7-2.8-4.6-5.5-4.6h-24.3c-2.7,0-5,1.9-5.5,4.6l-4.6,26.7l-6.7,2.1
		c-5.7,1.8-11.3,4.1-16.7,7.1l-6.4,3.4l-21.7-15.7c-2.1-1.5-5.3-1.2-7,0.6l-17.4,17.3c-1.9,1.9-2.2,4.9-0.6,7.2l15.7,22l-3.3,6.3
		c-2.8,5.3-5,10.8-6.9,16.9l-2.1,6.8l-26.2,4.4c-2.7,0.5-4.7,2.8-4.7,5.5v24.3c0,2.7,2,5,4.7,5.5l26.7,4.6l2.1,6.8
		c1.7,5.6,4.1,11.3,7,16.7l3.4,6.3l-15.6,21.7c-1.6,2.2-1.3,5.2,0.6,7.1l17.3,17.3c1.9,1.9,4.9,2.2,7,0.7L204.5,339.5z M256,327.2
		c-39.3,0-71.2-31.9-71.2-71.2c0-39.3,31.9-71.2,71.2-71.2s71.2,31.9,71.2,71.2C327.2,295.2,295.3,327.2,256,327.2z M256,207.8
		c-26.5,0-48.1,21.6-48.1,48.1c0,26.5,21.6,48.1,48.1,48.1s48.1-21.6,48.1-48.1C304.1,229.4,282.6,207.8,256,207.8z"/>
</g>
</svg>
