<?xml version="1.0" encoding="utf-8"?>
<!-- Generator: Adobe Illustrator 22.1.0, SVG Export Plug-In . SVG Version: 6.00 Build 0)  -->
<svg version="1.1" id="Layer_1" xmlns="http://www.w3.org/2000/svg" xmlns:xlink="http://www.w3.org/1999/xlink" x="0px" y="0px"
	 viewBox="0 0 512 512" style="enable-background:new 0 0 512 512;" xml:space="preserve">
<path d="M256,473.3c-58.1,0-112.6-22.6-153.7-63.7c-41-41-63.7-95.6-63.7-153.7c0-58.1,22.6-112.6,63.7-153.7
	c41-41,95.6-63.7,153.7-63.7c58.1,0,112.6,22.6,153.7,63.7c41,41,63.7,95.6,63.7,153.7c0,58.1-22.6,112.6-63.7,153.7
	S314.1,473.3,256,473.3z M256,78.7c-97.8,0-177.3,79.5-177.3,177.3S158.2,433.3,256,433.3S433.3,353.8,433.3,256
	S353.8,78.7,256,78.7z"/>
<g>
	<circle cx="250" cy="156.8" r="32.7"/>
	<path d="M267.8,387.9c-7.2,0-13.8-1.9-19.6-5.7c-5.8-3.8-10.1-9.2-12.8-16.1c-2.6-6.6-3.8-17.3-3.7-32.6v-72.1
		c0-8.8-0.8-11.8-1.2-12.6c-0.6-1.6-1.7-2.8-3.3-3.9l0,0c-0.2-0.1-1.3-0.5-4.5-0.5c-0.3,0-0.7,0-1,0.1c-0.9,0.2-3.1,0.7-7.8,2.2l0,0
		c-2.6,0.8-5.4-0.5-6.3-3.1l-2.1-5.8c-0.9-2.5,0.4-5.3,2.8-6.3l48.4-19.7c0.6-0.2,1.2-0.4,1.9-0.4h6.5c2.8,0,5,2.2,5,5v123.9
		c0,11.9,1.9,15.6,2.8,16.6c1.6,2,3.7,3,6.8,3c1.3,0,3.2-0.3,5.3-2.8c0.9-1,3.1-4.7,4.8-16.4l0,0c0.4-2.5,2.5-4.3,4.9-4.3h6.8
		c2.9,0,5.2,2.5,5,5.4l0,0c-1.4,16.3-5.5,27.7-12.5,34.9C287,384.2,278.2,387.9,267.8,387.9z"/>
	<path d="M227.1,244.7C227.1,244.7,227.1,244.7,227.1,244.7L227.1,244.7z"/>
</g>
</svg>
