<!-- Generated by IcoMoon.io -->
<svg version="1.1" xmlns="http://www.w3.org/2000/svg" width="32" height="32" viewBox="0 0 32 32">
<title>Card11</title>
<path d="M29.675 10.606l-0.706-4.188c-0.219-1.294-1.45-2.169-2.744-1.944l-23.244 3.931c-1.294 0.219-2.169 1.444-1.95 2.744l1.075 6.344v-5.137c0-1.313 1.069-2.381 2.381-2.381h23.569c0.625 0 1.194 0.238 1.619 0.631z"></path>
<path d="M28.7 10.963h-23.569c-1.313 0-2.381 1.069-2.381 2.381v11.831c0 1.313 1.069 2.381 2.381 2.381h23.569c1.313 0 2.381-1.069 2.381-2.381v-11.825c0-1.319-1.069-2.387-2.381-2.387zM4.519 13.569c0-0.481 0.394-0.875 0.875-0.875h3.556c0.481 0 0.875 0.394 0.875 0.875v3.556c0 0.481-0.394 0.875-0.875 0.875h-3.556c-0.481 0-0.875-0.394-0.875-0.875v-3.556zM4.519 22.556c0-0.1 0.081-0.181 0.181-0.181h4.006c0.1 0 0.181 0.081 0.181 0.181v0.144c0 0.1-0.081 0.181-0.181 0.181h-4c-0.1 0-0.181-0.081-0.181-0.181l-0.006-0.144zM15.006 25.45h-10.15c-0.181 0-0.331-0.15-0.331-0.331s0.15-0.331 0.331-0.331h10.15c0.181 0 0.331 0.15 0.331 0.331s-0.15 0.331-0.331 0.331zM15.731 22.7c0 0.1-0.081 0.181-0.181 0.181h-4.006c-0.1 0-0.181-0.081-0.181-0.181v-0.144c0-0.1 0.081-0.181 0.181-0.181h4.006c0.1 0 0.181 0.081 0.181 0.181 0 0 0 0.144 0 0.144zM22.575 22.7c0 0.1-0.081 0.181-0.181 0.181h-4.006c-0.1 0-0.181-0.081-0.181-0.181v-0.144c0-0.1 0.081-0.181 0.181-0.181h4.006c0.1 0 0.181 0.081 0.181 0.181v0.144zM29.419 22.7c0 0.1-0.081 0.181-0.181 0.181h-4.006c-0.1 0-0.181-0.081-0.181-0.181v-0.144c0-0.1 0.081-0.181 0.181-0.181h4.006c0.1 0 0.181 0.081 0.181 0.181v0.144zM29.675 13.188c0 0.269-0.219 0.494-0.494 0.494h-9.438c-0.269 0-0.494-0.219-0.494-0.494v0c0-0.269 0.219-0.494 0.494-0.494h9.444c0.269 0 0.488 0.225 0.488 0.494 0 0 0 0 0 0z"></path>
<path d="M7.175 16.637c-0.55 0-0.969-0.881-0.969-2.056s0.419-2.056 0.969-2.056c0.55 0 0.969 0.881 0.969 2.056s-0.419 2.056-0.969 2.056zM7.175 12.819c-0.319 0-0.675 0.725-0.675 1.762s0.356 1.763 0.675 1.763 0.675-0.725 0.675-1.762-0.356-1.762-0.675-1.762v0z"></path>
<path d="M4.338 16.344h5.75v0.294h-5.75c0 0 0-0.294 0-0.294z"></path>
<path d="M4.338 17.081h5.75v0.294h-5.75c0 0 0-0.294 0-0.294z"></path>
<path d="M7.9 13.856h2.188v0.294h-2.188c0 0 0-0.294 0-0.294z"></path>
<path d="M4.444 13.856h1.95v0.294h-1.95c0 0 0-0.294 0-0.294z"></path>
<path d="M7.9 15.225h2.188v0.294h-2.188c0 0 0-0.294 0-0.294z"></path>
<path d="M4.444 15.225h1.95v0.294h-1.95c0 0 0-0.294 0-0.294z"></path>
</svg>
