<?xml version="1.0" encoding="utf-8"?>
<!-- Generator: Adobe Illustrator 22.1.0, SVG Export Plug-In . SVG Version: 6.00 Build 0)  -->
<svg version="1.1" id="Layer_1" xmlns="http://www.w3.org/2000/svg" xmlns:xlink="http://www.w3.org/1999/xlink" x="0px" y="0px"
	 viewBox="0 0 512 512" style="enable-background:new 0 0 512 512;" xml:space="preserve">
<style type="text/css">
	.st0{fill:black;}
</style>
<g>
	<g>
		<path class="st0" d="M405.3,455H347v-23h58.3c4.4-0.1,26.8-1.6,26.8-26.8v-58.6h23v58.6C455,441.7,425.3,455,405.3,455z"/>
	</g>
	<g>
		<path class="st0" d="M165,455h-58.3c-20,0-49.8-13.3-49.8-49.8v-58.6h23v58.6c0,26,24,26.8,26.8,26.8H165V455z"/>
	</g>
	<g>
		<path class="st0" d="M80,165.4H57v-58.6C57,70.2,86.7,57,106.8,57H165v23h-58.3C102.3,80,80,81.6,80,106.8V165.4z"/>
	</g>
	<g>
		<path class="st0" d="M455,165.4h-23v-58.6c0-26-24-26.8-26.8-26.8H347V57h58.3c20,0,49.8,13.2,49.8,49.8V165.4z"/>
	</g>
</g>
</svg>
