<?xml version="1.0" encoding="utf-8"?>
<!-- Generator: Adobe Illustrator 19.0.0, SVG Export Plug-In . SVG Version: 6.00 Build 0)  -->
<svg version="1.1" id="Layer_1" xmlns="http://www.w3.org/2000/svg" xmlns:xlink="http://www.w3.org/1999/xlink" x="0px" y="0px"
	 viewBox="0 0 512 512" enable-background="new 0 0 512 512" xml:space="preserve">
<g id="XMLID_14_">
	<g>
		<defs>
			<rect id="XMLID_12_" x="89.3" y="119.1" width="333.3" height="273.7"/>
		</defs>
		<clipPath id="XMLID_16_">
			<use xlink:href="#XMLID_12_"  overflow="visible"/>
		</clipPath>
		<path id="XMLID_13_" clip-path="url(#XMLID_16_)" fill="#FDDC86" d="M300.6,296.7c32.7,0,59.2-26.5,59.2-59.2
			s-26.5-59.2-59.2-59.2s-59.2,26.5-59.2,59.2S268,296.7,300.6,296.7"/>
	</g>
	<polygon id="XMLID_11_" fill="#7061a8" points="226.7,215.4 182.3,215.4 152.7,244.9 152.7,274.5 137.9,289.3 108.3,304.1 
		93.5,333.7 108.3,363.3 108.3,378.1 137.9,392.9 152.7,392.9 345,378.1 359.8,363.3 374.6,348.5 374.6,318.9 359.8,289.3 
		345,274.5 315.4,259.7 300.6,274.5 285.9,274.5 285.9,259.7 271.1,244.9 256.3,215.4 	"/>
	<g>
		<defs>
			<rect id="XMLID_1_" x="89.3" y="119.1" width="333.3" height="273.7"/>
		</defs>
		<clipPath id="XMLID_17_">
			<use xlink:href="#XMLID_1_"  overflow="visible"/>
		</clipPath>
		<path id="XMLID_10_" clip-path="url(#XMLID_17_)" fill="#7061a8" d="M234.9,171.1l-18.4-18.6c-2.2-2.6-6-2.9-8.6-0.8
			c-2.6,2.2-2.9,6-0.8,8.6c0.2,0.3,0.5,0.5,0.7,0.7l18.4,18.6c2.6,2.2,6.4,1.9,8.6-0.7C236.8,176.7,236.8,173.4,234.9,171.1"/>
		<path id="XMLID_9_" clip-path="url(#XMLID_17_)" fill="#7061a8" d="M390.5,153.5c-2.2-2.6-6-2.9-8.6-0.8c-0.3,0.2-0.5,0.5-0.7,0.7
			l-18.6,18.4c-2.6,2.2-2.9,6-0.8,8.6c2.2,2.6,6,2.9,8.6,0.8c0.3-0.2,0.5-0.5,0.7-0.7l18.6-18.4C392.3,160,392.7,156.1,390.5,153.5"
			/>
		<path id="XMLID_8_" clip-path="url(#XMLID_17_)" fill="#7061a8" d="M279.9,149.7c0-0.2-0.1-0.4-0.1-0.5l-6.7-25.2
			c-0.7-3.3-3.9-5.4-7.2-4.7c-3.3,0.7-5.4,3.9-4.7,7.2c0,0.2,0.1,0.4,0.1,0.5l6.7,25.2c0.7,3.3,3.9,5.4,7.2,4.7
			C278.6,156.2,280.6,153,279.9,149.7"/>
		<path clip-path="url(#XMLID_17_)" fill="#7061a8" d="M329.3,378.7c-4.2,1-8.4,1.5-12.7,1.5H142.2c-22.5,0-40.8-18.3-40.8-40.9
			c0-10.8,4.3-21.2,12-28.8l-0.1,0c7.6-7.7,18-12,28.9-11.9h1.5h1.3c3.3,0.2,6.2-2.3,6.5-5.7c0-0.5,0-1.1-0.1-1.6
			c-0.1-1.2-0.3-2.4-0.3-3.8v-4.3c0.5-37,30.8-66.5,67.8-66c32.5,0.4,59.9,24.1,65.1,56.2c0.5,3.3,3.6,5.6,6.9,5.1
			c0.6-0.1,1.3-0.3,1.8-0.6c3.7-1.9,7.6-3.3,11.7-4.2c29-6.9,58,10.9,65,39.9C376.2,342.7,358.3,371.8,329.3,378.7 M278.3,188.1
			c13.6-5.4,28.8-5.4,42.4,0c29.5,11.8,43.9,45.2,32.2,74.7c-0.9,2-1.8,4-2.9,5.9v0.5c-16.8-9.8-37.1-11.7-55.5-5.1
			c-3.4-13.5-10.3-25.9-20-35.9c6.8-12.6,21.9-18.2,35.2-12.9c3.2,1.1,6.6-0.7,7.7-3.9c1-2.9-0.4-6.1-3.2-7.4
			c-18.1-7.2-38.8-0.5-49.1,16c-4.6-3.4-9.5-6.4-14.7-8.8C256.9,200.8,266.7,192.7,278.3,188.1 M363.4,279.6
			c-1.1-1.1-2.3-2.3-3.6-3.4l1-1.8c1.2-2.3,2.4-4.7,3.3-7.1c14.3-35.7-3-76.2-38.7-90.5c-0.1,0-0.1-0.1-0.2-0.1
			c-32.3-12.9-69.1,0-86.3,30.2c-42.1-11.7-85.7,12.8-97.4,54.9c-2,7-2.9,14.2-2.9,21.5v3.2c-29.2,2.1-51.2,27.4-49.1,56.6
			c2,27.6,24.8,49.1,52.5,49.3h0.2h174.5c36.5,0.1,66.1-29.5,66.2-65.9C382.8,308.9,375.8,292,363.4,279.6"/>
		<path id="XMLID_4_" clip-path="url(#XMLID_17_)" fill="#7061a8" d="M422.4,211.1c-0.9-3-4-4.8-7.1-4.2l-25.2,6.7
			c-3.2,0.8-5.2,4.1-4.4,7.4c0.8,3.3,4.1,5.2,7.4,4.4h0l25.2-6.7C421.6,217.7,423.4,214.3,422.4,211.1"/>
		<path id="XMLID_3_" clip-path="url(#XMLID_17_)" fill="#7061a8" d="M418.1,270.4l-25.2-6.9c-3.2-0.9-6.6,0.9-7.5,4.2
			c-0.9,3.2,0.9,6.6,4.2,7.5l25.2,6.9c3.2,0.9,6.6-0.9,7.5-4.2C423.2,274.7,421.3,271.4,418.1,270.4"/>
		<path id="XMLID_2_" clip-path="url(#XMLID_17_)" fill="#7061a8" d="M332.4,119.9c-3.2-0.9-6.6,0.9-7.5,4.2l-6.9,25.2
			c-1,3.2,0.9,6.6,4.1,7.6c0.1,0,0.1,0,0.2,0.1c3.2,0.9,6.6-0.9,7.5-4.1c0,0,0-0.1,0-0.1l6.7-25.2
			C337.5,124.2,335.6,120.8,332.4,119.9"/>
	</g>
</g>
</svg>
