<?xml version="1.0" encoding="utf-8"?>
<!-- Generator: Adobe Illustrator 22.1.0, SVG Export Plug-In . SVG Version: 6.00 Build 0)  -->
<svg version="1.1" id="Layer_1" xmlns="http://www.w3.org/2000/svg" xmlns:xlink="http://www.w3.org/1999/xlink" x="0px" y="0px"
	 viewBox="0 0 512 512" style="enable-background:new 0 0 512 512;" xml:space="preserve">
<style type="text/css">
	.st0{fill:#FFCE00;stroke:#9B2E0D;stroke-width:12;stroke-miterlimit:10;}
	.st1{fill:#FFCE00;stroke:#9B2E0D;stroke-width:4;stroke-miterlimit:10;}
	.st2{fill:#FFCE00;stroke:#F9F7F7;stroke-width:8;stroke-miterlimit:10;}
	.st3{fill:#DDDDDD;stroke:#000000;stroke-width:8;stroke-miterlimit:10;}
</style>
<g>
	<g>
		<g>
			<circle class="st0" cx="166.7" cy="213.9" r="92.6"/>
			<line class="st1" x1="45.6" y1="104.8" x2="89.9" y2="149.1"/>
			<line class="st1" x1="228.1" y1="300.4" x2="254.6" y2="330.2"/>
			<line class="st1" x1="17" y1="213.2" x2="62.9" y2="213.2"/>
			<line class="st1" x1="166.7" y1="51.2" x2="166.7" y2="110.5"/>
			<line class="st1" x1="286.8" y1="85.3" x2="235.5" y2="136.5"/>
			<line class="st1" x1="92" y1="280.1" x2="67.9" y2="304.1"/>
			<line class="st1" x1="317.8" y1="213.2" x2="270.4" y2="213.2"/>
			<line class="st1" x1="166.7" y1="315.9" x2="166.7" y2="370.9"/>
			<path class="st2" d="M96.2,184.1c0,0-28,82.5,62.5,106.1"/>
			<line class="st2" x1="166.5" y1="291" x2="174.5" y2="291.7"/>
		</g>
		<path class="st3" d="M426.6,459.2c38.8,0,70.3-31.5,70.3-70.3c0-33.4-23.2-61.3-54.4-68.5c-0.6-70.6-58.1-127.7-128.8-127.7
			c-48.6,0-90.9,26.9-112.8,66.6c-6.7-2.9-14-4.5-21.8-4.5c-27.9,0-50.9,20.8-54.4,47.7c-36.3,7.2-63.6,39.2-63.6,77.6
			c0,43.7,35.4,79.1,79.1,79.1C152.3,459.2,418.3,459.2,426.6,459.2z"/>
	</g>
	<path class="st3" d="M225.3,267.5c0,0,59.9-92.5,153.6-25.5"/>
	<line class="st3" x1="385.2" y1="247.9" x2="395.2" y2="257.1"/>
</g>
</svg>
