<?xml version="1.0" encoding="utf-8"?>
<!-- Generator: Adobe Illustrator 22.1.0, SVG Export Plug-In . SVG Version: 6.00 Build 0)  -->
<svg version="1.1" id="Layer_1" xmlns="http://www.w3.org/2000/svg" xmlns:xlink="http://www.w3.org/1999/xlink" x="0px" y="0px"
	 viewBox="0 0 512 512" style="enable-background:new 0 0 512 512;" xml:space="preserve">
<style type="text/css">
	.st0{fill:#D5D3F4;}
	.st1{fill:#9082D8;stroke:#202020;stroke-width:6.5;stroke-miterlimit:10;}
	.st2{fill:#D5D3F4;stroke:#202020;stroke-width:6.5;stroke-miterlimit:10;}
	.st3{fill:none;stroke:#202020;stroke-width:6.5;stroke-miterlimit:10;}
	.st4{fill:#FFFFFF;}
	.st5{fill:#202020;}
	.st6{fill:#A7A7D1;stroke:#202020;stroke-width:6.5;stroke-miterlimit:10;}
</style>
<g>
	<polygon class="st0" points="314,225.4 336.9,232 339.9,277.4 292.4,324.7 225.5,329.9 180.7,291.4 172,243.4 177.1,225.4 	"/>
	<path class="st1" d="M322.6,435.7H189.3c-4.1,0-7.5-3.3-7.5-7.5v-17.2c0-4.1,3.3-7.5,7.5-7.5h133.3c4.1,0,7.5,3.3,7.5,7.5v17.2
		C330.1,432.4,326.7,435.7,322.6,435.7z"/>
	<path class="st2" d="M263.6,402.7h-15.3c-3.7,0-6.6-3-6.6-6.6v-38.5c0-3.7,3-6.6,6.6-6.6h15.3c3.7,0,6.6,3,6.6,6.6v38.5
		C270.2,399.7,267.2,402.7,263.6,402.7z"/>
	<path class="st1" d="M277,297.8h-42.1c-10.1,0-18.2-8.2-18.2-18.2l0-185c0-10.1,8.2-18.2,18.2-18.2H277c10.1,0,18.2,8.2,18.2,18.2
		v185C295.2,289.6,287,297.8,277,297.8z"/>
	<g>
		<path class="st3" d="M218.5,225.4h-27.9c-10.3,0-18.6,6.5-18.6,14.5v25.6c0,14,7.1,27.4,19.8,37.2l45.4,36.1"/>
		<path class="st3" d="M294.6,225.4h26.6c10.3,0,18.6,6.5,18.6,14.5v25.6c0,14-7.1,27.4-19.8,37.2l-45.4,36.1"/>
	</g>
	<g>
		<rect x="235.1" y="116" class="st5" width="41.7" height="8.9"/>
	</g>
	<g>
		<rect x="235.1" y="137.9" class="st5" width="41.7" height="8.9"/>
	</g>
	<g>
		<rect x="235.1" y="137.9" class="st5" width="41.7" height="8.9"/>
	</g>
	<g>
		<rect x="235.1" y="159.8" class="st5" width="41.7" height="8.9"/>
	</g>
	<g>
		<rect x="235.1" y="159.8" class="st5" width="41.7" height="8.9"/>
	</g>
	<g>
		<rect x="235.1" y="181.6" class="st5" width="41.7" height="8.9"/>
	</g>
	<g>
		<rect x="235.1" y="181.6" class="st5" width="41.7" height="8.9"/>
	</g>
	<g>
		<rect x="235.1" y="203.5" class="st5" width="41.7" height="8.9"/>
	</g>
	<g>
		<rect x="235.1" y="203.5" class="st5" width="41.7" height="8.9"/>
	</g>
	<g>
		<rect x="235.1" y="225.4" class="st5" width="41.7" height="8.9"/>
	</g>
	<g>
		<rect x="235.1" y="225.4" class="st5" width="41.7" height="8.9"/>
	</g>
	<g>
		<rect x="235.1" y="247.3" class="st5" width="41.7" height="8.9"/>
	</g>
	<path class="st6" d="M278.4,350.9h-44.9c-4.1,0-7.5-3.3-7.5-7.5v-17.2c0-4.1,3.3-7.5,7.5-7.5h44.9c4.1,0,7.5,3.3,7.5,7.5v17.2
		C285.8,347.6,282.5,350.9,278.4,350.9z"/>
</g>
</svg>
