<?xml version="1.0" encoding="utf-8"?>
<!-- Generator: Adobe Illustrator 19.0.0, SVG Export Plug-In . SVG Version: 6.00 Build 0)  -->
<svg version="1.1" id="Capa_1" xmlns="http://www.w3.org/2000/svg" xmlns:xlink="http://www.w3.org/1999/xlink" x="0px" y="0px"
	 viewBox="-449 451 100 100" enable-background="new -449 451 100 100" xml:space="preserve">
<path d="M-425.2,489.5c-2.2-1.3-3.7-3.7-3.7-6.5c0-4.2,3.4-7.5,7.5-7.5c2.3,0,4.3,1,5.7,2.6c0.8-0.6,1.7-1.1,2.5-1.6
	c-1.9-2.4-4.9-3.9-8.2-3.9c-5.8,0-10.5,4.7-10.5,10.5c0,4,2.2,7.5,5.5,9.3C-426,491.3-425.6,490.4-425.2,489.5z"/>
<path d="M-376.7,472.5c-3.3,0-6.3,1.5-8.2,3.9c0.9,0.5,1.7,1.1,2.5,1.6c1.4-1.6,3.4-2.6,5.7-2.6c4.2,0,7.5,3.4,7.5,7.5
	c0,2.8-1.5,5.2-3.7,6.5c0.4,0.9,0.8,1.8,1.2,2.8c3.3-1.8,5.5-5.3,5.5-9.3C-366.2,477.2-370.9,472.5-376.7,472.5z"/>
<path d="M-399,469.9c-17.4,0-31.6,14.2-31.6,31.6c0,17.4,14.2,31.6,31.6,31.6s31.6-14.2,31.6-31.6C-367.4,484-381.6,469.9-399,469.9
	z M-399,530c-15.8,0-28.6-12.8-28.6-28.6c0-15.8,12.8-28.6,28.6-28.6s28.6,12.8,28.6,28.6C-370.4,517.2-383.2,530-399,530z"/>
<g>
	<polygon points="-405.3,510.3 -413.6,502 -415.8,504.1 -405.3,514.6 -382.2,491.5 -384.4,489.4 	"/>
</g>
<g>
	<line fill="#FFFFFE" x1="-415.7" y1="525.5" x2="-428.4" y2="538.2"/>
	<path d="M-417.3,525l-12.1,12.1l2.1,2.1l12.7-12.7l-0.6-0.6C-415.9,525.7-416.6,525.4-417.3,525z"/>
	<path d="M-417.3,525c0.7,0.4,1.4,0.7,2.1,1l-1.5-1.5L-417.3,525z"/>
</g>
<path d="M-382.8,526l-0.6,0.6l12.7,12.7l2.1-2.1l-12.1-12.1C-381.4,525.4-382.1,525.7-382.8,526z"/>
<path d="M-382.8,526c0.7-0.3,1.4-0.6,2.1-1l-0.5-0.5L-382.8,526z"/>
</svg>
