<?xml version="1.0" encoding="utf-8"?>
<!-- Generator: Adobe Illustrator 19.0.0, SVG Export Plug-In . SVG Version: 6.00 Build 0)  -->
<svg version="1.1" id="Layer_1" xmlns="http://www.w3.org/2000/svg" xmlns:xlink="http://www.w3.org/1999/xlink" x="0px" y="0px"
	 viewBox="0 0 512 512" enable-background="new 0 0 512 512" xml:space="preserve">
<path id="XMLID_8_" fill="#fff" d="M256,204.2c-36.1,0-65.4,29.3-65.4,65.4c0,36.1,29.3,65.4,65.4,65.4s65.4-29.3,65.4-65.4
	C321.4,233.6,292.1,204.2,256,204.2"/>
<path id="XMLID_12_" fill="#fff" d="M375.9,242.4c-12,0-21.8-9.8-21.8-21.8c0-12,9.8-21.8,21.8-21.8c12,0,21.8,9.8,21.8,21.8
	C397.7,232.6,387.9,242.4,375.9,242.4 M256,367.7c-54.1,0-98.1-44-98.1-98.1c0-54.1,44-98.1,98.1-98.1c54.1,0,98.1,44,98.1,98.1
	C354.1,323.7,310.1,367.7,256,367.7 M147,177L147,177h-10.9v-16.4H147V177z M393.3,177h-46.4l-13.4-33.4c0,0-8.4-21.1-31.2-21.1H201
	c0,0-14.1,0-19.3,13.1L165.1,177h-7.2v-27.2h-32.7V177h-6.5c-14.4,0-26.2,11.7-26.2,26.2v160c0,14.5,11.8,26.3,26.3,26.3h274.3
	c14.5,0,26.3-11.8,26.3-26.3v-160C419.5,188.7,407.7,177,393.3,177"/>
</svg>
