<?xml version="1.0" encoding="utf-8"?>
<!-- Generator: Adobe Illustrator 22.1.0, SVG Export Plug-In . SVG Version: 6.00 Build 0)  -->
<svg version="1.1" id="Layer_1" xmlns="http://www.w3.org/2000/svg" xmlns:xlink="http://www.w3.org/1999/xlink" x="0px" y="0px"
	 viewBox="0 0 512 512" style="enable-background:new 0 0 512 512;" xml:space="preserve">
<style type="text/css">
	.st0{fill:#FCC945;}
</style>
<path class="st0" d="M176.1,58"/>
<g>
	<path class="st0" d="M146.3,146.1l-21.7-34.2c-16.3,14-30.2,30.6-41.1,49l31.6,25.4C123.2,171.3,133.8,157.7,146.3,146.1z"/>
	<path class="st0" d="M97.4,275.4c-1.5-14.1-1-28,1.3-41.3l-37.8-15.2c-4.2,19.5-5.4,39.9-3.2,60.7c0,0.1,0,0.2,0,0.4l39.8-4.1
		C97.5,275.6,97.5,275.5,97.4,275.4z"/>
	<path class="st0" d="M107.2,315.5L69.5,329c7.5,19.6,18.2,37.6,31.2,53.5l34.1-21.6C123.2,347.6,113.8,332.3,107.2,315.5z"/>
	<path class="st0" d="M175,393.5l-25.4,31.5c17.9,11,37.6,19.1,58.5,23.8l15.2-37.7C206.1,407.9,189.8,401.9,175,393.5z"/>
	<path class="st0" d="M230.5,66.3c-18.8,2-36.7,6.6-53.4,13.4l13.5,37.7c13.7-5.8,28.5-9.7,44.1-11.4L230.5,66.3z"/>
	<path class="st0" d="M262.4,65.3v40c85,0,154.1,69.1,154.1,154.1s-69.1,154.1-154.1,154.1v40c107,0,194.1-87.1,194.1-194.1
		S369.4,65.3,262.4,65.3z"/>
	<path class="st0" d="M119.2,90.6"/>
	<g>
		<polygon class="st0" points="211,337.2 143.8,270 165,248.8 211,294.8 325.5,180.4 346.7,201.6 		"/>
	</g>
</g>
</svg>
