<?xml version="1.0" encoding="utf-8"?>
<!-- Generator: Adobe Illustrator 22.1.0, SVG Export Plug-In . SVG Version: 6.00 Build 0)  -->
<svg version="1.1" id="Capa_1" xmlns="http://www.w3.org/2000/svg" xmlns:xlink="http://www.w3.org/1999/xlink" x="0px" y="0px"
	 viewBox="0 0 512 512" style="enable-background:new 0 0 512 512;" xml:space="preserve">
<style type="text/css">
	.st0{fill:#EBE3F9;}
	.st1{fill:#7061A7;}
	.st2{fill:#E6E7E8;}
	.st3{fill:#BBBDBF;}
	.st4{fill:#EA4559;}
	.st5{fill:#FAD9DD;}
	.st6{fill:#D5E8EC;}
	.st7{fill:#336173;}
</style>
<g>
	<path class="st0" d="M130.8,178.6c24.7,0,44.7-20,44.7-44.7c0-24.8-20-44.8-44.7-44.8s-44.7,20-44.7,44.8
		C86.1,158.6,106.1,178.6,130.8,178.6"/>
	<path class="st1" d="M130.8,189.8c-30.8,0-55.9-25.1-55.9-55.9c0-30.9,25.1-56,55.9-56s55.9,25.1,55.9,56
		C186.7,164.8,161.6,189.8,130.8,189.8z M130.8,100.4c-18.5,0-33.5,15.1-33.5,33.6c0,18.5,15,33.5,33.5,33.5s33.5-15,33.5-33.5
		C164.3,115.4,149.2,100.4,130.8,100.4z"/>
	<path class="st0" d="M130.8,300.8c24.7,0,44.7-20,44.7-44.8c0-24.7-20-44.7-44.7-44.7s-44.7,20-44.7,44.7
		C86.1,280.7,106.1,300.8,130.8,300.8"/>
	<path class="st1" d="M130.8,312c-30.8,0-55.9-25.1-55.9-56c0-30.8,25.1-55.9,55.9-55.9s55.9,25.1,55.9,55.9
		C186.7,286.9,161.6,312,130.8,312z M130.8,222.5c-18.5,0-33.5,15-33.5,33.5c0,18.5,15,33.6,33.5,33.6s33.5-15.1,33.5-33.6
		C164.3,237.5,149.2,222.5,130.8,222.5z"/>
	<path class="st2" d="M130.8,422.8c24.7,0,44.7-20,44.7-44.7c0-24.7-20-44.7-44.7-44.7s-44.7,20-44.7,44.7
		C86.1,402.8,106.1,422.8,130.8,422.8"/>
	<path class="st3" d="M130.8,434c-30.8,0-55.9-25.1-55.9-55.9s25.1-55.9,55.9-55.9s55.9,25.1,55.9,55.9S161.6,434,130.8,434z
		 M130.8,344.7c-18.5,0-33.5,15-33.5,33.5c0,18.5,15,33.5,33.5,33.5s33.5-15,33.5-33.5C164.3,359.7,149.2,344.7,130.8,344.7z"/>
	<path class="st0" d="M256,178.6c24.7,0,44.7-20,44.7-44.7c0-24.8-20-44.8-44.7-44.8s-44.7,20-44.7,44.8
		C211.3,158.6,231.3,178.6,256,178.6"/>
	<path class="st1" d="M256,189.8c-30.8,0-55.9-25.1-55.9-55.9c0-30.9,25.1-56,55.9-56c30.8,0,55.9,25.1,55.9,56
		C311.9,164.8,286.8,189.8,256,189.8z M256,100.4c-18.5,0-33.5,15.1-33.5,33.6c0,18.5,15,33.5,33.5,33.5c18.5,0,33.5-15,33.5-33.5
		C289.5,115.4,274.5,100.4,256,100.4z"/>
	<path class="st0" d="M256,300.8c24.7,0,44.7-20,44.7-44.8c0-24.7-20-44.7-44.7-44.7s-44.7,20-44.7,44.7
		C211.3,280.7,231.3,300.8,256,300.8"/>
	<path class="st1" d="M256,312c-30.8,0-55.9-25.1-55.9-56c0-30.8,25.1-55.9,55.9-55.9c30.8,0,55.9,25.1,55.9,55.9
		C311.9,286.9,286.8,312,256,312z M256,222.5c-18.5,0-33.5,15-33.5,33.5c0,18.5,15,33.6,33.5,33.6c18.5,0,33.5-15.1,33.5-33.6
		C289.5,237.5,274.5,222.5,256,222.5z"/>
	<path class="st2" d="M256,422.8c24.7,0,44.7-20,44.7-44.7c0-24.7-20-44.7-44.7-44.7s-44.7,20-44.7,44.7
		C211.3,402.8,231.3,422.8,256,422.8"/>
	<path class="st3" d="M256,434c-30.8,0-55.9-25.1-55.9-55.9s25.1-55.9,55.9-55.9c30.8,0,55.9,25.1,55.9,55.9S286.8,434,256,434z
		 M256,344.7c-18.5,0-33.5,15-33.5,33.5c0,18.5,15,33.5,33.5,33.5c18.5,0,33.5-15,33.5-33.5C289.5,359.7,274.5,344.7,256,344.7z"/>
	<path class="st0" d="M381.2,178.6c24.7,0,44.7-20,44.7-44.7c0-24.8-20-44.8-44.7-44.8c-24.7,0-44.7,20-44.7,44.8
		C336.5,158.6,356.6,178.6,381.2,178.6"/>
	<path class="st1" d="M381.2,189.8c-30.8,0-55.9-25.1-55.9-55.9c0-30.9,25.1-56,55.9-56s55.9,25.1,55.9,56
		C437.1,164.8,412.1,189.8,381.2,189.8z M381.2,100.4c-18.5,0-33.5,15.1-33.5,33.6c0,18.5,15,33.5,33.5,33.5
		c18.5,0,33.5-15,33.5-33.5C414.7,115.4,399.7,100.4,381.2,100.4z"/>
	<path class="st0" d="M381.2,300.8c24.7,0,44.7-20,44.7-44.8c0-24.7-20-44.7-44.7-44.7c-24.7,0-44.7,20-44.7,44.7
		C336.5,280.7,356.6,300.8,381.2,300.8"/>
	<path class="st1" d="M381.2,312c-30.8,0-55.9-25.1-55.9-56c0-30.8,25.1-55.9,55.9-55.9s55.9,25.1,55.9,55.9
		C437.1,286.9,412.1,312,381.2,312z M381.2,222.5c-18.5,0-33.5,15-33.5,33.5c0,18.5,15,33.6,33.5,33.6c18.5,0,33.5-15.1,33.5-33.6
		C414.7,237.5,399.7,222.5,381.2,222.5z"/>
	<path class="st2" d="M381.2,422.8c24.7,0,44.7-20,44.7-44.7c0-24.7-20-44.7-44.7-44.7c-24.7,0-44.7,20-44.7,44.7
		C336.5,402.8,356.6,422.8,381.2,422.8"/>
	<path class="st3" d="M381.2,434c-30.8,0-55.9-25.1-55.9-55.9s25.1-55.9,55.9-55.9s55.9,25.1,55.9,55.9S412.1,434,381.2,434z
		 M381.2,344.7c-18.5,0-33.5,15-33.5,33.5c0,18.5,15,33.5,33.5,33.5c18.5,0,33.5-15,33.5-33.5C414.7,359.7,399.7,344.7,381.2,344.7z
		"/>
</g>
</svg>
