<?xml version="1.0" encoding="utf-8"?>
<!-- Generator: Adobe Illustrator 19.0.0, SVG Export Plug-In . SVG Version: 6.00 Build 0)  -->
<svg version="1.1" id="Layer_1" xmlns="http://www.w3.org/2000/svg" xmlns:xlink="http://www.w3.org/1999/xlink" x="0px" y="0px"
	 viewBox="0 0 512 512" enable-background="new 0 0 512 512" xml:space="preserve">
<path id="XMLID_39_" fill="#6D6E70" d="M108.3,91.9c0,0-16.4,0-16.4,16.4v120.8c0,0,0,16.4,16.4,16.4h120.8c0,0,16.4,0,16.4-16.4
	V108.3c0,0,0-16.4-16.4-16.4H108.3z"/>
<path id="XMLID_36_" fill="#6D6E70" d="M108.3,266.5c0,0-16.4,0-16.4,16.4v120.8c0,0,0,16.4,16.4,16.4h120.8c0,0,16.4,0,16.4-16.4
	V282.9c0,0,0-16.4-16.4-16.4H108.3z"/>
<path id="XMLID_10_" fill="#6D6E70" d="M282.9,91.9c0,0-16.4,0-16.4,16.4v180.8c0,0,0,16.4,16.4,16.4h120.8c0,0,16.4,0,16.4-16.4
	V108.3c0,0,0-16.4-16.4-16.4H282.9z"/>
<path id="XMLID_8_" fill="#6D6E70" d="M282.9,321.9c0,0-16.4,0-16.4,16.4v65.3c0,0,0,16.4,16.4,16.4h120.8c0,0,16.4,0,16.4-16.4
	v-65.3c0,0,0-16.4-16.4-16.4H282.9z"/>
</svg>
