<?xml version="1.0" encoding="utf-8"?>
<!-- Generator: Adobe Illustrator 22.1.0, SVG Export Plug-In . SVG Version: 6.00 Build 0)  -->
<svg version="1.1" id="Layer_1" xmlns="http://www.w3.org/2000/svg" xmlns:xlink="http://www.w3.org/1999/xlink" x="0px" y="0px"
	 viewBox="0 0 512 512" style="enable-background:new 0 0 512 512;" xml:space="preserve">
<style type="text/css">
	.st0{stroke:#000000;stroke-width:13;stroke-miterlimit:10;}
	.st1{stroke:#000000;stroke-width:6;stroke-miterlimit:10;}
</style>
<rect x="136.5" y="151" width="17" height="15"/>
<rect x="136.5" y="194" width="17" height="15"/>
<rect x="136.5" y="237" width="17" height="15"/>
<rect x="136.5" y="323" width="17" height="15"/>
<rect x="136.5" y="366" width="17" height="15"/>
<path d="M382.9,82.5H174.1c-20.8,0-37.6,16.9-37.6,37.6v2.9h17v-2.9c0-11.4,9.3-20.6,20.6-20.6h208.7c11.4,0,20.6,9.3,20.6,20.6
	v286.7c0,11.4-9.3,20.6-20.6,20.6H174.1c-10.7,0-19.5-8.1-20.5-18.5h-17c1.1,19.8,17.5,35.5,37.6,35.5h208.7
	c20.8,0,37.6-16.9,37.6-37.6V120.1C420.5,99.4,403.6,82.5,382.9,82.5z"/>
<rect x="136.5" y="280" width="17" height="15"/>
<path d="M161,406h-41c-6,0-11-4.9-11-11s4.9-11,11-11h41c6.1,0,11,4.9,11,11S167.1,406,161,406z"/>
<path d="M159,363h-41c-6,0-11-4.9-11-11s4.9-11,11-11h41c6.1,0,11,4.9,11,11S165.1,363,159,363z"/>
<path d="M161,320h-41c-6,0-11-4.9-11-11s4.9-11,11-11h41c6.1,0,11,4.9,11,11S167.1,320,161,320z"/>
<path d="M161,277h-41c-6,0-11-4.9-11-11s4.9-11,11-11h41c6.1,0,11,4.9,11,11S167.1,277,161,277z"/>
<path d="M161,234h-41c-6,0-11-4.9-11-11s4.9-11,11-11h41c6.1,0,11,4.9,11,11S167.1,234,161,234z"/>
<path d="M161,191h-41c-6,0-11-4.9-11-11s4.9-11,11-11h41c6.1,0,11,4.9,11,11S167.1,191,161,191z"/>
<path d="M161,148h-41c-6,0-11-4.9-11-11s4.9-11,11-11h41c6.1,0,11,4.9,11,11S167.1,148,161,148z"/>
<line class="st0" x1="384" y1="90" x2="384" y2="435"/>
<line class="st1" x1="370.5" y1="90" x2="370.5" y2="435"/>
<g>
	<circle cx="205.2" cy="150" r="3.5"/>
	<circle cx="221" cy="150" r="3.5"/>
	<circle cx="236.9" cy="150" r="3.5"/>
	<circle cx="252.8" cy="150" r="3.5"/>
	<circle cx="268.7" cy="150" r="3.5"/>
	<circle cx="284.5" cy="150" r="3.5"/>
	<circle cx="300.4" cy="150" r="3.5"/>
	<circle cx="316.3" cy="150" r="3.5"/>
	<circle cx="332.2" cy="150" r="3.5"/>
	<g>
		<circle cx="205.2" cy="162" r="3.5"/>
		<circle cx="221" cy="162" r="3.5"/>
		<circle cx="236.9" cy="162" r="3.5"/>
		<circle cx="252.8" cy="162" r="3.5"/>
		<circle cx="268.7" cy="162" r="3.5"/>
		<circle cx="284.5" cy="162" r="3.5"/>
		<circle cx="300.4" cy="162" r="3.5"/>
		<circle cx="316.3" cy="162" r="3.5"/>
		<circle cx="332.2" cy="162" r="3.5"/>
	</g>
	<g>
		<circle cx="205.2" cy="174" r="3.5"/>
		<circle cx="221" cy="174" r="3.5"/>
		<circle cx="236.9" cy="174" r="3.5"/>
		<circle cx="252.8" cy="174" r="3.5"/>
		<circle cx="268.7" cy="174" r="3.5"/>
		<circle cx="284.5" cy="174" r="3.5"/>
		<circle cx="300.4" cy="174" r="3.5"/>
		<circle cx="316.3" cy="174" r="3.5"/>
		<circle cx="332.2" cy="174" r="3.5"/>
	</g>
	<g>
		<circle cx="205.2" cy="186" r="3.5"/>
		<circle cx="221" cy="186" r="3.5"/>
		<circle cx="236.9" cy="186" r="3.5"/>
		<circle cx="252.8" cy="186" r="3.5"/>
		<circle cx="268.7" cy="186" r="3.5"/>
		<circle cx="284.5" cy="186" r="3.5"/>
		<circle cx="300.4" cy="186" r="3.5"/>
		<circle cx="316.3" cy="186" r="3.5"/>
		<circle cx="332.2" cy="186" r="3.5"/>
	</g>
	<g>
		<circle cx="205.2" cy="198" r="3.5"/>
		<circle cx="221" cy="198" r="3.5"/>
		<circle cx="236.9" cy="198" r="3.5"/>
		<circle cx="252.8" cy="198" r="3.5"/>
		<circle cx="268.7" cy="198" r="3.5"/>
		<circle cx="284.5" cy="198" r="3.5"/>
		<circle cx="300.4" cy="198" r="3.5"/>
		<circle cx="316.3" cy="198" r="3.5"/>
		<circle cx="332.2" cy="198" r="3.5"/>
	</g>
	<g>
		<circle cx="205.2" cy="210" r="3.5"/>
		<circle cx="221" cy="210" r="3.5"/>
		<circle cx="236.9" cy="210" r="3.5"/>
		<circle cx="252.8" cy="210" r="3.5"/>
		<circle cx="268.7" cy="210" r="3.5"/>
		<circle cx="284.5" cy="210" r="3.5"/>
		<circle cx="300.4" cy="210" r="3.5"/>
		<circle cx="316.3" cy="210" r="3.5"/>
		<circle cx="332.2" cy="210" r="3.5"/>
	</g>
</g>
<g>
	<circle cx="205.2" cy="234" r="3.5"/>
	<circle cx="221" cy="234" r="3.5"/>
	<circle cx="236.9" cy="234" r="3.5"/>
	<circle cx="252.8" cy="234" r="3.5"/>
	<circle cx="268.7" cy="234" r="3.5"/>
	<circle cx="284.5" cy="234" r="3.5"/>
	<circle cx="300.4" cy="234" r="3.5"/>
	<circle cx="316.3" cy="234" r="3.5"/>
	<circle cx="332.2" cy="234" r="3.5"/>
	<g>
		<circle cx="205.2" cy="246" r="3.5"/>
		<circle cx="221" cy="246" r="3.5"/>
		<circle cx="236.9" cy="246" r="3.5"/>
		<circle cx="252.8" cy="246" r="3.5"/>
		<circle cx="268.7" cy="246" r="3.5"/>
		<circle cx="284.5" cy="246" r="3.5"/>
		<circle cx="300.4" cy="246" r="3.5"/>
		<circle cx="316.3" cy="246" r="3.5"/>
		<circle cx="332.2" cy="246" r="3.5"/>
	</g>
	<g>
		<circle cx="205.2" cy="258" r="3.5"/>
		<circle cx="221" cy="258" r="3.5"/>
		<circle cx="236.9" cy="258" r="3.5"/>
		<circle cx="252.8" cy="258" r="3.5"/>
		<circle cx="268.7" cy="258" r="3.5"/>
		<circle cx="284.5" cy="258" r="3.5"/>
		<circle cx="300.4" cy="258" r="3.5"/>
		<circle cx="316.3" cy="258" r="3.5"/>
		<circle cx="332.2" cy="258" r="3.5"/>
	</g>
	<g>
		<circle cx="205.2" cy="270" r="3.5"/>
		<circle cx="221" cy="270" r="3.5"/>
		<circle cx="236.9" cy="270" r="3.5"/>
		<circle cx="252.8" cy="270" r="3.5"/>
		<circle cx="268.7" cy="270" r="3.5"/>
		<circle cx="284.5" cy="270" r="3.5"/>
		<circle cx="300.4" cy="270" r="3.5"/>
		<circle cx="316.3" cy="270" r="3.5"/>
		<circle cx="332.2" cy="270" r="3.5"/>
	</g>
	<g>
		<circle cx="205.2" cy="282" r="3.5"/>
		<circle cx="221" cy="282" r="3.5"/>
		<circle cx="236.9" cy="282" r="3.5"/>
		<circle cx="252.8" cy="282" r="3.5"/>
		<circle cx="268.7" cy="282" r="3.5"/>
		<circle cx="284.5" cy="282" r="3.5"/>
		<circle cx="300.4" cy="282" r="3.5"/>
		<circle cx="316.3" cy="282" r="3.5"/>
		<circle cx="332.2" cy="282" r="3.5"/>
	</g>
	<g>
		<circle cx="205.2" cy="294" r="3.5"/>
		<circle cx="221" cy="294" r="3.5"/>
		<circle cx="236.9" cy="294" r="3.5"/>
		<circle cx="252.8" cy="294" r="3.5"/>
		<circle cx="268.7" cy="294" r="3.5"/>
		<circle cx="284.5" cy="294" r="3.5"/>
		<circle cx="300.4" cy="294" r="3.5"/>
		<circle cx="316.3" cy="294" r="3.5"/>
		<circle cx="332.2" cy="294" r="3.5"/>
	</g>
</g>
<g>
	<circle cx="205.2" cy="322" r="3.5"/>
	<circle cx="221" cy="322" r="3.5"/>
	<circle cx="236.9" cy="322" r="3.5"/>
	<circle cx="252.8" cy="322" r="3.5"/>
	<circle cx="268.7" cy="322" r="3.5"/>
	<circle cx="284.5" cy="322" r="3.5"/>
	<circle cx="300.4" cy="322" r="3.5"/>
	<circle cx="316.3" cy="322" r="3.5"/>
	<circle cx="332.2" cy="322" r="3.5"/>
	<g>
		<circle cx="205.2" cy="334" r="3.5"/>
		<circle cx="221" cy="334" r="3.5"/>
		<circle cx="236.9" cy="334" r="3.5"/>
		<circle cx="252.8" cy="334" r="3.5"/>
		<circle cx="268.7" cy="334" r="3.5"/>
		<circle cx="284.5" cy="334" r="3.5"/>
		<circle cx="300.4" cy="334" r="3.5"/>
		<circle cx="316.3" cy="334" r="3.5"/>
		<circle cx="332.2" cy="334" r="3.5"/>
	</g>
	<g>
		<circle cx="205.2" cy="346" r="3.5"/>
		<circle cx="221" cy="346" r="3.5"/>
		<circle cx="236.9" cy="346" r="3.5"/>
		<circle cx="252.8" cy="346" r="3.5"/>
		<circle cx="268.7" cy="346" r="3.5"/>
		<circle cx="284.5" cy="346" r="3.5"/>
		<circle cx="300.4" cy="346" r="3.5"/>
		<circle cx="316.3" cy="346" r="3.5"/>
		<circle cx="332.2" cy="346" r="3.5"/>
	</g>
	<g>
		<circle cx="205.2" cy="358" r="3.5"/>
		<circle cx="221" cy="358" r="3.5"/>
		<circle cx="236.9" cy="358" r="3.5"/>
		<circle cx="252.8" cy="358" r="3.5"/>
		<circle cx="268.7" cy="358" r="3.5"/>
		<circle cx="284.5" cy="358" r="3.5"/>
		<circle cx="300.4" cy="358" r="3.5"/>
		<circle cx="316.3" cy="358" r="3.5"/>
		<circle cx="332.2" cy="358" r="3.5"/>
	</g>
	<g>
		<circle cx="205.2" cy="370" r="3.5"/>
		<circle cx="221" cy="370" r="3.5"/>
		<circle cx="236.9" cy="370" r="3.5"/>
		<circle cx="252.8" cy="370" r="3.5"/>
		<circle cx="268.7" cy="370" r="3.5"/>
		<circle cx="284.5" cy="370" r="3.5"/>
		<circle cx="300.4" cy="370" r="3.5"/>
		<circle cx="316.3" cy="370" r="3.5"/>
		<circle cx="332.2" cy="370" r="3.5"/>
	</g>
	<g>
		<circle cx="205.2" cy="382" r="3.5"/>
		<circle cx="221" cy="382" r="3.5"/>
		<circle cx="236.9" cy="382" r="3.5"/>
		<circle cx="252.8" cy="382" r="3.5"/>
		<circle cx="268.7" cy="382" r="3.5"/>
		<circle cx="284.5" cy="382" r="3.5"/>
		<circle cx="300.4" cy="382" r="3.5"/>
		<circle cx="316.3" cy="382" r="3.5"/>
		<circle cx="332.2" cy="382" r="3.5"/>
	</g>
</g>
</svg>
