<?xml version="1.0" encoding="utf-8"?>
<!-- Generator: Adobe Illustrator 22.1.0, SVG Export Plug-In . SVG Version: 6.00 Build 0)  -->
<svg version="1.1" id="Layer_1" xmlns="http://www.w3.org/2000/svg" xmlns:xlink="http://www.w3.org/1999/xlink" x="0px" y="0px"
	 viewBox="0 0 512 512" style="enable-background:new 0 0 512 512;" xml:space="preserve">
<style type="text/css">
	.st0{fill:#EFB6B6;}
	.st1{fill:#EE6A7A;}
	.st2{fill:#D6B21A;}
	.st3{fill:#EFDC8E;}
	.st4{fill:#784ACE;}
	.st5{fill:#9F7AE5;}
	.st6{fill:#2F9640;}
	.st7{fill:#6DE294;}
</style>
<path class="st2" d="M358.6,445.8H156L26.8,210.7c-6.2-11.3,6-23.7,17.4-17.8l103.5,53.6c6.3,3.3,14.1,0.8,17.5-5.4l81.1-152.5
	c4.9-9.2,18.1-9.2,23,0l80.2,151.1c3.3,6.3,11.1,8.7,17.4,5.5l104.4-53.6c11.4-5.9,23.5,6.6,17.3,17.8L358.6,445.8z"/>
<path class="st3" d="M177.8,409h159.1l61.5-111.9c6.2-11.2-5.9-23.7-17.3-17.8l-41,21.1l-70.7-133.3c-4.9-9.2-18.1-9.2-23,0
	l-71.7,134.8l-77.8-40.3L177.8,409z"/>
</svg>
