<?xml version="1.0" encoding="utf-8"?>
<!-- Generator: Adobe Illustrator 19.0.0, SVG Export Plug-In . SVG Version: 6.00 Build 0)  -->
<svg version="1.1" id="Layer_1" xmlns="http://www.w3.org/2000/svg" xmlns:xlink="http://www.w3.org/1999/xlink" x="0px" y="0px"
	 viewBox="0 0 512 512" enable-background="new 0 0 512 512" xml:space="preserve">
<g id="XMLID_1_">
	<path id="XMLID_46_" fill="#4AB86E" d="M139.4,363.5c30.3,0,54.9-24.7,54.9-54.9c0-30.3-24.6-54.9-54.9-54.9s-54.9,24.7-54.9,54.9
		C84.5,338.8,109.1,363.5,139.4,363.5 M139.4,230c43.4,0,78.5,35.2,78.5,78.5c0,43.4-35.1,78.5-78.5,78.5s-78.5-35.2-78.5-78.5
		C60.9,265.2,96,230,139.4,230"/>
	<path id="XMLID_43_" fill="#4AB86E" d="M372.6,363.5c30.3,0,54.9-24.7,54.9-54.9c0-30.3-24.7-54.9-54.9-54.9
		c-30.3,0-54.9,24.7-54.9,54.9C317.7,338.8,342.3,363.5,372.6,363.5 M372.6,230c43.4,0,78.5,35.2,78.5,78.5
		c0,43.4-35.2,78.5-78.5,78.5s-78.5-35.2-78.5-78.5C294.1,265.2,329.2,230,372.6,230"/>
	<polygon id="XMLID_8_" fill="#4AB86E" points="190.8,183.8 190.8,183.8 170.8,149.2 160.6,155.1 180.6,189.6 	"/>
	<path id="XMLID_7_" fill="#4AB86E" d="M270.2,130.8c2.1-3.7,5.9-5.9,10.2-5.9h44.1c9.7,0,17.7,7.9,17.7,17.7
		c0,9.7-7.9,17.7-17.7,17.7c-3.3,0-5.9-2.6-5.9-5.9c0-3.3,2.6-5.9,5.9-5.9c3.2,0,5.9-2.6,5.9-5.9c0-3.3-2.6-5.9-5.9-5.9h-22
		c0,0-22,0-11,19.2c15.3,26.6-6.2-10.7,86.2,149.6c1.6,2.8,0.7,6.4-2.2,8c-0.9,0.5-1.9,0.8-2.9,0.8c-2,0-4-1.1-5.1-2.9l-97.2-168.9
		C268.1,138.9,268.1,134.5,270.2,130.8"/>
	<path id="XMLID_6_" fill="#4AB86E" d="M188.5,131.5h-47.1c-6.5,0-11.8,5.3-11.8,11.8c0,10,9.4,17.2,19,14.8l12-3h27.9
		c6.5,0,11.8-5.3,11.8-11.8C200.3,136.8,195,131.5,188.5,131.5"/>
	<path id="XMLID_5_" fill="#4AB86E" d="M293.9,195.8L293.9,195.8l-7.1-12.3c-1.6-2.8-0.7-6.4,2.2-8l10.2-5.9c2.8-1.6,6.4-0.7,8,2.2
		l55.1,95.4c1.6,2.8,0.7,6.4-2.2,8l-10.2,5.9c-2.8,1.6-6.4,0.7-8-2.2l-16.5-28.6c0,0-11.1-19.2-22.2,0l-33.6,58.2l-3.4,5.9
		c-2.1,3.6-6,5.9-10.2,5.9v-22.6c0,0,0-12.8,6.4-23.8l20.4-35.4c0,0,11.1-19.2-11.1-19.2h-67.2v-11.8c0,0,0-11.8,22.2-11.8H293.9z"
		/>
	<path id="XMLID_15_" fill="#4AB86E" d="M222.8,296.8c0,0,12.8,0,6.4-11.1l-25.1-43.5c0,0-6.4-11.1-12.8,0l-25.1,43.5
		c0,0-6.4,11.1,6.4,11.1H222.8z M129.2,302.7l54.9-95.1l-13.9-24c-1.6-2.8-0.7-6.4,2.1-8l10.2-5.9c2.8-1.6,6.4-0.7,8.1,2.2L256,285
		l10.2,17.7c2.1,3.6,2.1,8.1,0,11.8c-2.1,3.6-6,5.9-10.2,5.9H139.6c-3.2,0-6.4-1.2-8.6-3.5C127.2,312.9,126.6,307.1,129.2,302.7"/>
</g>
</svg>
