<?xml version="1.0" encoding="utf-8"?>
<!-- Generator: Adobe Illustrator 22.1.0, SVG Export Plug-In . SVG Version: 6.00 Build 0)  -->
<svg version="1.1" id="Layer_1" xmlns="http://www.w3.org/2000/svg" xmlns:xlink="http://www.w3.org/1999/xlink" x="0px" y="0px"
	 viewBox="0 0 512 512" style="enable-background:new 0 0 512 512;" xml:space="preserve">
<style type="text/css">
	.st0{fill:#0071BC;}
	.st1{fill:#B6EAFF;}
	.st2{fill:#331601;}
	.st3{fill:#441E02;}
	.st4{fill:#FFB255;}
	.st5{fill:#FFFFFF;stroke:#0071BC;stroke-width:10;stroke-miterlimit:10;}
</style>
<g>
	<polygon class="st0" points="47.8,127.5 24,127.5 24,24 126.2,24 126.2,47.8 47.8,47.8 	"/>
	<polygon class="st0" points="488,127.5 464.2,127.5 464.2,47.8 385.8,47.8 385.8,24 488,24 	"/>
	<polygon class="st0" points="488,488 385.8,488 385.8,464.2 464.2,464.2 464.2,384.5 488,384.5 	"/>
	<polygon class="st0" points="126.2,488 24,488 24,384.5 47.8,384.5 47.8,464.2 126.2,464.2 	"/>
	<g>
		<rect x="65.1" y="65.1" class="st1" width="381.7" height="381.7"/>
	</g>
	<g>
		<polygon class="st2" points="295.3,353.6 238,296.3 87.5,446.9 295.3,446.9 		"/>
	</g>
	<g>
		<path class="st3" d="M204.8,446.9c7.1-7.6,183.5-183.5,183.5-183.5l58.9,58.9v124.1L204.8,446.9z"/>
	</g>
	<g>
		<circle class="st4" cx="151.3" cy="152.5" r="34.5"/>
	</g>
</g>
</svg>
