<?xml version="1.0" encoding="utf-8"?>
<!-- Generator: Adobe Illustrator 22.1.0, SVG Export Plug-In . SVG Version: 6.00 Build 0)  -->
<svg version="1.1" id="Layer_1" xmlns="http://www.w3.org/2000/svg" xmlns:xlink="http://www.w3.org/1999/xlink" x="0px" y="0px"
	 viewBox="0 0 512 512" style="enable-background:new 0 0 512 512;" xml:space="preserve">
<style type="text/css">
	.st0{fill:#EDB02D;}
	.st1{fill:#EE7E45;}
	.st2{fill:#427891;}
	.st3{fill:#78B8E0;}
</style>
<g>
	<path class="st0" d="M156.9,290.4c40.3,0,72.9-32.7,72.9-72.9s-32.7-72.9-72.9-72.9S84,177.2,84,217.5S116.6,290.4,156.9,290.4"/>
</g>
<g>
	<path class="st1" d="M156.9,273c30.6,0,55.5-24.8,55.5-55.5S187.6,162,156.9,162s-55.5,24.8-55.5,55.5S126.3,273,156.9,273"/>
</g>
<g>
	<path class="st0" d="M119.6,209.7l-7.8-2.1c0.2-0.7,5.1-18.1,22.6-27.3c13.8-7.2,31.1-7.1,51.6,0.2l-2.7,7.6
		c-18.2-6.5-33.4-6.7-45.1-0.6C123.8,195,119.6,209.5,119.6,209.7z"/>
</g>
<g>
	<polygon class="st0" points="159.3,75.7 153.6,149 165,149.3 	"/>
</g>
<g>
	<polyline class="st0" points="106.6,173.2 58.8,117.3 114.9,165.3 	"/>
</g>
<g>
	<polygon class="st0" points="17.1,217.8 90.5,223.5 90.7,212.1 	"/>
</g>
<g>
	<polyline class="st0" points="114.7,270.5 58.8,318.4 106.8,262.3 	"/>
</g>
<g>
	<polyline class="st0" points="165,286.6 159.3,360 153.6,286.4 	"/>
</g>
<g>
	<polyline class="st0" points="212,262.4 259.8,318.3 203.7,270.4 	"/>
</g>
<g>
	<polyline class="st0" points="228.1,212.1 301.4,217.8 227.9,223.5 	"/>
</g>
<g>
	<polyline class="st0" points="203.9,165.2 259.8,117.3 211.8,173.4 	"/>
</g>
<path class="st2" d="M147.1,286.6c-3.8,0-7.7,0.2-11.5,0.9c-34.8,4.5-66,28.8-66,62.2c0,37.2,31.6,67.3,70.8,67.3h238.1
	c35.1-0.2,63.8-26.9,64.3-60.3s-17.3-73.9-52.4-74.9c-3.5-40.5-13.3-71.6-53.3-85.4c-40-13.8-87.2,10.3-101.7,48.4
	c-16.1-7-34.8-6.8-50.5,0.9c-15.9,7.7-20.3,26-23.8,42.5C156.5,287.1,151.8,286.6,147.1,286.6"/>
<path class="st3" d="M199,294.6c-3.6,0-7.3,0.2-10.9,0.6c-32.7,4.3-62,27.1-62,58.5c0,34.9,29.8,63.2,66.5,63.2h223.7
	c33,0,59.8-25.2,60.3-56.5S460.4,291,427.4,290c-3.4-38-12.5-67.2-50.1-80.2s-81.8,9.6-95.5,45.4c-15.1-6.7-32.6-6.4-47.4,0.8
	c-14.8,7.2-18.9,24.4-22.2,39.9C207.8,295,203.4,294.6,199,294.6"/>
</svg>
