<?xml version="1.0" encoding="utf-8"?>
<!-- Generator: Adobe Illustrator 22.1.0, SVG Export Plug-In . SVG Version: 6.00 Build 0)  -->
<svg version="1.1" id="Layer_1" xmlns="http://www.w3.org/2000/svg" xmlns:xlink="http://www.w3.org/1999/xlink" x="0px" y="0px"
	 viewBox="0 0 512 512" style="enable-background:new 0 0 512 512;" xml:space="preserve">
<path d="M256,467.4l-41-41.6c-54.4-48.8-95.2-86.2-124.7-122.6c-34.5-42.6-50.6-81.1-50.6-121.1c0-72.5,56.1-129.3,127.7-129.3
	c32.2,0,64,12.3,88.5,33.6c24.5-21.3,56.3-33.6,88.5-33.6c71.6,0,127.7,56.8,127.7,129.3c0,40-16.1,78.5-50.6,121.1
	C392.2,339.6,351.4,377,297,425.8L256,467.4z M167.5,91.9c-50.6,0-88.7,38.8-88.7,90.3c0,65.8,58.8,121.7,162.7,215l0.9,0.8
	l13.7,13.9l14.5-14.7c103.9-93.3,162.7-149.3,162.7-215c0-51.5-38.1-90.3-88.7-90.3c-27.4,0-55.6,13.4-73.6,34.9l-15,18l-15-18
	C223.1,105.2,194.9,91.9,167.5,91.9z"/>
</svg>
