<?xml version="1.0" encoding="utf-8"?>
<!-- Generator: Adobe Illustrator 22.1.0, SVG Export Plug-In . SVG Version: 6.00 Build 0)  -->
<svg version="1.1" id="Layer_1" xmlns="http://www.w3.org/2000/svg" xmlns:xlink="http://www.w3.org/1999/xlink" x="0px" y="0px"
	 viewBox="0 0 512 512" style="enable-background:new 0 0 512 512;" xml:space="preserve">
<style type="text/css">
	.st0{fill:#E56F17;}
	.st1{fill:#FFA364;}
</style>
<g>
	<path class="st0" d="M229.8,434.5c-3.6,0-7.2-1.2-10.5-3.6c-4.4-3.2-4.8-8-5.2-10.3c-0.5-3.5-0.9-7.2-1.4-10.7
		c-0.4-2.9-0.8-5.9-1.2-8.8l-1.1-8.5c-0.5-3.5-0.9-7.2-1.4-10.7c-0.5-3.5-0.9-6.9-1.4-10.5s-0.9-6.9-1.4-10.5l-2.2-16.9
		c-0.5-3.2-0.8-6.4-1.3-9.6c-0.5-3.2-0.9-6.5-1.3-9.6l-2.2-16.9c-0.4-3.1-0.8-6-1.2-9.1c-0.4-2.7-0.7-5.4-1.1-8l-2.2-16.8
		c-0.5-3.2-0.8-6.5-1.3-9.6c-0.5-3.3-0.9-6.5-1.3-9.8l-2.2-16.7c-0.4-2.8-0.8-5.8-1.2-8.6c-0.5-3.6-0.9-7.3-1.4-10.8l-2.5-19.3
		c-0.4-2.8-0.7-5.6-1.2-8.5c-0.4-2.8-0.8-5.6-1.2-8.5l-0.5-3.6c-0.6-4.5-1.2-9.1-1.8-13.4c-0.4-2.8-0.7-5.6-1.2-8.5
		c-0.2-1.3-0.4-2.7-0.6-4c-0.7,3.9-1.5,7.8-2.2,11.6c-1.3,6.6-2.5,13.2-3.8,19.8c-1.8,8.9-3.4,17.9-5.1,26.8
		c-1.2,6.5-2.5,13.1-3.8,19.5c-0.8,4.6-1.8,9.1-2.6,13.6c-0.8,4.5-1.6,8.9-2.6,13.4c-0.8,4.5-1.8,8.9-2.6,13.4
		c-1.1,5.3-5.3,7.3-7.2,8.1c-2.2,1.1-4.7,1.5-7.5,1.5H71.6c-4.1,0-7.8-1.2-10.7-3.6c-3.1-2.4-4.8-5.9-4.7-9.4c0-3.6,1.9-7.1,4.9-9.4
		c2.9-2.2,6.6-3.4,11.1-3.4h58.7c3.5-14.5,7.1-28.8,10.6-43.3l0.2-0.9c2.4-9.8,4.8-19.6,7.2-29.4c2.6-10.3,5.1-20.8,7.6-31.2
		c1.9-7.6,3.8-15.3,5.5-22.9c1.4-5.8,2.8-11.5,4.2-17.3c0.8-3.2,1.5-6.5,2.4-9.6c0.8-3.2,1.5-6.4,2.4-9.5c1.4-5.8,5.8-10.2,11.5-12
		s11.8-0.5,16.1,3.5c2.2,2.1,3.6,4.8,4,8l0.2,2.1c0.8,6.6,1.6,12.8,2.6,19.2l1.2,9.3c0.5,4,1.1,7.9,1.5,11.9
		c0.5,3.6,1.1,7.3,1.5,10.9c0.5,3.2,0.8,6.5,1.3,9.6l0.1,0.7c0.7,5.4,1.4,10.9,2.1,16.3c0.4,2.4,0.6,4.7,0.9,6.9
		c0.5,3.3,0.9,6.5,1.3,9.9c0.7,5.6,1.4,11.4,2.2,16.9l0.4,2.5c0.7,5.4,1.4,10.9,2.2,16.3l2.2,16.8c0.4,2.5,0.7,4.9,0.9,7.4
		c0.5,3.3,0.8,6.5,1.3,9.6c0.7,5.6,1.4,11.1,2.2,16.7c0.4,2.7,0.7,5.4,1.1,8.1c0.4,3.1,0.8,6.1,1.2,9.3l2.5,18.9
		c0.4,2.8,0.8,5.6,1.2,8.6c0.5,3.4,0.9,6.8,1.4,10.2c0.7,5.2,1.3,10.5,2.1,15.6c2.1-7.3,4.4-14.6,6.5-22
		c5.4-18.2,10.3-34.7,15.1-50.5l1.1-3.4c3.3-10.9,6.6-22.2,10-33.3l1.9-6.5c3.2-10.5,6.4-21.3,9.5-32c1.8-5.9,5.8-9.5,11.8-10.8
		c6.2-1.2,11.6,0.2,15.8,4.2c1.5,1.4,2.6,3.2,3.1,5.1c7.5,22.8,15.2,46.6,22.9,70.6c2.5,7.4,4.8,14.9,7.3,22.5l3.8,11.6
		c4.4-7.5,8.7-14.9,13.1-22.3c3.1-5.2,6-10.3,9.1-15.6c2.9-4.9,7.9-7.5,13.9-7.5c9.9,0,20,0,29.6,0c6.6,0,13.3,0,19.9,0
		c3.4,0,6.8,0,10.3,0c4.1,0,8.1,1.5,11.1,4.4c2.7,2.5,4.1,5.8,3.9,9.2c-0.2,3.5-2,6.7-5.1,8.9s-6.7,3.3-10.7,3.3h-48.8
		c-7.4,13.3-14.9,26.5-22.3,39.6l-5.6,9.9c-0.6,1.1-1.2,2-1.8,3.1c-2,3.5-4,7.1-5.9,10.7c-2.2,4.5-6.7,7.4-12.1,8.2
		c-5.6,0.8-11.3-1.1-14.8-4.7l-0.1-0.2c-0.9-1.1-2.1-2.6-2.7-4.7c-4.4-13.4-8.7-26.8-13.2-40.1c-4.1-12.5-8.1-24.8-12.2-37.3
		l-4.2-13.1c-2.9,9.9-5.9,19.9-8.9,29.9c-4.4,14.5-9.2,30.8-13.9,47c-1.8,6-3.5,12-5.4,18.1c-1.8,6-3.5,12-5.3,18
		c-2.4,7.9-4.7,15.6-6.9,23.4c-2.4,7.9-4.7,15.8-7.1,23.8c-0.6,1.9-1.1,3.8-1.6,5.6c-0.7,2.4-1.4,4.7-2.1,7.2
		c-1.3,4.2-3.9,7.3-7.8,8.9C235,433.9,232.4,434.5,229.8,434.5z"/>
	<path class="st1" d="M182.1,103.7l2.5,19.2c0.2,1.8,0.5,3.4,0.7,5.1l0.2,1.8l2.2,17.1c0.4,2.8,0.7,5.6,1.2,8.5
		c0.4,2.8,0.8,5.6,1.2,8.5c0.6,4.5,1.2,8.9,1.8,13.5l0.5,3.6c0.4,2.8,0.7,5.6,1.2,8.5c0.4,2.8,0.8,5.6,1.2,8.5l2.5,19.3
		c0.5,3.5,0.9,7.2,1.4,10.7c0.4,2.9,0.8,5.8,1.2,8.7l2.2,16.7c0.5,3.2,0.8,6.5,1.3,9.6c0.5,3.3,0.9,6.5,1.3,9.8l2.2,16.8
		c0.4,2.6,0.7,5.3,1.1,8c0.5,3.1,0.8,6.1,1.2,9.1l2.2,16.9c0.5,3.2,0.8,6.4,1.3,9.6c0.5,3.2,0.9,6.5,1.3,9.6l2.2,16.9
		c0.5,3.4,0.9,6.9,1.4,10.5s0.9,6.9,1.4,10.5c0.5,3.6,0.9,7.2,1.4,10.8l1.1,8.5c0.4,2.9,0.8,5.9,1.2,8.7c0.5,3.6,0.9,7.2,1.4,10.8
		c0.4,2.7,0.7,3.4,1.4,3.9c2.8,2.1,5.5,2.4,8.9,0.8c1.3-0.6,2-1.4,2.5-2.9c0.7-2.4,1.4-4.8,2.1-7.3c0.6-1.9,1.2-3.8,1.6-5.6
		c2.4-8,4.7-15.9,7.1-23.8c2.4-7.8,4.7-15.6,6.9-23.4c1.8-6,3.5-12,5.3-18c1.8-6,3.6-12,5.4-18c4.7-16.2,9.6-32.6,14-47
		c3.5-11.3,6.8-22.7,10.1-33.8c0.8-2.8,1.6-5.6,2.5-8.4l2.5-8.2l5.4,4c1.8,1.3,2.2,2.9,2.4,3.6l8.4,25.6c4,12.3,8.1,24.8,12.2,37.3
		c4.4,13.4,8.8,26.8,13.2,40.3l0.1,0.2c0.1,0.2,0.2,0.6,0.7,1.1c1.4,1.5,4,2.2,6.6,1.8c1.1-0.1,3.8-0.8,5.1-3.2
		c1.9-3.8,4-7.5,6.1-11.1c0.6-0.9,1.2-2,1.6-2.9l5.6-9.9c7.6-13.5,15.3-27.1,22.9-40.6l0.1-0.1c0.9-1.6,2.7-3.8,6.5-3.8h50
		c2.1,0,3.8-0.5,5.2-1.5c0.7-0.6,1.2-1.3,1.2-1.9c0-0.8-0.5-1.4-0.9-1.9c-1.5-1.4-3.4-1.8-4.7-1.8c-3.4,0-6.8,0-10.2,0
		c-6.7,0-13.3,0-20,0c-9.6,0-19.8,0-29.6,0c-3.6,0-5.1,1.6-5.8,2.9c-2.9,5.2-6,10.3-9.1,15.5c-4.9,8.6-9.9,17.1-14.9,25.6
		c-0.6,0.9-1.2,2-1.8,2.9c-0.6,0.9-1.2,1.9-1.6,2.9l-6.2,10.8l-2.6-12.7l-6.7-20.7c-2.5-7.5-4.8-15.1-7.3-22.5
		c-7.8-24-15.5-47.8-23.1-70.7l-0.1-0.2c-0.1-0.2-0.2-0.6-0.6-0.9c-1.2-1.2-3.2-2.6-7.4-1.8c-2.6,0.5-3.9,1.8-4.6,4.2
		c-3.1,10.7-6.4,21.5-9.5,32l-1.9,6.5c-3.4,11.1-6.8,22.3-10,33.2l-1.1,3.4c-4.8,15.8-9.8,32.3-15.1,50.5
		c-2.6,8.7-5.2,17.4-7.8,26.1l-2.8,9.6c-0.6,1.9-1.2,4.1-2,6.6l0.1,1.2l-0.7,0.8l-2.2,6.8l-5.4-5.4l-1.4-1.3l-0.1-2
		c0-0.6,0.1-1.1,0.2-1.5c-0.1-0.7-0.1-1.3-0.2-2v-0.1c-0.4-2.8-0.7-5.5-1.2-8.4c-0.4-2.8-0.8-5.6-1.2-8.5
		c-0.8-5.5-1.5-11.4-2.2-17.1c-0.5-3.4-0.9-6.8-1.4-10.2c-0.4-2.8-0.8-5.8-1.2-8.6l-2.5-18.9c-0.4-3.1-0.8-6.1-1.2-9.2
		c-0.4-2.7-0.7-5.4-1.1-8.1c-0.7-5.6-1.5-11.1-2.2-16.7c-0.4-3.2-0.8-6.4-1.3-9.6c-0.4-2.5-0.7-4.9-1.1-7.4l-2.2-16.8
		c-0.8-5.4-1.5-10.9-2.2-16.3l-0.4-2.4c-0.8-5.6-1.5-11.4-2.4-17.2c-0.5-3.3-0.8-6.5-1.3-9.8c-0.4-2.4-0.7-4.7-0.9-6.9
		c-0.8-5.4-1.5-10.9-2.2-16.3l-0.1-0.7c-0.5-3.2-0.8-6.4-1.3-9.6c-0.5-3.6-0.9-7.3-1.5-10.9c-0.5-4-1.1-7.9-1.5-11.9l-1.2-9.2
		c-0.9-6.5-1.8-12.9-2.7-19.3l-0.4-2.4c-0.1-0.8-0.4-1.5-0.9-2.1c-1.8-1.6-4.5-2.2-6.9-1.4c-2.6,0.8-4.6,2.7-5.2,5.2
		c-0.8,3.2-1.5,6.4-2.4,9.5c-0.8,3.2-1.5,6.5-2.4,9.6c-1.4,5.8-2.8,11.5-4.2,17.3c-1.9,7.6-3.8,15.3-5.5,22.9
		c-2.5,10.5-5.1,20.8-7.6,31.3c-2.4,9.8-4.8,19.5-7.2,29.4l-0.2,0.9c-3.6,15.1-7.3,30.1-11.1,45.2c-1.2,4.6-4.6,5.3-6.6,5.3H72.2
		c-2.4,0-4,0.5-5.3,1.5c-0.8,0.6-1.3,1.3-1.3,2s0.4,1.4,1.2,2l0.1,0.1c1.3,1.1,2.8,1.5,4.8,1.5h70c1.4,0,2.6-0.2,3.5-0.7
		c1.8-0.8,1.8-1.1,1.9-1.4c0.8-4.4,1.6-8.9,2.6-13.4c0.8-4.5,1.8-8.9,2.6-13.4c0.8-4.6,1.8-9.1,2.6-13.6c1.3-6.5,2.5-12.9,3.8-19.4
		c1.6-8.9,3.4-17.9,5.1-26.8c1.3-6.6,2.5-13.2,3.8-19.8c1.1-5.9,2.2-11.9,3.4-17.8c1.1-5.6,2.2-11.3,3.3-16.9
		c0.1-0.4,0.1-0.7,0.1-0.9c0.2-1.4,0.5-3.1,1.2-4.8L182.1,103.7z"/>
</g>
</svg>
