<?xml version="1.0" encoding="utf-8"?>
<!-- Generator: Adobe Illustrator 19.0.0, SVG Export Plug-In . SVG Version: 6.00 Build 0)  -->
<svg version="1.1" id="Layer_1" xmlns="http://www.w3.org/2000/svg" xmlns:xlink="http://www.w3.org/1999/xlink" x="0px" y="0px"
	 viewBox="0 0 512 512" enable-background="new 0 0 512 512" xml:space="preserve">
<g id="XMLID_3_">
	<path id="XMLID_41_" fill="#929497" d="M63.5,432.7c0,17.7,14.4,32.1,32.1,32.1h332.6c17.7,0,32.1-14.4,32.1-32.1v-162H63.5V432.7z
		"/>
	<polygon id="XMLID_39_" fill="#929497" points="159.8,193.5 92.8,260.5 135.1,260.5 202.1,193.5 	"/>
	<polygon id="XMLID_38_" fill="#929497" points="217.5,193.5 150.5,260.5 192.7,260.5 259.7,193.5 	"/>
	<polygon id="XMLID_37_" fill="#929497" points="275.1,193.5 208.1,260.5 250.4,260.5 317.3,193.5 	"/>
	<polygon id="XMLID_36_" fill="#929497" points="390.4,193.5 323.4,260.5 365.6,260.5 432.6,193.5 	"/>
	<polygon id="XMLID_33_" fill="#929497" points="448,193.5 381,260.5 460.3,260.5 460.3,193.5 	"/>
	<polygon id="XMLID_14_" fill="#929497" points="332.8,193.5 265.7,260.5 308,260.5 375,193.5 	"/>
	<polygon id="XMLID_13_" fill="#929497" points="63.5,193.5 63.5,260.5 77.5,260.5 144.4,193.5 	"/>
	<polygon id="XMLID_12_" fill="#929497" points="143.4,111.5 92.9,191.6 134.1,182.3 184.6,102.1 	"/>
	<polygon id="XMLID_11_" fill="#929497" points="199.6,98.7 149.1,178.9 190.3,169.5 240.8,89.3 	"/>
	<polygon id="XMLID_10_" fill="#929497" points="255.8,85.9 205.3,166.1 246.6,156.7 297,76.5 	"/>
	<polygon id="XMLID_9_" fill="#929497" points="368.2,60.3 317.7,140.5 359,131.2 409.4,50.9 	"/>
	<path id="XMLID_8_" fill="#929497" d="M424.4,47.6L424.4,47.6l-50.5,80.2l77.3-17.6l-12.1-53.4C437.6,50.2,431,46,424.4,47.6"/>
	<polygon id="XMLID_6_" fill="#929497" points="312,73.1 261.5,153.3 302.8,143.9 353.2,63.8 	"/>
	<path id="XMLID_5_" fill="#929497" d="M52,143.6l12.4,54.5l13.6-3.1l50.5-80.2l-68.1,15.5C54.3,131.7,50.6,137.7,52,143.6"/>
	<path id="XMLID_4_" fill="#FFFFFF" d="M224.1,372.6v-50c0-7.9,8.7-12.9,15.5-9l43.3,25l43.3,25c6.9,4,6.9,14,0,17.9l-43.3,25
		l-43.3,25c-6.9,4-15.5-1-15.5-9V372.6z"/>
	<path id="XMLID_2_" fill="#929497" d="M249.1,261.8l2.5-2.6L249.1,261.8z"/>
</g>
</svg>
