<?xml version="1.0" encoding="utf-8"?>
<!-- Generator: Adobe Illustrator 22.1.0, SVG Export Plug-In . SVG Version: 6.00 Build 0)  -->
<svg version="1.1" id="Layer_1" xmlns="http://www.w3.org/2000/svg" xmlns:xlink="http://www.w3.org/1999/xlink" x="0px" y="0px"
	 viewBox="0 0 512 512" style="enable-background:new 0 0 512 512;" xml:space="preserve">
<style type="text/css">
	.st0{fill:#48B5FF;stroke:#2483C9;stroke-width:15;stroke-miterlimit:10;}
	.st1{fill:#DCF1FF;}
</style>
<path class="st0" d="M433.5,410.1h-355c-22.9,0-41.5-18.6-41.5-41.5v-225c0-22.9,18.6-41.5,41.5-41.5h354.9
	c22.9,0,41.5,18.6,41.5,41.5v224.9C475,391.5,456.4,410.1,433.5,410.1z"/>
<g>
	<path class="st1" d="M273.1,173.3H94.7c-7.7,0-13.9-5.4-13.9-12.1l0,0c0-6.7,6.2-12.1,13.9-12.1h178.4c7.7,0,13.9,5.4,13.9,12.1
		l0,0C287,167.9,280.8,173.3,273.1,173.3z"/>
</g>
<g>
	<path class="st1" d="M146.2,208.2H89.8c-4.9,0-8.9-4-8.9-8.9l0,0c0-4.9,4-8.9,8.9-8.9h56.5c4.9,0,8.9,4,8.9,8.9l0,0
		C155.1,204.2,151.1,208.2,146.2,208.2z"/>
</g>
<g>
	<path class="st1" d="M146.2,360.2H89.8c-4.9,0-8.9-4-8.9-8.9l0,0c0-4.9,4-8.9,8.9-8.9h56.5c4.9,0,8.9,4,8.9,8.9l0,0
		C155.1,356.2,151.1,360.2,146.2,360.2z"/>
</g>
<g>
	<path class="st1" d="M246.2,360.2h-56.5c-4.9,0-8.9-4-8.9-8.9l0,0c0-4.9,4-8.9,8.9-8.9h56.5c4.9,0,8.9,4,8.9,8.9l0,0
		C255.1,356.2,251.1,360.2,246.2,360.2z"/>
</g>
<g>
	<path class="st1" d="M418.2,323.1H91.7c-6,0-10.8-4.9-10.8-10.8l0,0c0-6,4.9-10.8,10.8-10.8h326.4c6,0,10.8,4.9,10.8,10.8l0,0
		C429,318.2,424.1,323.1,418.2,323.1z"/>
</g>
<g>
	<circle class="st1" cx="399" cy="179.1" r="30"/>
</g>
</svg>
