<?xml version="1.0" encoding="utf-8"?>
<!-- Generator: Adobe Illustrator 22.1.0, SVG Export Plug-In . SVG Version: 6.00 Build 0)  -->
<svg version="1.1" id="Layer_1" xmlns="http://www.w3.org/2000/svg" xmlns:xlink="http://www.w3.org/1999/xlink" x="0px" y="0px"
	 viewBox="0 0 512 512" style="enable-background:new 0 0 512 512;" xml:space="preserve">
<style type="text/css">
	.st0{fill:url(#SVGID_1_);}
	.st1{fill:url(#SVGID_2_);}
	.st2{filter:url(#Adobe_OpacityMaskFilter);}
	.st3{fill:url(#SVGID_4_);}
	.st4{mask:url(#SVGID_3_);}
	.st5{fill:url(#SVGID_5_);}
	.st6{fill:url(#SVGID_6_);}
	.st7{filter:url(#Adobe_OpacityMaskFilter_1_);}
	.st8{fill:url(#SVGID_8_);}
	.st9{mask:url(#SVGID_7_);}
	.st10{filter:url(#Adobe_OpacityMaskFilter_2_);}
	.st11{fill:url(#SVGID_10_);}
	.st12{mask:url(#SVGID_9_);}
	.st13{filter:url(#Adobe_OpacityMaskFilter_3_);}
	.st14{fill:url(#SVGID_12_);}
	.st15{mask:url(#SVGID_11_);}
	.st16{fill:url(#SVGID_13_);}
	.st17{fill:url(#SVGID_14_);}
	.st18{fill:url(#SVGID_15_);}
	.st19{fill:url(#SVGID_16_);}
	.st20{filter:url(#Adobe_OpacityMaskFilter_4_);}
	.st21{fill:url(#SVGID_18_);}
	.st22{mask:url(#SVGID_17_);}
	.st23{fill:url(#SVGID_19_);}
	.st24{fill:url(#SVGID_20_);}
	.st25{filter:url(#Adobe_OpacityMaskFilter_5_);}
	.st26{fill:url(#SVGID_22_);}
	.st27{mask:url(#SVGID_21_);}
	.st28{fill:url(#SVGID_23_);}
	.st29{fill:url(#SVGID_24_);}
	.st30{filter:url(#Adobe_OpacityMaskFilter_6_);}
	.st31{fill:url(#SVGID_26_);}
	.st32{mask:url(#SVGID_25_);}
	.st33{fill:url(#SVGID_27_);}
	.st34{fill:url(#SVGID_28_);}
	.st35{fill:url(#SVGID_29_);}
	.st36{opacity:0.7;}
	.st37{fill:#EFEFEF;}
	.st38{filter:url(#Adobe_OpacityMaskFilter_7_);}
	.st39{fill:url(#SVGID_31_);}
	.st40{mask:url(#SVGID_30_);}
	.st41{fill:url(#SVGID_32_);}
	.st42{fill:url(#SVGID_33_);}
	.st43{fill:url(#SVGID_34_);}
	.st44{fill:url(#SVGID_35_);}
	.st45{fill:#9ADDEF;}
	.st46{fill:#1E93BC;}
</style>
<g>
	<path class="st45" d="M135.8,344.1h240.4c19.6,0,35.5-15.9,35.5-35.5V142.5c0-19.6-15.9-35.5-35.5-35.5H135.8
		c-19.6,0-35.5,15.9-35.5,35.5v166.1C100.3,328.2,116.2,344.1,135.8,344.1z"/>
	<path class="st46" d="M376.2,355.8H135.8c-26,0-47.2-21.2-47.2-47.2V142.5c0-26,21.2-47.2,47.2-47.2h240.4
		c26,0,47.2,21.2,47.2,47.2v166.1C423.3,334.6,402.2,355.8,376.2,355.8z M135.8,118.7c-13.1,0-23.8,10.7-23.8,23.8v166.1
		c0,13.1,10.7,23.8,23.8,23.8h240.4c13.1,0,23.8-10.7,23.8-23.8V142.5c0-13.1-10.7-23.8-23.8-23.8H135.8z"/>
	<g>
		<polygon class="st46" points="291.8,416.4 255.7,379.9 218.6,416.4 186.5,416.1 255.7,346.9 325.5,416.6 		"/>
	</g>
	<polygon class="st46" points="225.3,225.1 225.3,179.2 265,202.1 304.8,225.1 265,248 225.3,271 	"/>
</g>
</svg>
