<?xml version="1.0" encoding="utf-8"?>
<!-- Generator: Adobe Illustrator 19.0.0, SVG Export Plug-In . SVG Version: 6.00 Build 0)  -->
<svg version="1.1" id="Layer_1" xmlns="http://www.w3.org/2000/svg" xmlns:xlink="http://www.w3.org/1999/xlink" x="0px" y="0px"
	 viewBox="0 0 512 512" enable-background="new 0 0 512 512" xml:space="preserve">
<g id="XMLID_1_">
	<path id="XMLID_4_" fill="rgb(112, 97, 168)" d="M389.1,443.9l-4.9-56.3c-2.2-26,2.6-52.1,14-75.5l18.6-38.1c28.6-58.7,4.2-129.8-54.5-158.4
		c-58.7-28.6-129.8-4.2-158.4,54.6l-18.6,38.1c-11.5,23.4-29,43.3-50.9,57.6L87,296.6c-2.6,1.7-4,4.6-3.8,7.6c0.2,3.1,2,5.8,4.7,7.1
		l289,141c2.7,1.3,6,1.1,8.5-0.6C388,449.9,389.4,447,389.1,443.9"/>
	<path id="XMLID_3_" fill="rgb(112, 97, 168)" d="M388.3,62.3c-16.8-8.2-37.1-1.2-45.3,15.6l-14.8,30.4c-2.1,4.2-0.3,9.3,3.9,11.3
		c4.2,2,9.3,0.3,11.3-3.9l14.8-30.4c4.1-8.4,14.2-11.9,22.6-7.8c8.4,4.1,11.9,14.2,7.8,22.6l-14.8,30.4c-2,4.2-0.3,9.2,3.9,11.3
		c4.2,2.1,9.3,0.3,11.3-3.9l14.8-30.4C412,90.8,405,70.5,388.3,62.3"/>
	<path id="XMLID_2_" fill="rgb(112, 97, 168)" d="M271,386.4c-0.4-4.7-4.4-8.1-9.1-7.8c-4.7,0.4-8.2,4.4-7.8,9.1c0.3,4.3-0.5,8.9-2.5,12.9
		c-6.1,12.6-21.4,17.8-34,11.7c-12.6-6.1-17.8-21.4-11.7-34c2-4,5-7.5,8.6-9.9c3.9-2.6,4.9-7.8,2.3-11.7c-2.6-3.9-7.8-4.9-11.7-2.4
		c-6.2,4.1-11.2,9.8-14.4,16.6c-10.2,21-1.5,46.3,19.5,56.6c21,10.2,46.4,1.5,56.6-19.5C270.1,401.2,271.5,393.8,271,386.4"/>
</g>
</svg>
