<?xml version="1.0" encoding="utf-8"?>
<!-- Generator: Adobe Illustrator 22.1.0, SVG Export Plug-In . SVG Version: 6.00 Build 0)  -->
<svg version="1.1" id="Layer_1" xmlns="http://www.w3.org/2000/svg" xmlns:xlink="http://www.w3.org/1999/xlink" x="0px" y="0px"
	 viewBox="0 0 512 512" style="enable-background:new 0 0 512 512;" xml:space="preserve">
<style type="text/css">
	.st0{fill:#89C2EC;}
	.st1{fill:#336173;}
	.st2{fill:#295461;}
	.st3{fill:#427891;}
	.st4{fill:#528CAB;}
	.st5{fill:#E59E1F;}
	.st6{fill:#78B8E0;}
	.st7{fill:#BF7D12;}
	.st8{fill:#EDB02E;}
</style>
<g>
	<path class="st0" d="M77.9,343.1c1.2,0,2.5-0.5,3.5-1.4l11-11c1.9-1.9,1.9-5,0-6.9c-1.9-1.9-5-1.9-6.9,0l-11,11
		c-1.9,1.9-1.9,5,0,6.9C75.4,342.6,76.7,343.1,77.9,343.1"/>
	<path class="st0" d="M134.7,352.7c-1.9-1.9-5-1.9-6.9,0l-11,11c-1.9,1.9-1.9,5,0,6.9c1,1,2.2,1.4,3.5,1.4c1.2,0,2.5-0.5,3.4-1.4
		l11-11C136.6,357.7,136.6,354.6,134.7,352.7"/>
	<path class="st0" d="M252.3,323.5c-2,2-2.1,5.3,0,7.2c0.9,0.9,2.1,1.3,3.3,1.3c1.2,0,2.5-0.5,3.5-1.4l21.3-21.3
		c0.4-0.4,0.7-0.8,0.9-1.3c-8.6,0-16.9,3.4-23,9.5L252.3,323.5z"/>
	<path class="st0" d="M74.4,366.7c-2,2-2.1,5.3,0,7.2c0.9,0.9,2.1,1.3,3.3,1.3c1.3,0,2.5-0.5,3.5-1.4l57.4-57.4
		c3.1-3.1,0.9-8.4-3.5-8.4c-1.3,0-2.5,0.5-3.5,1.4L74.4,366.7z"/>
	<path class="st0" d="M312.4,318.1c-1.9-1.9-5-1.9-6.9,0l-38.2,38.2c-1.9,1.9-1.9,5,0,6.9c1,1,2.2,1.4,3.5,1.4s2.5-0.5,3.5-1.4
		l38.2-38.2C314.3,323.1,314.3,320,312.4,318.1"/>
	<path class="st0" d="M250.8,372.8L238.6,385c-1.9,1.9-1.9,5,0,6.9c1,1,2.2,1.4,3.5,1.4c1.2,0,2.5-0.5,3.5-1.4l12.2-12.2
		c1.9-1.9,1.9-5,0-6.9C255.8,370.9,252.7,370.9,250.8,372.8"/>
	<path class="st0" d="M316.9,358c-2,2-2.1,5.3,0,7.2c0.9,0.9,2.1,1.3,3.3,1.3c1.3,0,2.5-0.5,3.5-1.4l57.4-57.4
		c3.1-3.1,0.9-8.4-3.5-8.4c-1.3,0-2.5,0.5-3.5,1.4L316.9,358z"/>
	<path class="st0" d="M310.5,383.6L310.5,383.6L310.5,383.6c-2.8,0-5,2.2-5,4.9c0,2.7,2.2,4.9,4.9,4.9h0.1h0c2.7,0,4.9-2.2,4.9-4.9
		C315.4,385.8,313.2,383.6,310.5,383.6"/>
	<path class="st0" d="M98,395L98,395c-2.8,0-5,2.2-5,4.9c0,2.7,2.2,4.9,4.9,4.9H98c2.7,0,4.9-2.2,4.9-4.9
		C102.9,397.2,100.7,395,98,395"/>
	<path class="st0" d="M217.3,363.1c-1.9-1.9-5-1.9-6.9,0l-11,11c-1.9,1.9-1.9,5,0,6.9c1,1,2.2,1.4,3.5,1.4c1.2,0,2.5-0.5,3.4-1.4
		l11-11C219.3,368.1,219.3,365,217.3,363.1"/>
	<path class="st0" d="M141.3,387.4c-2,2-2.1,5.3,0,7.2c0.9,0.9,2.1,1.3,3.3,1.3c1.3,0,2.5-0.5,3.5-1.4l57.4-57.4
		c3.1-3.1,0.9-8.4-3.5-8.4c-1.3,0-2.5,0.5-3.5,1.4L141.3,387.4z"/>
	<path class="st0" d="M393,334.3c-1.9-1.9-5-1.9-6.9,0l-38.2,38.2c-1.9,1.9-1.9,5,0,6.9c1,1,2.2,1.4,3.5,1.4s2.5-0.5,3.5-1.4
		l38.2-38.2C394.9,339.4,394.9,336.3,393,334.3"/>
	<path class="st0" d="M331.1,403.2l-12.2,12.2c-1.9,1.9-1.9,5,0,6.9c1,1,2.2,1.4,3.5,1.4c1.3,0,2.5-0.5,3.5-1.4l12.2-12.2
		c1.9-1.9,1.9-5,0-6.9S333,401.3,331.1,403.2"/>
	<path class="st0" d="M279.5,412.9l-12.2,12.2c-1.9,1.9-1.9,5,0,6.9c1,1,2.2,1.4,3.5,1.4c1.3,0,2.5-0.5,3.5-1.4l12.2-12.2
		c1.9-1.9,1.9-5,0-6.9S281.4,411,279.5,412.9"/>
	<path class="st0" d="M393.4,401.9l-12.2,12.2c-1.9,1.9-1.9,5,0,6.9c1,1,2.2,1.4,3.5,1.4c1.3,0,2.5-0.5,3.5-1.4l12.2-12.2
		c1.9-1.9,1.9-5,0-6.9S395.4,399.9,393.4,401.9"/>
	<path class="st0" d="M128.4,412.9l-12.2,12.2c-1.9,1.9-1.9,5,0,6.9c1,1,2.2,1.4,3.5,1.4c1.3,0,2.5-0.5,3.5-1.4l12.2-12.2
		c1.9-1.9,1.9-5,0-6.9C133.4,411,130.3,411,128.4,412.9"/>
	<path class="st0" d="M377.6,382c-2,2-2.1,5.3,0,7.2c0.9,0.9,2.1,1.3,3.3,1.3c1.3,0,2.5-0.5,3.5-1.4l57.4-57.4
		c3.1-3.1,0.9-8.4-3.5-8.4c-1.3,0-2.5,0.5-3.5,1.4L377.6,382z"/>
	<path class="st0" d="M424.5,367.1L424.5,367.1L424.5,367.1c-2.8,0-5,2.2-5,4.9c0,2.7,2.2,4.9,4.9,4.9h0.1h0c2.7,0,4.9-2.2,4.9-4.9
		C429.4,369.4,427.2,367.2,424.5,367.1"/>
	<path class="st0" d="M170.3,415.7L170.3,415.7c-2.8,0-5,2.2-5,4.9c0,2.7,2.2,4.9,4.9,4.9h0.1c2.7,0,4.9-2.2,4.9-4.9
		C175.2,417.9,173,415.7,170.3,415.7"/>
	<path class="st1" d="M395.1,147.6c-5,0-10,0.4-14.8,1.3c-3.7-15.7-8.4-33.2-25.1-40.5c-16.7-7.3-36.4-7.6-53.4-0.8
		c-15.4-36.3-65.2-59.3-107.6-46.1s-52.7,42.9-56.5,81.4c-37.1,1-56,39.7-55.4,71.5c0.6,31.8,30.8,57.3,68,57.4h252.1
		c41.4,0,75-28.7,75-64.1c0-31.9-33.1-55.1-69.9-59.4C403.4,147.9,399.2,147.6,395.1,147.6"/>
	<path class="st2" d="M374.5,149.5c-5,0-10,0.4-14.8,1.3c-3.7-15.7-8.4-33.2-25.1-40.5c-16.7-7.3-36.4-7.6-53.4-0.8
		C265.8,73.1,216,50.2,173.6,63.4s-52.7,42.9-56.5,81.4c-37.1,1-56,39.7-55.4,71.5c0.6,31.8,30.8,57.3,68,57.4h252.1
		c41.4,0,75-28.7,75-64.1c0-31.9-33.1-55.1-69.9-59.4C382.8,149.7,378.7,149.5,374.5,149.5"/>
	<path class="st3" d="M408.2,189.7c-4.4,0-8.8,0.4-13.2,1.3c-3.3-15.5-7.4-32.7-22.2-39.9c-14.8-7.2-32.3-7.5-47.4-0.8
		c-13.7-35.8-57.9-58.4-95.5-45.4c-37.6,13-46.7,42.2-50.1,80.2c-33,1-49.7,39.1-49.2,70.4c0.5,31.3,27.3,56.5,60.3,56.5h223.7
		c36.7,0,66.5-28.3,66.5-63.2c0-31.4-29.3-54.2-62-58.5C415.5,189.9,411.8,189.7,408.2,189.7"/>
	<path class="st4" d="M223.1,236.9c-2.9,0-5.8,0.3-8.7,0.8c-2.2-10.2-4.9-21.5-14.6-26.3c-9.8-4.7-21.3-4.9-31.2-0.5
		c-9-23.5-38.1-38.4-62.9-29.9c-24.8,8.5-30.8,27.8-33,52.8c-21.7,0.7-32.7,25.7-32.4,46.4c0.3,20.6,18,37.2,39.7,37.2h147.3
		c24.2,0,43.8-18.6,43.8-41.6c0-20.7-19.3-35.7-40.8-38.5C227.9,237,225.5,236.9,223.1,236.9"/>
	<polyline class="st5" points="180.8,120.3 138.5,162.6 180.8,162.6 136.8,206.6 	"/>
	<path class="st6" d="M200.1,242.9c-2.7,0-5.4,0.3-8,0.8c-2-9.4-4.5-19.9-13.6-24.3c-9-4.4-19.7-4.5-28.9-0.5
		c-8.3-21.8-35.3-35.6-58.2-27.7c-22.9,7.9-28.5,25.7-30.5,48.9c-20.1,0.6-30.3,23.8-30,42.9c0.3,19.1,16.7,34.4,36.8,34.5H204
		c22.4,0,40.5-17.2,40.5-38.5c0-19.1-17.9-33-37.8-35.6C204.5,243,202.3,242.9,200.1,242.9"/>
	<polygon class="st7" points="197.6,333.7 282.9,333.7 196.2,454.3 339.5,308 255.6,308 308.2,203.5 	"/>
	<polygon class="st8" points="178,333.7 263.3,333.7 196.2,454.3 319.9,308 236,308 313.3,198.4 	"/>
</g>
</svg>
