<?xml version="1.0" encoding="utf-8"?>
<!-- Generator: Adobe Illustrator 22.1.0, SVG Export Plug-In . SVG Version: 6.00 Build 0)  -->
<svg version="1.1" id="Layer_1" xmlns="http://www.w3.org/2000/svg" xmlns:xlink="http://www.w3.org/1999/xlink" x="0px" y="0px"
	 viewBox="0 0 512 512" style="enable-background:new 0 0 512 512;" xml:space="preserve">
<style type="text/css">
	.st0{fill:#7061A8;}
</style>
<g>
	<g>
		<rect x="100.4" y="118.5" class="st0" width="20.8" height="18.3"/>
	</g>
	<g>
		<rect x="100.4" y="171.1" class="st0" width="20.8" height="18.3"/>
	</g>
	<g>
		<rect x="100.4" y="223.6" class="st0" width="20.8" height="18.3"/>
	</g>
	<g>
		<rect x="100.4" y="328.8" class="st0" width="20.8" height="18.3"/>
	</g>
	<g>
		<rect x="100.4" y="381.4" class="st0" width="20.8" height="18.3"/>
	</g>
	<g>
		<path class="st0" d="M401.7,34.7H146.3c-25.4,0-46,20.7-46,46v3.5h20.8v-3.5c0-13.9,11.4-25.2,25.2-25.2h255.3
			c13.9,0,25.2,11.4,25.2,25.2v350.7c0,13.9-11.4,25.2-25.2,25.2H146.3c-13.1,0-23.9-9.9-25.1-22.6h-20.8
			c1.3,24.2,21.4,43.4,46,43.4h255.3c25.4,0,46-20.7,46-46V80.7C447.7,55.3,427.1,34.7,401.7,34.7z"/>
	</g>
	<g>
		<rect x="100.4" y="276.2" class="st0" width="20.8" height="18.3"/>
	</g>
	<g>
		<path class="st0" d="M130.3,430.4H80.2c-7.3,0-13.5-6-13.5-13.5c0-7.5,6-13.5,13.5-13.5h50.1c7.5,0,13.5,6,13.5,13.5
			C143.8,424.4,137.8,430.4,130.3,430.4z"/>
	</g>
	<g>
		<path class="st0" d="M127.9,377.8H77.7c-7.3,0-13.5-6-13.5-13.5c0-7.5,6-13.5,13.5-13.5h50.1c7.5,0,13.5,6,13.5,13.5
			C141.3,371.8,135.3,377.8,127.9,377.8z"/>
	</g>
	<g>
		<path class="st0" d="M130.3,325.2H80.2c-7.3,0-13.5-6-13.5-13.5c0-7.5,6-13.5,13.5-13.5h50.1c7.5,0,13.5,6,13.5,13.5
			C143.8,319.2,137.8,325.2,130.3,325.2z"/>
	</g>
	<g>
		<path class="st0" d="M130.3,272.6H80.2c-7.3,0-13.5-6-13.5-13.5c0-7.5,6-13.5,13.5-13.5h50.1c7.5,0,13.5,6,13.5,13.5
			C143.8,266.6,137.8,272.6,130.3,272.6z"/>
	</g>
	<g>
		<path class="st0" d="M130.3,220H80.2c-7.3,0-13.5-6-13.5-13.5s6-13.5,13.5-13.5h50.1c7.5,0,13.5,6,13.5,13.5S137.8,220,130.3,220z
			"/>
	</g>
	<g>
		<path class="st0" d="M130.3,167.4H80.2c-7.3,0-13.5-6-13.5-13.5s6-13.5,13.5-13.5h50.1c7.5,0,13.5,6,13.5,13.5
			S137.8,167.4,130.3,167.4z"/>
	</g>
	<g>
		<path class="st0" d="M130.3,114.8H80.2c-7.3,0-13.5-6-13.5-13.5s6-13.5,13.5-13.5h50.1c7.5,0,13.5,6,13.5,13.5
			S137.8,114.8,130.3,114.8z"/>
	</g>
	<g>
		<rect x="395.1" y="43.8" class="st0" width="15.9" height="422"/>
	</g>
	<g>
		<rect x="380.5" y="43.8" class="st0" width="7.3" height="422"/>
	</g>
	<g>
		<g>
			<circle class="st0" cx="184.4" cy="117.2" r="4.3"/>
		</g>
		<g>
			<circle class="st0" cx="203.7" cy="117.2" r="4.3"/>
		</g>
		<g>
			<circle class="st0" cx="223.2" cy="117.2" r="4.3"/>
		</g>
		<g>
			
				<ellipse transform="matrix(0.1602 -0.9871 0.9871 0.1602 88.0234 337.9307)" class="st0" cx="242.6" cy="117.2" rx="4.3" ry="4.3"/>
		</g>
		<g>
			<circle class="st0" cx="262.1" cy="117.2" r="4.3"/>
		</g>
		<g>
			<circle class="st0" cx="281.4" cy="117.2" r="4.3"/>
		</g>
		<g>
			<circle class="st0" cx="300.8" cy="117.2" r="4.3"/>
		</g>
		<g>
			<circle class="st0" cx="320.3" cy="117.2" r="4.3"/>
		</g>
		<g>
			<circle class="st0" cx="339.7" cy="117.2" r="4.3"/>
		</g>
		<g>
			<g>
				<circle class="st0" cx="184.4" cy="131.9" r="4.3"/>
			</g>
			<g>
				<circle class="st0" cx="203.7" cy="131.9" r="4.3"/>
			</g>
			<g>
				<circle class="st0" cx="223.2" cy="131.9" r="4.3"/>
			</g>
			<g>
				
					<ellipse transform="matrix(0.1602 -0.9871 0.9871 0.1602 73.5353 350.2572)" class="st0" cx="242.6" cy="131.9" rx="4.3" ry="4.3"/>
			</g>
			<g>
				<circle class="st0" cx="262.1" cy="131.9" r="4.3"/>
			</g>
			<g>
				<circle class="st0" cx="281.4" cy="131.9" r="4.3"/>
			</g>
			<g>
				<circle class="st0" cx="300.8" cy="131.9" r="4.3"/>
			</g>
			<g>
				<circle class="st0" cx="320.3" cy="131.9" r="4.3"/>
			</g>
			<g>
				<circle class="st0" cx="339.7" cy="131.9" r="4.3"/>
			</g>
		</g>
		<g>
			<g>
				<circle class="st0" cx="184.4" cy="146.6" r="4.3"/>
			</g>
			<g>
				<circle class="st0" cx="203.7" cy="146.6" r="4.3"/>
			</g>
			<g>
				<circle class="st0" cx="223.2" cy="146.6" r="4.3"/>
			</g>
			<g>
				
					<ellipse transform="matrix(0.1602 -0.9871 0.9871 0.1602 59.0473 362.5837)" class="st0" cx="242.6" cy="146.6" rx="4.3" ry="4.3"/>
			</g>
			<g>
				<circle class="st0" cx="262.1" cy="146.6" r="4.3"/>
			</g>
			<g>
				<circle class="st0" cx="281.4" cy="146.6" r="4.3"/>
			</g>
			<g>
				<circle class="st0" cx="300.8" cy="146.6" r="4.3"/>
			</g>
			<g>
				<circle class="st0" cx="320.3" cy="146.6" r="4.3"/>
			</g>
			<g>
				<circle class="st0" cx="339.7" cy="146.6" r="4.3"/>
			</g>
		</g>
		<g>
			<g>
				<circle class="st0" cx="184.4" cy="161.3" r="4.3"/>
			</g>
			<g>
				<circle class="st0" cx="203.7" cy="161.3" r="4.3"/>
			</g>
			<g>
				<circle class="st0" cx="223.2" cy="161.3" r="4.3"/>
			</g>
			<g>
				
					<ellipse transform="matrix(0.1602 -0.9871 0.9871 0.1602 44.5592 374.9102)" class="st0" cx="242.6" cy="161.3" rx="4.3" ry="4.3"/>
			</g>
			<g>
				<circle class="st0" cx="262.1" cy="161.3" r="4.3"/>
			</g>
			<g>
				<circle class="st0" cx="281.4" cy="161.3" r="4.3"/>
			</g>
			<g>
				<circle class="st0" cx="300.8" cy="161.3" r="4.3"/>
			</g>
			<g>
				<circle class="st0" cx="320.3" cy="161.3" r="4.3"/>
			</g>
			<g>
				<circle class="st0" cx="339.7" cy="161.3" r="4.3"/>
			</g>
		</g>
		<g>
			<g>
				<circle class="st0" cx="184.4" cy="175.9" r="4.3"/>
			</g>
			<g>
				<circle class="st0" cx="203.7" cy="175.9" r="4.3"/>
			</g>
			<g>
				<circle class="st0" cx="223.2" cy="175.9" r="4.3"/>
			</g>
			<g>
				
					<ellipse transform="matrix(0.1602 -0.9871 0.9871 0.1602 30.0712 387.2366)" class="st0" cx="242.6" cy="175.9" rx="4.3" ry="4.3"/>
			</g>
			<g>
				<circle class="st0" cx="262.1" cy="175.9" r="4.3"/>
			</g>
			<g>
				<circle class="st0" cx="281.4" cy="175.9" r="4.3"/>
			</g>
			<g>
				<circle class="st0" cx="300.8" cy="175.9" r="4.3"/>
			</g>
			<g>
				<circle class="st0" cx="320.3" cy="175.9" r="4.3"/>
			</g>
			<g>
				<circle class="st0" cx="339.7" cy="175.9" r="4.3"/>
			</g>
		</g>
		<g>
			<g>
				<circle class="st0" cx="184.4" cy="190.6" r="4.3"/>
			</g>
			<g>
				<circle class="st0" cx="203.7" cy="190.6" r="4.3"/>
			</g>
			<g>
				<circle class="st0" cx="223.2" cy="190.6" r="4.3"/>
			</g>
			<g>
				
					<ellipse transform="matrix(0.1602 -0.9871 0.9871 0.1602 15.5832 399.5631)" class="st0" cx="242.6" cy="190.6" rx="4.3" ry="4.3"/>
			</g>
			<g>
				<circle class="st0" cx="262.1" cy="190.6" r="4.3"/>
			</g>
			<g>
				<circle class="st0" cx="281.4" cy="190.6" r="4.3"/>
			</g>
			<g>
				<circle class="st0" cx="300.8" cy="190.6" r="4.3"/>
			</g>
			<g>
				<circle class="st0" cx="320.3" cy="190.6" r="4.3"/>
			</g>
			<g>
				<circle class="st0" cx="339.7" cy="190.6" r="4.3"/>
			</g>
		</g>
	</g>
	<g>
		<g>
			<circle class="st0" cx="184.4" cy="220" r="4.3"/>
		</g>
		<g>
			<circle class="st0" cx="203.7" cy="220" r="4.3"/>
		</g>
		<g>
			<circle class="st0" cx="223.2" cy="220" r="4.3"/>
		</g>
		<g>
			
				<ellipse transform="matrix(0.1602 -0.9871 0.9871 0.1602 -13.3929 424.2161)" class="st0" cx="242.6" cy="220" rx="4.3" ry="4.3"/>
		</g>
		<g>
			<circle class="st0" cx="262.1" cy="220" r="4.3"/>
		</g>
		<g>
			<circle class="st0" cx="281.4" cy="220" r="4.3"/>
		</g>
		<g>
			<circle class="st0" cx="300.8" cy="220" r="4.3"/>
		</g>
		<g>
			<circle class="st0" cx="320.3" cy="220" r="4.3"/>
		</g>
		<g>
			<circle class="st0" cx="339.7" cy="220" r="4.3"/>
		</g>
		<g>
			<g>
				<circle class="st0" cx="184.4" cy="234.7" r="4.3"/>
			</g>
			<g>
				<circle class="st0" cx="203.7" cy="234.7" r="4.3"/>
			</g>
			<g>
				<circle class="st0" cx="223.2" cy="234.7" r="4.3"/>
			</g>
			<g>
				
					<ellipse transform="matrix(0.1602 -0.9871 0.9871 0.1602 -27.881 436.5426)" class="st0" cx="242.6" cy="234.7" rx="4.3" ry="4.3"/>
			</g>
			<g>
				<circle class="st0" cx="262.1" cy="234.7" r="4.3"/>
			</g>
			<g>
				<circle class="st0" cx="281.4" cy="234.7" r="4.3"/>
			</g>
			<g>
				<circle class="st0" cx="300.8" cy="234.7" r="4.3"/>
			</g>
			<g>
				<circle class="st0" cx="320.3" cy="234.7" r="4.3"/>
			</g>
			<g>
				<circle class="st0" cx="339.7" cy="234.7" r="4.3"/>
			</g>
		</g>
		<g>
			<g>
				<circle class="st0" cx="184.4" cy="249.3" r="4.3"/>
			</g>
			<g>
				<circle class="st0" cx="203.7" cy="249.3" r="4.3"/>
			</g>
			<g>
				<circle class="st0" cx="223.2" cy="249.3" r="4.3"/>
			</g>
			<g>
				
					<ellipse transform="matrix(0.1602 -0.9871 0.9871 0.1602 -42.369 448.869)" class="st0" cx="242.6" cy="249.3" rx="4.3" ry="4.3"/>
			</g>
			<g>
				<circle class="st0" cx="262.1" cy="249.3" r="4.3"/>
			</g>
			<g>
				<circle class="st0" cx="281.4" cy="249.3" r="4.3"/>
			</g>
			<g>
				<circle class="st0" cx="300.8" cy="249.3" r="4.3"/>
			</g>
			<g>
				<circle class="st0" cx="320.3" cy="249.3" r="4.3"/>
			</g>
			<g>
				<circle class="st0" cx="339.7" cy="249.3" r="4.3"/>
			</g>
		</g>
		<g>
			<g>
				<circle class="st0" cx="184.4" cy="264" r="4.3"/>
			</g>
			<g>
				<circle class="st0" cx="203.7" cy="264" r="4.3"/>
			</g>
			<g>
				<circle class="st0" cx="223.2" cy="264" r="4.3"/>
			</g>
			<g>
				
					<ellipse transform="matrix(0.1602 -0.9871 0.9871 0.1602 -56.8571 461.1955)" class="st0" cx="242.6" cy="264" rx="4.3" ry="4.3"/>
			</g>
			<g>
				<circle class="st0" cx="262.1" cy="264" r="4.3"/>
			</g>
			<g>
				<circle class="st0" cx="281.4" cy="264" r="4.3"/>
			</g>
			<g>
				<circle class="st0" cx="300.8" cy="264" r="4.3"/>
			</g>
			<g>
				<circle class="st0" cx="320.3" cy="264" r="4.3"/>
			</g>
			<g>
				<circle class="st0" cx="339.7" cy="264" r="4.3"/>
			</g>
		</g>
		<g>
			<g>
				<circle class="st0" cx="184.4" cy="278.7" r="4.3"/>
			</g>
			<g>
				<circle class="st0" cx="203.7" cy="278.7" r="4.3"/>
			</g>
			<g>
				<circle class="st0" cx="223.2" cy="278.7" r="4.3"/>
			</g>
			<g>
				
					<ellipse transform="matrix(0.1602 -0.9871 0.9871 0.1602 -71.3451 473.522)" class="st0" cx="242.6" cy="278.7" rx="4.3" ry="4.3"/>
			</g>
			<g>
				<circle class="st0" cx="262.1" cy="278.7" r="4.3"/>
			</g>
			<g>
				<circle class="st0" cx="281.4" cy="278.7" r="4.3"/>
			</g>
			<g>
				<circle class="st0" cx="300.8" cy="278.7" r="4.3"/>
			</g>
			<g>
				<circle class="st0" cx="320.3" cy="278.7" r="4.3"/>
			</g>
			<g>
				<circle class="st0" cx="339.7" cy="278.7" r="4.3"/>
			</g>
		</g>
		<g>
			<g>
				<circle class="st0" cx="184.4" cy="293.4" r="4.3"/>
			</g>
			<g>
				<circle class="st0" cx="203.7" cy="293.4" r="4.3"/>
			</g>
			<g>
				<circle class="st0" cx="223.2" cy="293.4" r="4.3"/>
			</g>
			<g>
				
					<ellipse transform="matrix(0.1602 -0.9871 0.9871 0.1602 -85.8331 485.8485)" class="st0" cx="242.6" cy="293.4" rx="4.3" ry="4.3"/>
			</g>
			<g>
				<circle class="st0" cx="262.1" cy="293.4" r="4.3"/>
			</g>
			<g>
				<circle class="st0" cx="281.4" cy="293.4" r="4.3"/>
			</g>
			<g>
				<circle class="st0" cx="300.8" cy="293.4" r="4.3"/>
			</g>
			<g>
				<circle class="st0" cx="320.3" cy="293.4" r="4.3"/>
			</g>
			<g>
				<circle class="st0" cx="339.7" cy="293.4" r="4.3"/>
			</g>
		</g>
	</g>
	<g>
		<g>
			<circle class="st0" cx="184.4" cy="327.6" r="4.3"/>
		</g>
		<g>
			<circle class="st0" cx="203.7" cy="327.6" r="4.3"/>
		</g>
		<g>
			<circle class="st0" cx="223.2" cy="327.6" r="4.3"/>
		</g>
		<g>
			
				<ellipse transform="matrix(0.1602 -0.9871 0.9871 0.1602 -119.6386 514.6103)" class="st0" cx="242.6" cy="327.6" rx="4.3" ry="4.3"/>
		</g>
		<g>
			<circle class="st0" cx="262.1" cy="327.6" r="4.3"/>
		</g>
		<g>
			<circle class="st0" cx="281.4" cy="327.6" r="4.3"/>
		</g>
		<g>
			<circle class="st0" cx="300.8" cy="327.6" r="4.3"/>
		</g>
		<g>
			<circle class="st0" cx="320.3" cy="327.6" r="4.3"/>
		</g>
		<g>
			<circle class="st0" cx="339.7" cy="327.6" r="4.3"/>
		</g>
		<g>
			<g>
				<circle class="st0" cx="184.4" cy="342.3" r="4.3"/>
			</g>
			<g>
				<circle class="st0" cx="203.7" cy="342.3" r="4.3"/>
			</g>
			<g>
				<circle class="st0" cx="223.2" cy="342.3" r="4.3"/>
			</g>
			<g>
				
					<ellipse transform="matrix(0.1602 -0.9871 0.9871 0.1602 -134.1266 526.9368)" class="st0" cx="242.6" cy="342.3" rx="4.3" ry="4.3"/>
			</g>
			<g>
				<circle class="st0" cx="262.1" cy="342.3" r="4.3"/>
			</g>
			<g>
				<circle class="st0" cx="281.4" cy="342.3" r="4.3"/>
			</g>
			<g>
				<circle class="st0" cx="300.8" cy="342.3" r="4.3"/>
			</g>
			<g>
				<circle class="st0" cx="320.3" cy="342.3" r="4.3"/>
			</g>
			<g>
				<circle class="st0" cx="339.7" cy="342.3" r="4.3"/>
			</g>
		</g>
		<g>
			<g>
				<circle class="st0" cx="184.4" cy="357" r="4.3"/>
			</g>
			<g>
				<circle class="st0" cx="203.7" cy="357" r="4.3"/>
			</g>
			<g>
				<circle class="st0" cx="223.2" cy="357" r="4.3"/>
			</g>
			<g>
				
					<ellipse transform="matrix(0.1602 -0.9871 0.9871 0.1602 -148.6147 539.2632)" class="st0" cx="242.6" cy="357" rx="4.3" ry="4.3"/>
			</g>
			<g>
				<circle class="st0" cx="262.1" cy="357" r="4.3"/>
			</g>
			<g>
				<circle class="st0" cx="281.4" cy="357" r="4.3"/>
			</g>
			<g>
				<circle class="st0" cx="300.8" cy="357" r="4.3"/>
			</g>
			<g>
				<circle class="st0" cx="320.3" cy="357" r="4.3"/>
			</g>
			<g>
				<circle class="st0" cx="339.7" cy="357" r="4.3"/>
			</g>
		</g>
		<g>
			<g>
				<circle class="st0" cx="184.4" cy="371.6" r="4.3"/>
			</g>
			<g>
				<circle class="st0" cx="203.7" cy="371.6" r="4.3"/>
			</g>
			<g>
				<circle class="st0" cx="223.2" cy="371.6" r="4.3"/>
			</g>
			<g>
				
					<ellipse transform="matrix(0.1602 -0.9871 0.9871 0.1602 -163.1027 551.5897)" class="st0" cx="242.6" cy="371.6" rx="4.3" ry="4.3"/>
			</g>
			<g>
				<circle class="st0" cx="262.1" cy="371.6" r="4.3"/>
			</g>
			<g>
				<circle class="st0" cx="281.4" cy="371.6" r="4.3"/>
			</g>
			<g>
				<circle class="st0" cx="300.8" cy="371.6" r="4.3"/>
			</g>
			<g>
				<circle class="st0" cx="320.3" cy="371.6" r="4.3"/>
			</g>
			<g>
				<circle class="st0" cx="339.7" cy="371.6" r="4.3"/>
			</g>
		</g>
		<g>
			<g>
				<circle class="st0" cx="184.4" cy="386.3" r="4.3"/>
			</g>
			<g>
				<circle class="st0" cx="203.7" cy="386.3" r="4.3"/>
			</g>
			<g>
				<circle class="st0" cx="223.2" cy="386.3" r="4.3"/>
			</g>
			<g>
				
					<ellipse transform="matrix(0.1602 -0.9871 0.9871 0.1602 -177.5907 563.9162)" class="st0" cx="242.6" cy="386.3" rx="4.3" ry="4.3"/>
			</g>
			<g>
				<circle class="st0" cx="262.1" cy="386.3" r="4.3"/>
			</g>
			<g>
				<circle class="st0" cx="281.4" cy="386.3" r="4.3"/>
			</g>
			<g>
				<circle class="st0" cx="300.8" cy="386.3" r="4.3"/>
			</g>
			<g>
				<circle class="st0" cx="320.3" cy="386.3" r="4.3"/>
			</g>
			<g>
				<circle class="st0" cx="339.7" cy="386.3" r="4.3"/>
			</g>
		</g>
		<g>
			<g>
				<circle class="st0" cx="184.4" cy="401" r="4.3"/>
			</g>
			<g>
				<circle class="st0" cx="203.7" cy="401" r="4.3"/>
			</g>
			<g>
				<circle class="st0" cx="223.2" cy="401" r="4.3"/>
			</g>
			<g>
				
					<ellipse transform="matrix(0.1602 -0.9871 0.9871 0.1602 -192.0788 576.2427)" class="st0" cx="242.6" cy="401" rx="4.3" ry="4.3"/>
			</g>
			<g>
				<circle class="st0" cx="262.1" cy="401" r="4.3"/>
			</g>
			<g>
				<circle class="st0" cx="281.4" cy="401" r="4.3"/>
			</g>
			<g>
				<circle class="st0" cx="300.8" cy="401" r="4.3"/>
			</g>
			<g>
				<circle class="st0" cx="320.3" cy="401" r="4.3"/>
			</g>
			<g>
				<circle class="st0" cx="339.7" cy="401" r="4.3"/>
			</g>
		</g>
	</g>
</g>
</svg>
