<?xml version="1.0" encoding="utf-8"?>
<!-- Generator: Adobe Illustrator 22.1.0, SVG Export Plug-In . SVG Version: 6.00 Build 0)  -->
<svg version="1.1" id="Layer_1" xmlns="http://www.w3.org/2000/svg" xmlns:xlink="http://www.w3.org/1999/xlink" x="0px" y="0px"
	 viewBox="0 0 512 512" style="enable-background:new 0 0 512 512;" xml:space="preserve">
<g>
	<rect x="134.6" y="243.7" width="28.2" height="24.7"/>
	<rect x="134.6" y="311.6" width="28.2" height="24.7"/>
	<rect x="134.6" y="175.8" width="28.2" height="24.7"/>
	<path d="M381.4,86.6h-229c-9.9,0-17.9,8-17.9,17.9v28.2h28.2c0-9.8,8-17.9,17.9-17.9h172.7c9.9,0,18,8,17.9,18v246.7
		c0,9.8-8,17.9-17.9,17.9H180.6c-9.8,0-17.9-8-17.9-17.9h-28.2v28.1c0,9.9,8,17.9,17.9,17.9h229c9.9,0,17.9-8,17.9-17.9V104.6
		C399.3,94.6,391.4,86.6,381.4,86.6z"/>
	<path d="M180,154.2c0-7.8-6.3-14.2-14.1-14.2h-39.1c-7.8,0-14.2,6.3-14.2,14.2c0,7.8,6.3,14.2,14.2,14.2h39
		C173.6,168.4,180,162.1,180,154.2z"/>
	<path d="M180,223c0-7.9-6.3-14.2-14.1-14.2h-39.1c-7.8,0-14.2,6.3-14.2,14.2s6.4,14.2,14.2,14.2h39C173.6,237.2,180,230.9,180,223z
		"/>
	<path d="M180,290.3c0-7.9-6.3-14.2-14.1-14.2h-39.1c-7.8,0-14.2,6.3-14.2,14.2c0,7.8,6.3,14.2,14.2,14.2h39
		C173.6,304.5,180,298.2,180,290.3z"/>
	<path d="M180,358.2c0-7.8-6.3-14.2-14.1-14.2h-39.1c-7.8,0-14.2,6.3-14.2,14.2c0,7.8,6.3,14.2,14.2,14.2h39
		C173.6,372.4,180,366.1,180,358.2z"/>
	<g>
		<path d="M351.9,397.3V416h6.5v-19.4c-1.6,0.5-3.3,0.7-5.1,0.7H351.9z"/>
		<path d="M358.4,115.5V95.2h-6.5v19.5h1.4C355.1,114.8,356.8,115,358.4,115.5z"/>
		<path d="M353.3,114.8h-1.4v282.6h1.4c1.8,0,3.5-0.3,5.1-0.7V115.5C356.8,115,355.1,114.8,353.3,114.8z"/>
	</g>
	<g>
		<circle cx="221.2" cy="154.9" r="6.6"/>
		<circle cx="250.8" cy="154.9" r="6.6"/>
		<circle cx="280.7" cy="154.9" r="6.6"/>
		<ellipse transform="matrix(0.9732 -0.2298 0.2298 0.9732 -27.2848 75.4341)" cx="310.3" cy="154.9" rx="6.6" ry="6.6"/>
		<g>
			<circle cx="221.2" cy="177.4" r="6.6"/>
		</g>
		<g>
			<circle cx="250.8" cy="177.4" r="6.6"/>
		</g>
		<g>
			<circle cx="280.7" cy="177.4" r="6.6"/>
		</g>
		<g>
			<ellipse transform="matrix(0.7071 -0.7071 0.7071 0.7071 -34.5156 271.4189)" cx="310.4" cy="177.4" rx="6.6" ry="6.6"/>
		</g>
		<g>
			<circle cx="221.2" cy="199.9" r="6.6"/>
		</g>
		<g>
			<circle cx="250.8" cy="199.9" r="6.6"/>
		</g>
		<g>
			<circle cx="280.7" cy="199.9" r="6.6"/>
		</g>
		<g>
			<ellipse transform="matrix(0.9871 -0.1602 0.1602 0.9871 -28.0066 52.2972)" cx="310.4" cy="199.9" rx="6.6" ry="6.6"/>
		</g>
		<g>
			<circle cx="221.2" cy="222.3" r="6.6"/>
		</g>
		<g>
			<circle cx="250.8" cy="222.3" r="6.6"/>
		</g>
		<g>
			<circle cx="280.7" cy="222.3" r="6.6"/>
		</g>
		<g>
			<ellipse transform="matrix(0.9732 -0.2298 0.2298 0.9732 -42.7828 77.2577)" cx="310.4" cy="222.3" rx="6.6" ry="6.6"/>
		</g>
	</g>
	<g>
		<circle cx="221.2" cy="290.6" r="6.6"/>
		<circle cx="250.8" cy="290.6" r="6.6"/>
		<circle cx="280.7" cy="290.6" r="6.6"/>
		<ellipse transform="matrix(0.9732 -0.2298 0.2298 0.9732 -58.4738 79.0656)" cx="310.3" cy="290.6" rx="6.6" ry="6.6"/>
		<g>
			<circle cx="221.2" cy="313" r="6.6"/>
		</g>
		<g>
			<circle cx="250.8" cy="313" r="6.6"/>
		</g>
		<g>
			<circle cx="280.7" cy="313" r="6.6"/>
		</g>
		<g>
			<ellipse transform="matrix(0.7071 -0.7071 0.7071 0.7071 -130.5052 311.1791)" cx="310.4" cy="313.1" rx="6.6" ry="6.6"/>
		</g>
		<g>
			<circle cx="221.2" cy="335.6" r="6.6"/>
		</g>
		<g>
			<circle cx="250.8" cy="335.6" r="6.6"/>
		</g>
		<g>
			<circle cx="280.7" cy="335.6" r="6.6"/>
		</g>
		<g>
			<ellipse transform="matrix(0.7071 -0.7071 0.7071 0.7071 -146.4067 317.7657)" cx="310.4" cy="335.6" rx="6.6" ry="6.6"/>
		</g>
		<g>
			<circle cx="221.2" cy="358.1" r="6.6"/>
		</g>
		<g>
			<circle cx="250.8" cy="358.1" r="6.6"/>
		</g>
		<g>
			<circle cx="280.7" cy="358.1" r="6.6"/>
		</g>
		<g>
			<ellipse transform="matrix(0.7071 -0.7071 0.7071 0.7071 -162.2503 324.3283)" cx="310.4" cy="358" rx="6.6" ry="6.6"/>
		</g>
	</g>
</g>
</svg>
