<?xml version="1.0" encoding="utf-8"?>
<!-- Generator: Adobe Illustrator 22.1.0, SVG Export Plug-In . SVG Version: 6.00 Build 0)  -->
<svg version="1.1" id="Capa_1" xmlns="http://www.w3.org/2000/svg" xmlns:xlink="http://www.w3.org/1999/xlink" x="0px" y="0px"
	 viewBox="0 0 512 512" style="enable-background:new 0 0 512 512;" xml:space="preserve">
<style type="text/css">
	.st0{fill:#EBE3F9;}
	.st1{fill:#7061A7;}
	.st2{fill:#E6E7E8;}
	.st3{fill:#BBBDBF;}
	.st4{fill:#EA4559;}
	.st5{fill:#FAD9DD;}
	.st6{fill:#D5E8EC;}
	.st7{fill:#336173;}
</style>
<g>
	<path class="st6" d="M93.5,175.8c0,0,0-21.1,18-32.2L236.6,67c0,0,18-11.1,36.1,0l127.7,78.3c0,0,18,11.1,18,32.2v103.8
		c0,0,0,21.2-15.3,35.9l-132,126.4c0,0-15.3,14.6-30.3-0.3L108.5,312.2c0,0-15-14.9-15-36.1V175.8z"/>
	<path class="st7" d="M255.7,460.5c-7.2,0-15-2.6-22.2-9.7L101.1,319.7c-0.7-0.7-18.2-18.3-18.2-43.6V175.8
		c0-1.1,0.3-27.2,23.1-41.2L231.1,58c1-0.6,23.9-14.3,47.2,0L406,136.2c1,0.6,23.1,14.5,23.1,41.3v103.8c0,1.1-0.2,25.9-18.5,43.5
		l-132,126.5C273.5,456.2,265,460.5,255.7,460.5z M104.1,175.9v100.2c0,16.3,11.8,28.5,11.9,28.6l132.4,131.1
		c6.6,6.5,12.7,2.8,15.7,0.1l131.8-126.3c11.7-11.2,12-28.1,12-28.2V177.5c0-14.8-12.8-23.1-13-23.2L267.2,76
		c-12.2-7.5-24.9-0.1-25,0l-125.1,76.7C104.6,160.3,104.1,175,104.1,175.9z"/>
	<path class="st7" d="M283.7,210.6c0,15.3-12.4,27.7-27.7,27.7c-15.3,0-27.7-12.4-27.7-27.7c0-15.3,12.4-27.7,27.7-27.7
		C271.3,182.9,283.7,195.3,283.7,210.6"/>
	<path class="st7" d="M246.6,223.2L246.6,223.2l-15.1,63.6c-2.1,8.9,4.6,17.5,13.8,17.5h20.7c9.2,0,16-8.6,13.8-17.6l-15.5-63.5
		H246.6z"/>
</g>
</svg>
