<?xml version="1.0" encoding="utf-8"?>
<!-- Generator: Adobe Illustrator 22.1.0, SVG Export Plug-In . SVG Version: 6.00 Build 0)  -->
<svg version="1.1" id="Layer_1" xmlns="http://www.w3.org/2000/svg" xmlns:xlink="http://www.w3.org/1999/xlink" x="0px" y="0px"
	 viewBox="0 0 512 512" style="enable-background:new 0 0 512 512;" xml:space="preserve">
<style type="text/css">
	.st0{fill:#AD7B36;}
	.st1{fill:#B3DEF2;}
	.st2{fill:#7EC6ED;}
	.st3{fill:#323031;}
	.st4{fill:#FBC845;}
</style>
<path class="st0" d="M25.7,347.2v52c0,5.6,1.3,11.1,3.8,16.1l6.7,13.5c5.9,11.9,17.9,19.5,31.1,19.9l18.8,0.5l286.7,0.2
	c10,0,19.5-4.1,26.3-11.4l0,0c6.1-6.5,9.6-15.1,9.7-24l1.4-94.2c0.1-6.7,1.9-13.4,5.7-18.8c3.1-4.4,4.3-9.7-7.3-9.7
	c-20.2,0-40.3,15.6-40.3,15.6L311,345.1c-2.1,1.4-4.4,2.6-6.8,3.5L272.7,361c-10.2,4-21.7,3.1-31.2-2.4l-15.5-9
	c-2.8-1.6-5.3-3.6-7.5-5.8L177.3,302c-6.8-6.9-16-10.7-25.6-10.7h-11.6c-8.8,0-17.3,3.2-23.9,9.1l-24.6,21.8
	c-3.6,3.2-7.9,5.7-12.5,7.2L25.7,347.2"/>
<path class="st1" d="M93.1,124.8l12.7-38.1c0.3-1,0.6-2.1,0.7-3.1l2.2-18.5h36.9c0.7,0,1.4,0,2.1,0.1l298.6,39.8
	c1.7,0.2,3.4,0.8,5,1.5l23.8,11.9c7.8,3.9,11,13.4,7.1,21.3l-11.8,23.6c-0.8,1.7-1.4,3.5-1.6,5.3L449,346.3
	c-0.1,0.6-0.1,1.2-0.1,1.8v23.6c0,8.8-7.1,15.9-15.9,15.9h0c-8.4,0-15.4-6.5-15.8-14.9c-2.3-41.8-8.6-157.7-8.6-166.4v-25.5
	c0-8.3-6.4-15.2-14.7-15.8L127,145.7c-0.4,0-0.8,0-1.1,0h-17.7C97.3,145.7,89.7,135.1,93.1,124.8z"/>
<path class="st2" d="M211.3,145.7H82.5c-10.6,0-20.7,4.2-28.2,11.7l-7.5,7.5c-0.6,0.6-1.2,1.3-1.8,2l-7.5,8.6
	c-6,6.8-9.4,15.5-9.8,24.5l-1.9,43.4v87.3c0,10.6,4.2,20.7,11.7,28.2l8.5,8.5L66,347.2l34.4-34.4c3.9-3.9,8.6-7,13.8-9l14.4-5.6
	c11.4-4.4,24.2-3.4,34.8,2.9l41.1,24.3c1.8,1,3.5,2.2,5,3.5l28.4,23.4c11.2,9.2,26.5,11.6,40,6.3l25.4-10c2.6-1,5-2.3,7.3-3.8
	l54.2-35.7c2.4-1.6,4.9-2.8,7.5-3.9l14-5.4c13.8-5.3,23.4-17.8,25.2-32.5l5.9-49.1c0.5-4.2,0.3-8.5-0.5-12.7l-5.8-28.1
	c-1.6-7.7-5.3-14.7-10.9-20.2l0,0c-7.5-7.5-17.6-11.7-28.2-11.7H211.3z"/>
<path class="st3" d="M467.8,133.7c0,0.1,0,0.2,0,0.2L441,365.4c0.1,6-2.7,11.7-7.4,15.4c-2.3,2.3-7.4,3.4-7.4,4.6v-169
	c0,0,0-32.3-0.5-45.3c-0.4-13-21.5-33.8-47.4-34.3H105.8l5.1-44.5c1.1-5.8,4.1-11,8.6-14.8c5-3.5,11-5.1,17.1-4.6l310.7,35.9
	C459.8,110,469,121.1,467.8,133.7 M403.4,279.9l-124.3,72.4c-10.7,6.3-24.2,5.2-33.6-2.8l-62.7-55.3c-18-15.5-44.3-16.4-63.3-2.3
	l-49.1,35.7c0,0-26.1,19-26.1-13.3V184.1c0-12.5,8.5-24.5,21.1-24.5h313c13.4,0.5,24.2,11.1,24.7,17.8c0,0,0.4,6.7,0.4,26.8V279.9z
	 M403.4,417.3c0,0,0,0,0,6.3c0,6.3-12.5,15.4-25.1,15.4h-313c-11.3,0.3-20.8-8.6-21.1-19.9c0-0.6,0-1.2,0-1.8v-22
	c0,0,0-20.2,16.2-32.1l72.1-53.1c10.6-8.2,25.6-7.4,35.3,1.7l62.1,54.7c9.5,7.9,21.3,12.4,33.7,12.5c9.6,0.1,19.1-2.4,27.4-7.4
	l94.9-54.9c0,0,17.4-10.1,17.4,10.1V417.3z M450.2,86L138.9,50.7c-12.1-1.7-24.3,1.8-33.7,9.7C95.9,67.6,89.9,78.3,88.7,90L83,136.8
	H65.3c-25.1,0-43.9,22.2-43.9,47.3V385c0,0,0,32.3-0.3,44.2c-0.3,12,18.6,31.9,42.5,32.5c0.6,0,1.1,0,1.7,0h313
	c25.1,0,47.9-19.4,47.9-44.5v-4.6c0,0,0-4.6,3.9-5.3c3.9-0.8,11.3-3.9,17.8-8.4c9.2-7.8,15.2-18.8,16.5-30.8l26.2-231.5
	C493.3,111.6,475.3,89,450.2,86"/>
<path class="st3" d="M259.2,268.5c-13.9,0-25.1-11.2-25.1-25.1c0-13.8,11.2-25.1,25.1-25.1c13.9,0,25.1,11.2,25.1,25.1
	C284.2,257.2,273,268.5,259.2,268.5"/>
<path class="st3" d="M259.2,195.5c-26.4,0-47.9,21.4-47.9,47.9c0,26.4,21.4,47.9,47.9,47.9c26.4,0,47.9-21.4,47.9-47.9
	C307.1,216.9,285.6,195.5,259.2,195.5"/>
<path class="st4" d="M259.2,271.1c15.3,0,27.7-12.4,27.7-27.7c0-15.3-12.4-27.7-27.7-27.7s-27.7,12.4-27.7,27.7
	C231.5,258.7,243.9,271.1,259.2,271.1"/>
</svg>
