<?xml version="1.0" encoding="utf-8"?>
<!-- Generator: Adobe Illustrator 22.1.0, SVG Export Plug-In . SVG Version: 6.00 Build 0)  -->
<svg version="1.1" id="Layer_1" xmlns="http://www.w3.org/2000/svg" xmlns:xlink="http://www.w3.org/1999/xlink" x="0px" y="0px"
	 viewBox="0 0 512 512" style="enable-background:new 0 0 512 512;" xml:space="preserve">
<path d="M256,61C148.3,61,61,148.3,61,256s87.3,195,195,195s195-87.3,195-195S363.7,61,256,61z M390.5,184.3l-170,169.9
	c-2.3,2.4-6.1,2.4-8.4,0l-90.7-90.7c-5.3-5.3-5.3-14,0-19.3l5-5c5.3-5.3,14-5.3,19.3,0l66.5,56.1c2.5,2.1,6.2,2,8.7-0.2L366.2,160
	c5.3-5.3,14-5.3,19.3,0l5,5C395.9,170.3,395.9,179,390.5,184.3z"/>
</svg>
