<?xml version="1.0" encoding="utf-8"?>
<!-- Generator: Adobe Illustrator 22.1.0, SVG Export Plug-In . SVG Version: 6.00 Build 0)  -->
<svg version="1.1" id="Layer_1" xmlns="http://www.w3.org/2000/svg" xmlns:xlink="http://www.w3.org/1999/xlink" x="0px" y="0px"
	 viewBox="0 0 512 512" style="enable-background:new 0 0 512 512;" xml:space="preserve">
<style type="text/css">
	.st0{fill:#808080;}
	.st1{fill:#FBC891;}
	.st2{fill:#323031;}
	.st3{opacity:0.3;}
</style>
<g>
	<path class="st0" d="M255,269.8c-116.3,0-210.7,94.3-210.7,210.7h421.3C465.6,364.1,371.3,269.8,255,269.8"/>
</g>
<g>
	<path class="st1" d="M255,254.2c61.6,0,111.5-49.9,111.5-111.5c0-61.6-49.9-111.5-111.5-111.5S143.5,81.2,143.5,142.7
		C143.5,204.3,193.4,254.2,255,254.2"/>
</g>
<g>
	<path class="st2" d="M255,267.6c-68.8,0-124.8-56-124.8-124.8c0-68.8,56-124.8,124.8-124.8c68.8,0,124.8,56,124.8,124.8
		C379.8,211.6,323.8,267.6,255,267.6z M255,44.6c-54.1,0-98.1,44-98.1,98.1c0,54.1,44,98.1,98.1,98.1c54.1,0,98.1-44,98.1-98.1
		C353.1,88.7,309.1,44.6,255,44.6z"/>
</g>
<g class="st3">
	<polygon points="255,273.2 255,484.9 56.8,484.9 56.8,436 78.2,380.4 99.5,329.1 143.5,307.7 185.1,286.3 	"/>
</g>
<g>
	<path class="st2" d="M479,493.8H30.9v-13.4c0-123.5,100.5-224,224-224s224,100.5,224,224V493.8z M58.1,467.1h393.7
		c-6.9-102.6-92.6-183.9-196.9-183.9S65,364.5,58.1,467.1z"/>
</g>
</svg>
