<?xml version="1.0" encoding="utf-8"?>
<!-- Generator: Adobe Illustrator 22.1.0, SVG Export Plug-In . SVG Version: 6.00 Build 0)  -->
<svg version="1.1" id="Layer_1" xmlns="http://www.w3.org/2000/svg" xmlns:xlink="http://www.w3.org/1999/xlink" x="0px" y="0px"
	 viewBox="0 0 512 512" style="enable-background:new 0 0 512 512;" xml:space="preserve">
<style type="text/css">
	.st0{fill:#FFE78B;}
	.st1{fill:#FFF9B4;}
	.st2{fill:#D0D2D3;}
	.st3{fill:#EAEBEC;}
</style>
<g>
	<path class="st0" d="M293,205.5c0-31.4,11.7-60,30.9-81.8c-50.2,19.8-85.8,68.7-85.8,126c0,74.7,60.6,135.3,135.3,135.3
		c58.1,0,107.7-36.7,126.9-88.2c-22,20.2-51.3,32.5-83.6,32.5C348.5,329.3,293,273.8,293,205.5"/>
	<path class="st1" d="M321.1,302.5c-48.5-48.5-48.5-127.1,0-175.6c0.6-0.6,1.2-1.2,1.8-1.8c-16.4,6.6-31.7,16.5-45,29.8
		c-52.7,52.7-52.7,138.1,0,190.8c52.7,52.7,138.1,52.7,190.8,0c13.3-13.3,23.2-28.6,29.8-45c-0.6,0.6-1.2,1.2-1.8,1.8
		C448.2,351,369.6,351,321.1,302.5"/>
	<path class="st1" d="M415.6,217.8c-0.4-15.5-16.9-30.9-32.7-30.5c15.8-0.4,31.5-16.6,31.1-32.2c0.4,15.6,16.9,30.9,32.7,30.5
		C430.8,186,415.2,202.2,415.6,217.8"/>
	<path class="st1" d="M428,268c-0.2-6.4-6.8-12.7-13.2-12.6c6.4-0.2,12.7-6.8,12.6-13.2c0.2,6.4,6.8,12.7,13.2,12.6
		C434.2,255,427.8,261.6,428,268"/>
	<path class="st1" d="M376.6,245.5c-0.2-6.8-7.2-13.5-14-13.3c6.8-0.2,13.4-7.2,13.3-14c0.2,6.8,7.2,13.5,14,13.3
		C383.1,231.7,376.4,238.7,376.6,245.5"/>
	<path class="st2" d="M306.8,273c-4.3,0-8.5,0.4-12.7,1.2c-3.1-14.6-7.1-30.8-21.4-37.6c-14.3-6.7-31.1-7-45.6-0.8
		c-13.2-33.7-55.7-55-92-42.8c-36.2,12.2-45,39.8-48.3,75.6C55.1,269.6,39,305.5,39.4,335c0.5,29.5,26.3,53.2,58.1,53.3H313
		c35.4,0,64-26.7,64-59.5C377,295.9,342.1,273,306.8,273"/>
	<path class="st3" d="M261.3,281c-4,0-7.9,0.4-11.8,1.1c-2.9-13.6-6.7-28.7-20-35c-13.3-6.3-29-6.5-42.6-0.7
		c-12.3-31.4-52-51.2-85.9-39.8c-33.8,11.4-42,37-45.1,70.4c-29.7,0.9-44.7,34.3-44.2,61.8c0.4,27.5,24.6,49.6,54.3,49.6h201.2
		c33,0,59.8-24.8,59.8-55.4C326.9,302.3,294.3,281,261.3,281"/>
</g>
<g>
</g>
<g>
</g>
<g>
</g>
<g>
</g>
<g>
</g>
<g>
</g>
<g>
</g>
<g>
</g>
<g>
</g>
<g>
</g>
<g>
</g>
</svg>
