<?xml version="1.0" encoding="utf-8"?>
<!-- Generator: Adobe Illustrator 19.0.0, SVG Export Plug-In . SVG Version: 6.00 Build 0)  -->
<svg version="1.1" id="Capa_1" xmlns="http://www.w3.org/2000/svg" xmlns:xlink="http://www.w3.org/1999/xlink" x="0px" y="0px"
	 viewBox="-275 367 60 60" enable-background="new -275 367 60 60" xml:space="preserve">
<g>
	<g>
		<path fill="#929497" d="M-258,421.5c-5.5,0-10-4.5-10-10c0-5.5,4.5-10,10-10c5.5,0,10,4.5,10,10C-248,417.1-252.5,421.5-258,421.5z"/>
		<g>
			<path fill="#929497" d="M-248,411.6h-5.1v-36.2c0-1.4,0.9-2.5,2.2-2.9c1.3-0.3,2.5,0.2,3.2,1.3l9.6,13.9c0.5,0.9,0.5,2,0,2.9
				c-0.5,0.9-1.5,1.4-2.5,1.5l-7.5,0.1V411.6z M-248,382.2v4.9l3.4,0L-248,382.2z"/>
		</g>
	</g>
	<g>
		<path fill="#929497" d="M-236.8,409.6c-4,0-7.2-3.2-7.2-7.2c0-4,3.2-7.2,7.2-7.2s7.2,3.2,7.2,7.2C-229.6,406.4-232.8,409.6-236.8,409.6z"/>
		<g>
			<path fill="#929497" d="M-229.6,402.4h-3.7v-26.2c0-1,0.7-1.8,1.6-2.1c0.9-0.2,1.8,0.1,2.3,0.9l7,10.1c0.4,0.7,0.3,1.5,0,2.1
				c-0.4,0.7-1.1,1-1.8,1.1l-5.4,0.1V402.4z M-229.6,381.1v3.6l2.5,0L-229.6,381.1z"/>
		</g>
	</g>
</g>
</svg>
