<?xml version="1.0" encoding="utf-8"?>
<!-- Generator: Adobe Illustrator 22.1.0, SVG Export Plug-In . SVG Version: 6.00 Build 0)  -->
<svg version="1.1" id="Layer_1" xmlns="http://www.w3.org/2000/svg" xmlns:xlink="http://www.w3.org/1999/xlink" x="0px" y="0px"
	 viewBox="0 0 512 512" style="enable-background:new 0 0 512 512;" xml:space="preserve">
<style type="text/css">
	.st0{fill:#EFB6B6;}
	.st1{fill:#EE6A7A;}
	.st2{fill:#D6B21A;}
	.st3{fill:#EFDC8E;}
	.st4{fill:#784ACE;}
	.st5{fill:#9F7AE5;}
	.st6{fill:#2F9640;}
	.st7{fill:#6DE294;}
</style>
<path class="st4" d="M254.7,229.8c-23.8,0-46.5-12.3-64-34.6c-15.5-19.8-24.4-44.5-24.4-67.8c0-48.7,39.6-88.4,88.4-88.4
	c48.7,0,88.4,39.6,88.4,88.4c0,23.3-8.9,48-24.4,67.8C301.2,217.5,278.5,229.8,254.7,229.8z"/>
<path class="st5" d="M254.7,75.8c-28.4,0-51.5,23.1-51.5,51.5c0,28.9,24.3,65.6,51.5,65.6c27.3,0,51.5-36.7,51.5-65.6
	C306.3,98.9,283.1,75.8,254.7,75.8z"/>
<path class="st4" d="M388,452H121.4c-16.8,0-32.3-7.6-42.5-20.9c-10.2-13.2-13.6-30.1-9.4-46.2c22.1-84.1,98.2-142.8,185.3-142.8
	S417.9,300.8,440,384.9c4.2,16.1,0.8,33-9.4,46.2C420.3,444.4,404.8,452,388,452z"/>
<path class="st5" d="M254.7,278.9c-70.3,0-131.8,47.4-149.6,115.3c-1.3,5-0.2,10.2,2.9,14.4c3.2,4.2,8.1,6.6,13.4,6.6H388
	c5.3,0,10.2-2.4,13.4-6.6c3.2-4.1,4.3-9.4,2.9-14.4C386.5,326.3,325,278.9,254.7,278.9z"/>
</svg>
