<?xml version="1.0" encoding="utf-8"?>
<!-- Generator: Adobe Illustrator 19.0.0, SVG Export Plug-In . SVG Version: 6.00 Build 0)  -->
<svg version="1.1" id="Capa_1" xmlns="http://www.w3.org/2000/svg" xmlns:xlink="http://www.w3.org/1999/xlink" x="0px" y="0px"
	 viewBox="-96.6 0.6 512 512" enable-background="new -96.6 0.6 512 512" xml:space="preserve">
<g>
	<g>
		<path fill="#4F5261" d="M176.8,465.7h-35c-17.3,0-31.9-12.4-34.7-29.4l-3.6-21.5c-5.4-1.9-10.7-4.1-15.8-6.5l-18.1,12.9
			c-13.3,9.6-33.2,8.1-45.2-3.8l-24.7-24.7c-12.2-12.1-13.9-31.2-3.8-45.3l12.6-17.5c-2.6-5.4-5-10.9-7-16.6l-21.9-3.7
			c-17-2.8-29.4-17.4-29.4-34.7V240c0-17.3,12.4-31.9,29.4-34.7l21.1-3.6c2-5.7,4.2-11.3,6.8-16.7l-12.9-18.1
			c-10-14.1-8.4-33.1,3.8-45.3l24.8-24.7C34.9,85,55.1,83.3,68.6,93.1l17.5,12.6c5.4-2.6,11-5,16.6-7l3.7-21.9
			c2.9-17,17.5-29.4,34.7-29.4h34.9c17.3,0,31.9,12.4,34.7,29.4l3.6,21.1c5.9,2.1,11.8,4.5,17.6,7.3l17.8-12.7
			c13.5-9.7,33.4-8.1,45.2,3.8l24.7,24.7c12.2,12.1,13.9,31.2,3.8,45.3l-12.6,17.7c2.6,5.4,4.9,10.9,6.9,16.6l21.5,3.7
			c15.5,2.6,29.4,16.4,29.3,28.9c-0.1,5.9-0.1,23.3-0.1,23.3v17.5c0,17.3-12.4,31.9-29.4,34.7l-21.5,3.6c-1.9,5.5-4.2,11.1-6.9,16.6
			l12.7,17.8c10,14,8.4,33.1-3.8,45.3l-24.7,24.7c-12,12-31.9,13.5-45.4,3.8l-17.7-12.6c-5.4,2.6-10.9,4.9-16.6,6.9l-3.6,21.5
			C208.6,453.3,194,465.7,176.8,465.7z M85.9,383.4l5.8,3c7.6,4,15.9,7.4,24.4,10l6.3,2l5.7,34.4c1.1,6.7,6.9,11.6,13.7,11.6h35
			c6.8,0,12.6-4.9,13.7-11.6l5.8-34.4l6.3-1.9c8.7-2.7,17.2-6.2,25.2-10.4l5.8-3.1l28.3,20.3c5.3,3.8,13.1,3.2,17.8-1.5l24.7-24.7
			c4.8-4.8,5.4-12.3,1.5-17.9l-20.2-28.4l3-5.8c4.4-8.4,7.9-16.9,10.4-25.2l1.9-6.3l34.4-5.8c6.7-1.1,11.6-6.9,11.6-13.7v-17.5
			c0,0,0-17.5,0.1-23.6c-0.5-1.3-5.1-6.5-11.5-7.6h0l-34.3-5.8l-1.9-6.3c-2.7-8.7-6.2-17.2-10.4-25.2l-3.1-5.8l20.2-28.3
			c4-5.5,3.3-13-1.5-17.8L280,111.5c-4.7-4.7-12.4-5.3-17.7-1.5l-28.4,20.3l-5.8-3.1c-8.5-4.5-17.3-8.1-26.1-10.7l-6.3-1.9l-5.8-34
			c-1.1-6.7-6.9-11.6-13.7-11.6h-34.9c-6.8,0-12.6,4.9-13.7,11.6l-5.9,34.7l-6.3,1.9c-8.5,2.7-17,6.2-25.1,10.6l-5.9,3.2l-28.2-20.3
			c-5.3-3.8-13.2-3.2-17.7,1.5l-24.9,24.8c-4.8,4.8-5.4,12.3-1.5,17.8l20.4,28.6l-3,5.8c-4.2,8-7.6,16.5-10.3,25.2l-1.9,6.3l-34,5.8
			c-6.7,1.1-11.6,6.9-11.6,13.7v34.9c0,6.8,4.9,12.6,11.6,13.7l34.7,5.9l1.9,6.3c2.7,8.6,6.2,17,10.6,25.1l3.2,5.9l-20.2,28.1
			c-3.9,5.5-3.3,13,1.5,17.8l24.7,24.8c4.8,4.8,12.4,5.4,17.7,1.6L85.9,383.4z M159.4,352.9c-53.1,0-96.3-43.2-96.3-96.3
			s43.2-96.3,96.3-96.3s96.3,43.2,96.3,96.3S212.5,352.9,159.4,352.9z M159.4,181.6c-41.4,0-75,33.6-75,75c0,41.3,33.6,75,75,75
			c41.3,0,75-33.6,75-75C234.4,215.2,200.7,181.6,159.4,181.6z"/>
	</g>
	<g>
		<path fill="#4F5261" d="M159.4,209.6c-24,0-43.5,21.1-43.5,47c0,25.9,19.5,47,43.5,47s43.5-21.1,43.5-47
			C202.9,230.7,183.4,209.6,159.4,209.6"/>
	</g>
</g>
</svg>
