<?xml version="1.0" encoding="utf-8"?>
<!-- Generator: Adobe Illustrator 22.1.0, SVG Export Plug-In . SVG Version: 6.00 Build 0)  -->
<svg version="1.1" id="Layer_1" xmlns="http://www.w3.org/2000/svg" xmlns:xlink="http://www.w3.org/1999/xlink" x="0px" y="0px"
	 viewBox="0 0 512 512" style="enable-background:new 0 0 512 512;" xml:space="preserve">
<style type="text/css">
	.st0{clip-path:url(#SVGID_2_);}
	.st1{fill:#BBBBD8;}
	.st2{fill:#4F5B9D;}
	.st3{fill:#999999;stroke:#4D4D4D;stroke-width:27;stroke-miterlimit:10;}
	.st4{fill:#808080;}
	.st5{fill:none;stroke:#F2F2F2;stroke-width:20;stroke-miterlimit:10;}
</style>
<g>
	<g>
		<defs>
			<rect id="SVGID_1_" x="71.6" y="45" width="368.7" height="422"/>
		</defs>
		<clipPath id="SVGID_2_">
			<use xlink:href="#SVGID_1_"  style="overflow:visible;"/>
		</clipPath>
		<g class="st0">
			<path class="st1" d="M180.4,59.7c0,0-94,0-94,94v204.6c0,0,0,94,94,94h151.3c0,0,94,0,94-94V153.7c0,0,0-94-94-94H180.4z"/>
		</g>
		<g class="st0">
			<path class="st2" d="M331.6,467H180.4c-86,0-108.7-71.1-108.7-108.7V153.7c0-86,71.1-108.7,108.7-108.7h151.3
				c86,0,108.7,71.1,108.7,108.7v204.6C440.4,444.3,369.2,467,331.6,467z M180.4,74.4c-8.3,0.1-79.4,2.9-79.4,79.3v204.6
				c0.1,8.1,2.8,79.3,79.3,79.3h151.3c8.1-0.1,79.3-2.8,79.3-79.3V153.7c-0.1-8.1-2.8-79.3-79.3-79.3H180.4z"/>
		</g>
	</g>
	<g>
		<rect x="150.2" y="142.9" class="st2" width="211.5" height="23.5"/>
	</g>
	<g>
		<rect x="150.2" y="202" class="st2" width="211.5" height="23.5"/>
	</g>
	<g>
		<rect x="150.2" y="261.2" class="st2" width="211.5" height="23.5"/>
	</g>
	<g>
		<rect x="150.2" y="320.3" class="st2" width="211.5" height="23.5"/>
	</g>
</g>
</svg>
