<?xml version="1.0" encoding="utf-8"?>
<!-- Generator: Adobe Illustrator 22.1.0, SVG Export Plug-In . SVG Version: 6.00 Build 0)  -->
<svg version="1.1" id="Layer_1" xmlns="http://www.w3.org/2000/svg" xmlns:xlink="http://www.w3.org/1999/xlink" x="0px" y="0px"
	 viewBox="0 0 512 512" style="enable-background:new 0 0 512 512;" xml:space="preserve">
<g>
	<g>
		<path d="M396.9,457H115.1C82,457,55,430,55,396.9V115.1C55,82,82,55,115.1,55h281.8C430,55,457,82,457,115.1v281.8
			C457,430,430,457,396.9,457z M115.1,83C97.4,83,83,97.4,83,115.1v281.8c0,17.7,14.4,32.1,32.1,32.1h281.8
			c17.7,0,32.1-14.4,32.1-32.1V115.1c0-17.7-14.4-32.1-32.1-32.1H115.1z"/>
	</g>
	<g>
		<g>
			<rect x="108" y="106.3" width="36.9" height="19"/>
		</g>
		<g>
			<rect x="211.6" y="106.3" width="36.9" height="19"/>
		</g>
		<g>
			<rect x="159.8" y="106.3" width="36.9" height="19"/>
		</g>
		<g>
			<rect x="263.5" y="106.3" width="36.9" height="19"/>
		</g>
		<g>
			<rect x="315.3" y="106.3" width="36.9" height="19"/>
		</g>
		<g>
			<rect x="367.1" y="106.3" width="36.9" height="19"/>
		</g>
	</g>
	<g>
		<g>
			<rect x="108" y="385.3" width="36.9" height="19"/>
		</g>
		<g>
			<rect x="211.6" y="385.3" width="36.9" height="19"/>
		</g>
		<g>
			<rect x="159.8" y="385.3" width="36.9" height="19"/>
		</g>
		<g>
			<rect x="263.5" y="385.3" width="36.9" height="19"/>
		</g>
		<g>
			<rect x="315.3" y="385.3" width="36.9" height="19"/>
		</g>
		<g>
			<rect x="367.1" y="385.3" width="36.9" height="19"/>
		</g>
	</g>
	<g>
		<polygon points="193.3,256 193.3,166.2 271,211.1 348.8,256 271,300.9 193.3,345.8 		"/>
	</g>
</g>
</svg>
