<?xml version="1.0" encoding="utf-8"?>
<!-- Generator: Adobe Illustrator 19.0.0, SVG Export Plug-In . SVG Version: 6.00 Build 0)  -->
<svg version="1.1" id="Layer_1" xmlns="http://www.w3.org/2000/svg" xmlns:xlink="http://www.w3.org/1999/xlink" x="0px" y="0px"
	 viewBox="0 0 512 512" enable-background="new 0 0 512 512" xml:space="preserve">
<g id="XMLID_1_">
	<path id="XMLID_3_" fill="#6D6E70" d="M120.3,92.5c0,0-27.8,0-27.8,27.8v271.3c0,0,0,27.8,27.8,27.8h271.3c0,0,27.8,0,27.8-27.8
		V120.3c0,0,0-27.8-27.8-27.8H120.3z"/>
	<path id="XMLID_2_" fill="#FFFFFF" d="M374,231.1l-65,65c-2.3,2.3-5.1,3.5-8.3,3.5c-1.5,0-3-0.3-4.4-0.9c-4.9-2.1-7.4-5.7-7.4-10.9
		v-29.6c-17.3,0-31,1.4-41.4,4.3c-10.3,2.9-18.3,7.5-24,13.9c-13.1,14.7-16.9,43.8-11.5,87.4c0.4,3-0.8,5-3.5,6.1
		c-0.7,0.4-1.5,0.5-2.4,0.5c-1.8,0-3.4-0.7-4.6-2.2c-20.6-27.5-30.9-52.3-30.9-74.6c0-7.4,0.3-14.2,0.9-20.4
		c0.6-6.2,1.9-13.1,4-20.6c2-7.5,4.8-14.2,8.2-20.1c3.5-5.9,8.2-11.8,14.1-17.6c6-5.8,13-10.7,21-14.6c8.1-3.9,18.1-7,30-9.4
		c11.9-2.4,25.2-3.6,39.9-3.6v-29.5c0-5.2,2.5-8.8,7.4-10.9c4.8-2.1,9.1-1.2,12.8,2.6l65,65c2.3,2.3,3.5,5.1,3.5,8.3
		C377.6,226,376.4,228.8,374,231.1"/>
</g>
</svg>
