<?xml version="1.0" encoding="utf-8"?>
<!-- Generator: Adobe Illustrator 19.0.0, SVG Export Plug-In . SVG Version: 6.00 Build 0)  -->
<svg version="1.1" id="Layer_1" xmlns="http://www.w3.org/2000/svg" xmlns:xlink="http://www.w3.org/1999/xlink" x="0px" y="0px"
	 viewBox="0 0 512 512" enable-background="new 0 0 512 512" xml:space="preserve">
<g id="XMLID_1_">
	<path id="XMLID_16_" d="M211.5,273c0-4.1-3.3-7.4-7.4-7.4h-26c-4.1,0-7.4,3.3-7.4,7.4v26c0,4.1,3.3,7.4,7.4,7.4h26
		c4.1,0,7.4-3.3,7.4-7.4V273z"/>
	<path id="XMLID_15_" d="M276.4,273c0-4.1-3.3-7.4-7.4-7.4h-26c-4.1,0-7.4,3.3-7.4,7.4v26c0,4.1,3.3,7.4,7.4,7.4h26
		c4.1,0,7.4-3.3,7.4-7.4V273z"/>
	<path id="XMLID_14_" d="M341.4,273c0-4.1-3.3-7.4-7.4-7.4h-26c-4.1,0-7.5,3.3-7.5,7.4v26c0,4.1,3.3,7.4,7.5,7.4h26
		c4.1,0,7.4-3.3,7.4-7.4V273z"/>
	<path id="XMLID_13_" d="M211.5,338c0-4.1-3.3-7.4-7.4-7.4h-26c-4.1,0-7.4,3.3-7.4,7.4v26c0,4.1,3.3,7.4,7.4,7.4h26
		c4.1,0,7.4-3.3,7.4-7.4V338z"/>
	<path id="XMLID_12_" d="M276.4,338c0-4.1-3.3-7.4-7.4-7.4h-26c-4.1,0-7.4,3.3-7.4,7.4v26c0,4.1,3.3,7.4,7.4,7.4h26
		c4.1,0,7.4-3.3,7.4-7.4V338z"/>
	<path id="XMLID_11_" d="M341.4,338c0-4.1-3.3-7.4-7.4-7.4h-26c-4.1,0-7.5,3.3-7.5,7.4v26c0,4.1,3.3,7.4,7.5,7.4h26
		c4.1,0,7.4-3.3,7.4-7.4V338z"/>
	<path d="M378.4,376c0,7-5.7,12.7-12.7,12.7H145.8c-7,0-12.7-5.7-12.7-12.7V255.8c0-7,5.7-12.7,12.7-12.7h219.9
		c7,0,12.7,5.7,12.7,12.7V376z M387.9,128.4v39.7c0,18-14.6,32.4-32.5,32.4h-20.5c-17.9,0-32.7-14.5-32.7-32.4v-39.8h-92.4v39.8
		c0,18-14.7,32.4-32.7,32.4h-20.5c-17.9,0-32.5-14.5-32.5-32.4v-39.7c-15.7,0.5-28.6,13.4-28.6,29.4v232.7
		c0,16.2,13.2,29.6,29.4,29.6h262.1c16.2,0,29.4-13.4,29.4-29.6V157.8C416.5,141.9,403.6,128.9,387.9,128.4"/>
	<path id="XMLID_3_" d="M156.5,179.3h20.3c6.2,0,11.2-5,11.2-11.1V103c0-6.2-5-11.1-11.2-11.1h-20.3c-6.2,0-11.1,5-11.1,11.1v65.1
		C145.4,174.3,150.4,179.3,156.5,179.3"/>
	<path id="XMLID_2_" d="M334.6,179.3h20.3c6.2,0,11.2-5,11.2-11.1V103c0-6.2-5-11.1-11.2-11.1h-20.3c-6.2,0-11.1,5-11.1,11.1v65.1
		C323.5,174.3,328.5,179.3,334.6,179.3"/>
</g>
</svg>
