<?xml version="1.0" encoding="utf-8"?>
<!-- Generator: Adobe Illustrator 22.1.0, SVG Export Plug-In . SVG Version: 6.00 Build 0)  -->
<svg version="1.1" id="Layer_1" xmlns="http://www.w3.org/2000/svg" xmlns:xlink="http://www.w3.org/1999/xlink" x="0px" y="0px"
	 viewBox="0 0 479 479" style="enable-background:new 0 0 479 479;" xml:space="preserve">
<style type="text/css">
	.st0{fill:#7061A8;}
</style>
<g>
	<g>
		<path class="st0" d="M130.6,366.9l20.1,48.9l60.4-104.7l-73.6-40.1L78.2,374L130.6,366.9z M150.1,426.3L127.7,372l-58.2,7.8
			l66.3-114.9l81.7,44.5L150.1,426.3z"/>
	</g>
	<g>
		<path class="st0" d="M267.8,311.2l60.4,104.7l20.1-48.9l52.4,7l-59.4-102.9L267.8,311.2z M328.9,426.3l-67.5-116.9l81.7-44.5
			l66.3,114.9l-58.2-7.8L328.9,426.3z"/>
	</g>
	<g>
		<path class="st0" d="M143.7,361.4l10.8,26.3l45.1-78.2c-20.2-5.5-38.9-16.1-54.1-30.7l-44.8,77.9l28.5-3.8l10.8-17.6
			c2.4-3.9,7.6-5.2,11.5-2.8c1.9,1.2,3.2,3,3.8,5.2c0.5,2.2,0.2,4.4-1,6.3L143.7,361.4z M154,394.6l-13.8-33.5l11.4-18.7
			c0.7-1.2,1-2.6,0.6-4c-0.3-1.4-1.2-2.5-2.4-3.3c-2.5-1.5-5.7-0.7-7.3,1.7l-11.5,18.8L95,360.6l49.9-86.7l1.4,1.4
			c15.6,15.4,35,26.4,56.1,31.8l2,0.5L154,394.6z"/>
	</g>
	<g>
		<path class="st0" d="M279.4,309.5l45.1,78.2l10.8-26.3L324.7,344c-1.2-1.9-1.5-4.1-1-6.3c0.5-2.2,1.9-4,3.8-5.2
			c1.9-1.2,4.1-1.5,6.3-1c2.2,0.5,4,1.9,5.2,3.8l10.8,17.6l28.5,3.8l-44.8-77.9C318.2,293.5,299.6,304,279.4,309.5 M325,394.6
			l-50.3-87.1l2-0.5c21.1-5.4,40.5-16.4,56.1-31.8l1.4-1.4l49.9,86.7l-36.1-4.8l-11.5-18.8c-0.7-1.2-1.9-2.1-3.3-2.4
			c-1.4-0.3-2.8-0.1-4,0.6c-1.2,0.7-2.1,1.9-2.4,3.3c-0.3,1.4-0.1,2.8,0.6,4l11.4,18.7L325,394.6z"/>
	</g>
	<g>
		<path class="st0" d="M239.5,58.1c-71.2,0-129.2,57.9-129.2,129.2c0,71.2,57.9,129.2,129.2,129.2s129.2-57.9,129.2-129.2
			C368.7,116,310.7,58.1,239.5,58.1 M239.5,321.8c-74.2,0-134.5-60.3-134.5-134.5c0-74.2,60.3-134.5,134.5-134.5
			S374,113.1,374,187.3C374,261.4,313.7,321.8,239.5,321.8"/>
	</g>
	<g>
		<path class="st0" d="M239.5,98c-49.2,0-89.3,40.1-89.3,89.3s40.1,89.3,89.3,89.3s89.3-40.1,89.3-89.3S288.7,98,239.5,98
			 M239.5,281.9c-52.2,0-94.7-42.5-94.7-94.7c0-52.2,42.5-94.7,94.7-94.7s94.7,42.5,94.7,94.7C334.2,239.5,291.7,281.9,239.5,281.9"
			/>
	</g>
	<g>
		<polygon class="st0" points="239.5,134.2 256.2,168 293.5,173.4 266.5,199.8 272.9,236.9 239.5,219.4 206.1,236.9 212.5,199.8 
			185.5,173.4 222.8,168 		"/>
	</g>
</g>
</svg>
