<?xml version="1.0" encoding="utf-8"?>
<!-- Generator: Adobe Illustrator 22.1.0, SVG Export Plug-In . SVG Version: 6.00 Build 0)  -->
<svg version="1.1" id="Layer_1" xmlns="http://www.w3.org/2000/svg" xmlns:xlink="http://www.w3.org/1999/xlink" x="0px" y="0px"
	 viewBox="0 0 479 479" style="enable-background:new 0 0 479 479;" xml:space="preserve">
<style type="text/css">
	.st0{fill:#FFFFFF;}
</style>
<g>
	<g>
		<path class="st0" d="M182.2,123.1l57.3,25.5l57.3-25.5V47.6H182.2V123.1z M239.5,155l-63.2-28.1V41.7h126.4v85.2L239.5,155z"/>
	</g>
	<g>
		<path class="st0" d="M239.5,148.1c-9.5,0-17.2,7.7-17.2,17.2s7.7,17.2,17.2,17.2s17.2-7.7,17.2-17.2S249,148.1,239.5,148.1
			 M239.5,188.2c-12.7,0-23-10.3-23-23s10.3-23,23-23s23,10.3,23,23S252.2,188.2,239.5,188.2"/>
	</g>
	<g>
		<path class="st0" d="M148.7,390h51.9l39,39l39-39h51.9v-51.9l39-39l-39-39v-51.9h-51.9l-34.5-34.6c-2.8,1.4-6.1,1.4-8.8,0
			l-34.6,34.6h-51.9v51.9l-39,39l39,39V390H148.7z M239.5,437.3l-41.4-41.4h-55.3v-55.3l-41.4-41.4l41.4-41.4v-55.3h55.3l36.7-36.7
			l2.1,2.1c1.5,1.5,3.9,1.5,5.3,0l2.1-2.1l36.7,36.7h55.3v55.3l41.4,41.4l-41.4,41.4v55.3H281L239.5,437.3z"/>
	</g>
	<g>
		<path class="st0" d="M269.2,47.6v87.8l7.5-3.3V47.6H269.2z M263.4,144.4V41.7h19.3v94.2L263.4,144.4z"/>
	</g>
	<g>
		<path class="st0" d="M202.2,132l7.5,3.3V47.6h-7.5V132z M215.6,144.4l-19.3-8.6V41.7h19.3V144.4z"/>
	</g>
	<g>
		<path class="st0" d="M239.5,235.1c-35.3,0-64,28.7-64,64s28.7,64,64,64s64-28.7,64-64S274.8,235.1,239.5,235.1 M239.5,369.1
			c-38.6,0-69.9-31.4-69.9-69.9s31.4-69.9,69.9-69.9s69.9,31.4,69.9,69.9S278.1,369.1,239.5,369.1"/>
	</g>
	<g>
		<polygon class="st0" points="239.5,263.6 251.1,287 276.9,290.8 258.2,309 262.6,334.7 239.5,322.6 216.4,334.8 220.8,309 
			202.1,290.8 227.9,287 		"/>
	</g>
</g>
</svg>
