<?xml version="1.0" encoding="utf-8"?>
<!-- Generator: Adobe Illustrator 22.1.0, SVG Export Plug-In . SVG Version: 6.00 Build 0)  -->
<svg version="1.1" id="Layer_1" xmlns="http://www.w3.org/2000/svg" xmlns:xlink="http://www.w3.org/1999/xlink" x="0px" y="0px"
	 viewBox="0 0 512 512" style="enable-background:new 0 0 512 512;" xml:space="preserve">
<style type="text/css">
	.st0{clip-path:url(#SVGID_2_);}
	.st1{fill:#EE6172;}
	.st2{clip-path:url(#SVGID_4_);}
</style>
<g>
	<defs>
		<rect id="SVGID_1_" x="84.4" y="44.7" width="343.1" height="422.5"/>
	</defs>
	<clipPath id="SVGID_2_">
		<use xlink:href="#SVGID_1_"  style="overflow:visible;"/>
	</clipPath>
	<g class="st0">
		<path class="st1" d="M337.6,93.9H174.4V44.7h163.2V93.9z M190.2,78.1h131.5V60.6H190.2V78.1z"/>
	</g>
	<g class="st0">
		<path class="st1" d="M345.3,467.3H166.9l-64.6-339.1l307.3,1.7L345.3,467.3z M193.1,435.6h126l52.3-274.3l-230.7-1.3L193.1,435.6z
			"/>
	</g>
</g>
<g>
	<polygon class="st1" points="199.8,410.5 155.2,171.4 178.6,167 223.2,406.1 	"/>
</g>
<g>
	<polygon class="st1" points="313.5,410.5 290.2,406.1 334.8,167 358.1,171.4 	"/>
</g>
<g>
	<rect x="244.1" y="168.7" class="st1" width="23.8" height="240.1"/>
</g>
<g>
	<defs>
		<rect id="SVGID_3_" x="84.4" y="44.7" width="343.1" height="422.5"/>
	</defs>
	<clipPath id="SVGID_4_">
		<use xlink:href="#SVGID_3_"  style="overflow:visible;"/>
	</clipPath>
	<g class="st2">
		<path class="st1" d="M427.6,162.2H84.4V79.7h343.1V162.2z M116.1,130.6h279.8v-19.2H116.1V130.6z"/>
	</g>
</g>
</svg>
