<?xml version="1.0" encoding="utf-8"?>
<!-- Generator: Adobe Illustrator 22.1.0, SVG Export Plug-In . SVG Version: 6.00 Build 0)  -->
<svg version="1.1" id="Layer_1" xmlns="http://www.w3.org/2000/svg" xmlns:xlink="http://www.w3.org/1999/xlink" x="0px" y="0px"
	 viewBox="0 0 512 512" style="enable-background:new 0 0 512 512;" xml:space="preserve">
<style type="text/css">
	.st0{fill:none;stroke:#95DCEF;stroke-width:4;stroke-miterlimit:10;}
	.st1{fill:#95DCEF;}
	.st2{fill:#2D8296;}
</style>
<path class="st0" d="M84.2,145.9"/>
<g>
	<path class="st1" d="M417.9,71.1C417.9,71.1,417.9,71.1,417.9,71.1l0,5c0,0,0,0,0,0c30.3,0,55,24.7,55,55s-24.7,55-55,55
		c0,0,0,0,0,0v5c0,0,0,0,0,0c33.1,0,60-26.9,60-60C477.9,98.1,451,71.1,417.9,71.1z"/>
	<path class="st1" d="M417.9,192.7h-1.5v-8h1.5c29.5,0,53.5-24,53.5-53.5c0-29.5-24-53.5-53.5-53.5h-1.5v-8h1.5
		c33.9,0,61.5,27.6,61.5,61.5S451.8,192.7,417.9,192.7z M419.4,187.7v2c31.6-0.8,57-26.7,57-58.5c0-31.8-25.5-57.7-57-58.5v2
		c30.5,0.8,55,25.8,55,56.5C474.4,161.8,449.9,186.9,419.4,187.7z"/>
</g>
<g>
	<g>
		<line class="st1" x1="35.5" y1="188.7" x2="418.1" y2="188.7"/>
		<rect x="35.5" y="187.2" class="st1" width="382.5" height="3"/>
	</g>
	<g>
		<rect x="35.5" y="186.2" class="st1" width="382.5" height="5"/>
		<path class="st1" d="M419.6,192.7H34v-8h385.5V192.7z M37,189.7h379.5v-2H37V189.7z"/>
	</g>
</g>
<g>
	<path class="st2" d="M352.5,71.1C352.5,71.1,352.5,71.1,352.5,71.1l0,3.9c0,0,0,0,0,0c23.7,0,42.9,19.3,42.9,42.9
		s-19.3,42.9-42.9,42.9c0,0,0,0,0,0v3.9c0,0,0,0,0,0c25.8,0,46.9-21,46.9-46.9C399.4,92.1,378.4,71.1,352.5,71.1z"/>
	<path class="st2" d="M352.5,166.3H351v-6.9h1.5c22.9,0,41.4-18.6,41.4-41.4c0-22.9-18.6-41.4-41.4-41.4H351v-6.9h1.5
		c26.7,0,48.4,21.7,48.4,48.4C400.9,144.6,379.2,166.3,352.5,166.3z M354,162.4v0.9c24.3-0.8,43.9-20.8,43.9-45.3
		c0-24.5-19.5-44.5-43.9-45.3v0.9C377.9,74.4,397,94,397,118S377.9,161.6,354,162.4z"/>
</g>
<g>
	<g>
		<line class="st2" x1="54.2" y1="162.9" x2="352.7" y2="162.9"/>
		<rect x="54.2" y="161.4" class="st2" width="298.5" height="3"/>
	</g>
	<g>
		<rect x="54.2" y="160.9" class="st2" width="298.5" height="3.9"/>
		<path class="st2" d="M354.2,166.3H52.7v-6.9h301.5V166.3z M55.7,163.3h295.5v-0.9H55.7V163.3z"/>
	</g>
</g>
<g>
	<path class="st2" d="M417.9,433.1C417.9,433.1,417.9,433.1,417.9,433.1l0-5c0,0,0,0,0,0c30.3,0,55-24.7,55-55c0-30.3-24.7-55-55-55
		c0,0,0,0,0,0v-5c0,0,0,0,0,0c33.1,0,60,26.9,60,60C477.9,406.1,451,433.1,417.9,433.1z"/>
	<path class="st2" d="M417.9,434.6h-1.5v-8h1.5c29.5,0,53.5-24,53.5-53.5s-24-53.5-53.5-53.5h-1.5v-8h1.5
		c33.9,0,61.5,27.6,61.5,61.5S451.8,434.6,417.9,434.6z M419.4,429.6v2c31.6-0.8,57-26.7,57-58.5c0-31.8-25.5-57.7-57-58.5v2
		c30.5,0.8,55,25.8,55,56.5S449.9,428.8,419.4,429.6z"/>
</g>
<g>
	<g>
		<line class="st2" x1="35.5" y1="315.5" x2="418.1" y2="315.5"/>
		<rect x="35.5" y="314" class="st2" width="382.5" height="3"/>
	</g>
	<g>
		<rect x="35.5" y="313" class="st2" width="382.5" height="5"/>
		<path class="st2" d="M419.6,319.5H34v-8h385.5V319.5z M37,316.5h379.5v-2H37V316.5z"/>
	</g>
</g>
<g>
	<path class="st1" d="M352.5,433.1C352.5,433.1,352.5,433.1,352.5,433.1l0-3.9c0,0,0,0,0,0c23.7,0,42.9-19.3,42.9-42.9
		s-19.3-42.9-42.9-42.9c0,0,0,0,0,0v-3.9c0,0,0,0,0,0c25.8,0,46.9,21,46.9,46.8C399.4,412.1,378.4,433.1,352.5,433.1z"/>
	<path class="st1" d="M352.5,434.6H351v-6.9h1.5c22.9,0,41.4-18.6,41.4-41.4s-18.6-41.4-41.4-41.4H351v-6.9h1.5
		c26.7,0,48.4,21.7,48.4,48.4S379.2,434.6,352.5,434.6z M354,430.6v0.9c24.3-0.8,43.9-20.8,43.9-45.3s-19.5-44.5-43.9-45.3v0.9
		c23.8,0.8,42.9,20.4,42.9,44.4S377.9,429.9,354,430.6z"/>
</g>
<g>
	<g>
		<line class="st1" x1="54.2" y1="341.3" x2="352.7" y2="341.3"/>
		<rect x="54.2" y="339.8" class="st1" width="298.5" height="3"/>
	</g>
	<g>
		<rect x="54.2" y="339.4" class="st1" width="298.5" height="3.9"/>
		<path class="st1" d="M354.2,344.8H52.7v-6.9h301.5V344.8z M55.7,341.8h295.5v-0.9H55.7V341.8z"/>
	</g>
</g>
<g>
	<g>
		<line class="st1" x1="54.2" y1="218.3" x2="352.7" y2="218.3"/>
		<rect x="54.2" y="216.8" class="st1" width="298.5" height="3"/>
	</g>
	<g>
		<rect x="54.2" y="216.4" class="st1" width="298.5" height="3.9"/>
		<path class="st1" d="M354.2,221.8H52.7v-6.9h301.5V221.8z M55.7,218.8h295.5v-0.9H55.7V218.8z"/>
	</g>
</g>
<g>
	<g>
		<line class="st2" x1="67" y1="247.4" x2="451.7" y2="247.4"/>
		<rect x="67" y="245.9" class="st2" width="384.6" height="3"/>
	</g>
	<g>
		<rect x="67.1" y="245.5" class="st2" width="384.6" height="3.9"/>
		<path class="st2" d="M453.2,250.9H65.6V244h387.6V250.9z M68.6,247.9h381.6V247H68.6V247.9z"/>
	</g>
</g>
<g>
	<g>
		<line class="st2" x1="368" y1="218.3" x2="399.4" y2="218.3"/>
		<rect x="368" y="216.8" class="st2" width="31.4" height="3"/>
	</g>
	<g>
		<rect x="368" y="216.4" class="st2" width="31.4" height="3.9"/>
		<path class="st2" d="M400.9,221.8h-34.4v-6.9h34.4V221.8z M369.5,218.8h28.4v-0.9h-28.4V218.8z"/>
	</g>
</g>
<g>
	<g>
		<line class="st1" x1="423.1" y1="276.5" x2="124.6" y2="276.5"/>
		<rect x="124.6" y="275" class="st1" width="298.5" height="3"/>
	</g>
	<g>
		<rect x="124.6" y="274.5" class="st1" width="298.5" height="3.9"/>
		<path class="st1" d="M424.6,279.9H123.1V273h301.5V279.9z M126.1,276.9h295.5V276H126.1V276.9z"/>
	</g>
</g>
<g>
	<g>
		<line class="st2" x1="108.1" y1="276.5" x2="53" y2="276.5"/>
		<rect x="53" y="275" class="st2" width="55.2" height="3"/>
	</g>
	<g>
		<rect x="53" y="274.5" class="st2" width="55.2" height="3.9"/>
		<path class="st2" d="M108.4,279.9H52.7V273h55.7V279.9z M53.3,276.9h54.6V276H53.3V276.9z"/>
	</g>
</g>
</svg>
