<?xml version="1.0" encoding="utf-8"?>
<!-- Generator: Adobe Illustrator 22.1.0, SVG Export Plug-In . SVG Version: 6.00 Build 0)  -->
<svg version="1.1" id="Layer_1" xmlns="http://www.w3.org/2000/svg" xmlns:xlink="http://www.w3.org/1999/xlink" x="0px" y="0px"
	 viewBox="0 0 479 479" style="enable-background:new 0 0 479 479;" xml:space="preserve">
<style type="text/css">
	.st0{fill:#7061A8;}
</style>
<g>
	<g>
		<path class="st0" d="M324.9,383.3H154.1c-51.3,0-51.9-51.3-51.9-51.9V160.6c0-51.3,51.3-51.9,51.9-51.9h170.9
			c51.3,0,51.9,51.3,51.9,51.9v170.9C376.8,382.7,325.4,383.3,324.9,383.3z M154.1,114.8c-1.9,0-45.8,0.6-45.8,45.8v170.9
			c0,1.9,0.6,45.8,45.8,45.8h170.9c1.9,0,45.8-0.6,45.8-45.8V160.6c0-1.9-0.6-45.8-45.8-45.8H154.1L154.1,114.8z"/>
	</g>
	<g>
		<path class="st0" d="M240.3,311.9h-26.7l40.8-92.6H197v-21.4h85.6v16.9L240.3,311.9z"/>
	</g>
	<g>
		<path class="st0" d="M163,95.7c0,0-12.2,0-12.2,12.2v25.9c0,0,0,12.2,12.2,12.2c0,0,12.2,0,12.2-12.2v-25.9
			C175.2,107.9,175.2,95.7,163,95.7"/>
	</g>
	<g>
		<path class="st0" d="M211.8,95.7c0,0-12.2,0-12.2,12.2v25.9c0,0,0,12.2,12.2,12.2c0,0,12.2,0,12.2-12.2v-25.9
			C224,107.9,224,95.7,211.8,95.7"/>
	</g>
	<g>
		<path class="st0" d="M260.6,95.7c0,0-12.2,0-12.2,12.2v25.9c0,0,0,12.2,12.2,12.2c0,0,12.2,0,12.2-12.2v-25.9
			C272.8,107.9,272.8,95.7,260.6,95.7"/>
	</g>
	<g>
		<path class="st0" d="M309.4,95.7c0,0-12.2,0-12.2,12.2v25.9c0,0,0,12.2,12.2,12.2c0,0,12.2,0,12.2-12.2v-25.9
			C321.6,107.9,321.6,95.7,309.4,95.7"/>
	</g>
</g>
</svg>
