<?xml version="1.0" encoding="utf-8"?>
<!-- Generator: Adobe Illustrator 19.0.0, SVG Export Plug-In . SVG Version: 6.00 Build 0)  -->
<svg version="1.1" id="Layer_1" xmlns="http://www.w3.org/2000/svg" xmlns:xlink="http://www.w3.org/1999/xlink" x="0px" y="0px"
	 viewBox="0 0 512 512" enable-background="new 0 0 512 512" xml:space="preserve">
<path fill="#EB4559" d="M256,272.8c-38,0-69-31-69-69c0-38,31-69,69-69s69,31,69,69C325,241.9,294,272.8,256,272.8 M256,66.6
	c-75.6,0-137.1,61.5-137.1,137.1c0,93.9,122.7,231.6,128,237.5c4.9,5.5,13.5,5.5,18.4,0c5.2-5.8,128-143.6,128-216.6
	c0,0,0-20.8,0-41.6C393.1,128.2,331.6,66.6,256,66.6"/>
</svg>
