<?xml version="1.0" encoding="utf-8"?>
<!-- Generator: Adobe Illustrator 22.1.0, SVG Export Plug-In . SVG Version: 6.00 Build 0)  -->
<svg version="1.1" id="Layer_1" xmlns="http://www.w3.org/2000/svg" xmlns:xlink="http://www.w3.org/1999/xlink" x="0px" y="0px"
	 viewBox="0 0 512 512" style="enable-background:new 0 0 512 512;" xml:space="preserve">
<style type="text/css">
	.st0{fill:#FFFFFF;}
</style>
<path d="M370.4,457H141.6c-38.7,0-70.1-31.4-70.1-70.1V125.1c0-38.7,31.4-70.1,70.1-70.1h228.8c38.7,0,70.1,31.4,70.1,70.1v261.8
	C440.5,425.6,409.1,457,370.4,457z"/>
<path class="st0" d="M308,154H193c-8.3,0-15-6.7-15-15v0c0-8.3,6.7-15,15-15h115c8.3,0,15,6.7,15,15v0C323,147.3,316.3,154,308,154z
	"/>
<path class="st0" d="M379.7,232.5H132.3c-7,0-12.8-5.7-12.8-12.8v0c0-7,5.7-12.8,12.8-12.8h247.5c7,0,12.8,5.7,12.8,12.8v0
	C392.5,226.8,386.8,232.5,379.7,232.5z"/>
<path class="st0" d="M380.2,284H132.8c-7,0-12.8-5.7-12.8-12.8v0c0-7,5.7-12.8,12.8-12.8h247.5c7,0,12.8,5.7,12.8,12.8v0
	C393,278.3,387.3,284,380.2,284z"/>
<path class="st0" d="M380.2,335.5H132.8c-7,0-12.8-5.7-12.8-12.8v0c0-7,5.7-12.8,12.8-12.8h247.5c7,0,12.8,5.7,12.8,12.8v0
	C393,329.8,387.3,335.5,380.2,335.5z"/>
<path class="st0" d="M380.2,387H132.8c-7,0-12.8-5.7-12.8-12.8v0c0-7,5.7-12.8,12.8-12.8h247.5c7,0,12.8,5.7,12.8,12.8v0
	C393,381.3,387.3,387,380.2,387z"/>
</svg>
