<?xml version="1.0" encoding="utf-8"?>
<!-- Generator: Adobe Illustrator 22.1.0, SVG Export Plug-In . SVG Version: 6.00 Build 0)  -->
<svg version="1.1" id="Capa_1" xmlns="http://www.w3.org/2000/svg" xmlns:xlink="http://www.w3.org/1999/xlink" x="0px" y="0px"
	 viewBox="0 0 512 512" style="enable-background:new 0 0 512 512;" xml:space="preserve">
<style type="text/css">
	.st0{fill:#EBE3F9;}
	.st1{fill:#7061A7;}
	.st2{fill:#E6E7E8;}
	.st3{fill:#BBBDBF;}
	.st4{fill:#EA4559;}
	.st5{fill:#FAD9DD;}
	.st6{fill:#D5E8EC;}
	.st7{fill:#336173;}
</style>
<g>
	<path class="st4" d="M341.8,454.3H167.2c-28.7,0-52.1-25.6-52.1-57V258.4c0-31.4,23.4-57,52.1-57h174.6c28.7,0,52.1,25.6,52.1,57
		v138.9C393.9,428.7,370.5,454.3,341.8,454.3"/>
	<path class="st5" d="M167.2,235.2c-11.7,0-21.2,10.4-21.2,23.2v138.9c0,12.8,9.5,23.2,21.2,23.2h174.6c11.7,0,21.2-10.4,21.2-23.2
		V258.4c0-12.8-9.5-23.2-21.2-23.2H167.2z"/>
	<path class="st4" d="M359.5,217.8h-33.8v-99.7c0-14.6-10.5-26.5-23.3-26.5h-95.6c-12.9,0-23.3,11.9-23.3,26.5v99.7h-33.8v-99.7
		c0-33.3,25.6-60.4,57.2-60.4h95.6c31.5,0,57.2,27.1,57.2,60.4V217.8z"/>
	<path class="st4" d="M282.4,295.2c0,15.2-12.3,27.6-27.6,27.6c-15.2,0-27.6-12.4-27.6-27.6c0-15.2,12.4-27.6,27.6-27.6
		C270.1,267.6,282.4,280,282.4,295.2"/>
	<path class="st4" d="M245.5,307.8l-15,63.4c-2.1,8.9,4.6,17.4,13.8,17.4h20.6c9.2,0,16-8.6,13.8-17.5l-15.5-63.3H245.5z"/>
	<rect x="46.6" y="81.9" class="st4" width="19.8" height="128.6"/>
	<polygon class="st4" points="92.9,132.6 56.5,88.8 20,132.6 4.7,120 56.5,57.7 108.2,120 	"/>
	<rect x="445.6" y="301.5" class="st4" width="19.8" height="128.6"/>
	<polygon class="st4" points="455.6,454.3 403.8,392 419.1,379.4 455.6,423.2 492,379.4 507.3,392 	"/>
</g>
</svg>
