<?xml version="1.0" encoding="utf-8"?>
<!-- Generator: Adobe Illustrator 19.0.0, SVG Export Plug-In . SVG Version: 6.00 Build 0)  -->
<svg version="1.1" id="Layer_1" xmlns="http://www.w3.org/2000/svg" xmlns:xlink="http://www.w3.org/1999/xlink" x="0px" y="0px"
	 viewBox="0 0 512 512" enable-background="new 0 0 512 512" xml:space="preserve">
<g id="XMLID_4_">
	<path id="XMLID_7_" fill="#FFFFFF" d="M92.4,97.8c0,0-15.5,0-15.5,15.5v285.5c0,0,0,15.5,15.5,15.5h49.4c0,0,15.5,0,15.5-15.5
		V113.3c0,0,0-15.5-15.5-15.5H92.4z"/>
	<path id="XMLID_6_" fill="#FFFFFF" d="M204.9,97.8c0,0-15.5,0-15.5,15.5v285.5c0,0,0,15.5,15.5,15.5h49.4c0,0,15.5,0,15.5-15.5
		V113.3c0,0,0-15.5-15.5-15.5H204.9z"/>
	<path id="XMLID_5_" fill="#FFFFFF" d="M378.7,99.6c0,0-15.2-4.5-20.4,8.6L250,381.1c0,0-5.2,13.2,10,17.7l45.6,13.6
		c0,0,15.2,4.5,20.4-8.6l108.3-272.9c0,0,5.2-13.2-10-17.7L378.7,99.6z"/>
</g>
</svg>
