<?xml version="1.0" encoding="utf-8"?>
<!-- Generator: Adobe Illustrator 22.1.0, SVG Export Plug-In . SVG Version: 6.00 Build 0)  -->
<svg version="1.1" id="Layer_1" xmlns="http://www.w3.org/2000/svg" xmlns:xlink="http://www.w3.org/1999/xlink" x="0px" y="0px"
	 viewBox="0 0 512 512" style="enable-background:new 0 0 512 512;" xml:space="preserve">
<g>
	<path d="M396.9,453H115.1C82,453,55,426,55,392.9V111.1C55,78,82,51,115.1,51h281.8C430,51,457,78,457,111.1v281.8
		C457,426,430,453,396.9,453z M115.1,79C97.4,79,83,93.4,83,111.1v281.8c0,17.7,14.4,32.1,32.1,32.1h281.8
		c17.7,0,32.1-14.4,32.1-32.1V111.1c0-17.7-14.4-32.1-32.1-32.1H115.1z"/>
</g>
<g>
	<path d="M401.7,446H102.3C85.5,446,72,432.5,72,415.7V365h360v50.7C432,432.5,418.5,446,401.7,446z"/>
</g>
<g>
	<path d="M398.8,397H70l3.6-21.3c2-11.8,7.2-22.6,15-31.2l131.2-144.4L398.8,397z M112.6,365h214.6L219.9,246.9L112.6,365z"/>
</g>
<g>
	<polygon points="431.7,336.3 356.6,261.2 304.4,314.2 282,292 356.4,215.8 432,292 	"/>
</g>
<g>
	<circle cx="155" cy="150.5" r="35"/>
</g>
</svg>
