<?xml version="1.0" encoding="utf-8"?>
<!-- Generator: Adobe Illustrator 22.1.0, SVG Export Plug-In . SVG Version: 6.00 Build 0)  -->
<svg version="1.1" id="Layer_1" xmlns="http://www.w3.org/2000/svg" xmlns:xlink="http://www.w3.org/1999/xlink" x="0px" y="0px"
	 viewBox="0 0 512 512" style="enable-background:new 0 0 512 512;" xml:space="preserve">
<style type="text/css">
	.st0{fill:#D34E13;}
	.st1{fill:#F4A07F;}
	.st2{fill:#EA6D47;}
</style>
<path class="st0" d="M395.5,49.5h-279c-12.1,0-21.8,9.8-21.8,21.8v34.3h40c14.5,0,26.3,11.8,26.3,26.3s-11.8,26.3-26.3,26.3h-40
	v30.1h40c14.5,0,26.3,11.8,26.3,26.3v0c0,14.5-11.8,26.3-26.3,26.3h-40v30.1h40c14.5,0,26.3,11.8,26.3,26.3v0
	c0,14.5-11.8,26.3-26.3,26.3h-40v30.1h40c14.5,0,26.3,11.8,26.3,26.3v0c0,14.5-11.8,26.3-26.3,26.3h-40v34.2
	c0,12.1,9.8,21.8,21.8,21.8h279c12.1,0,21.8-9.8,21.8-21.8V71.4C417.3,59.3,407.6,49.5,395.5,49.5z"/>
<path class="st1" d="M361.2,83.8H150.8c-12.1,0-21.8,9.8-21.8,21.8v0h5.8c14.5,0,26.3,11.8,26.3,26.3s-11.8,26.3-26.3,26.3h-5.8
	v30.1h5.8c14.5,0,26.3,11.8,26.3,26.3v0c0,14.5-11.8,26.3-26.3,26.3h-5.8v30.1h5.8c14.5,0,26.3,11.8,26.3,26.3v0
	c0,14.5-11.8,26.3-26.3,26.3h-5.8v30.1h5.8c14.5,0,26.3,11.8,26.3,26.3v0c0,14.5-11.8,26.3-26.3,26.3h-5.8c0,12,9.8,21.8,21.8,21.8
	h210.4c12.1,0,21.8-9.8,21.8-21.8V105.7C383.1,93.6,373.3,83.8,361.2,83.8z"/>
<path class="st0" d="M132.9,114.6H85.3c-9.5,0-17.3,7.7-17.3,17.3v0c0,9.5,7.7,17.3,17.3,17.3h47.5c9.5,0,17.3-7.7,17.3-17.3v0
	C150.1,122.4,142.4,114.6,132.9,114.6z"/>
<path class="st0" d="M132.9,198.4H85.3c-9.5,0-17.3,7.7-17.3,17.3S75.8,233,85.3,233h47.5c9.5,0,17.3-7.7,17.3-17.3
	S142.4,198.4,132.9,198.4z"/>
<path class="st0" d="M132.9,280.4H85.3c-9.5,0-17.3,7.7-17.3,17.3v0c0,9.5,7.7,17.3,17.3,17.3h47.5c9.5,0,17.3-7.7,17.3-17.3v0
	C150.1,288.1,142.4,280.4,132.9,280.4z"/>
<path class="st0" d="M132.9,363.1H85.3c-9.5,0-17.3,7.7-17.3,17.3v0c0,9.5,7.7,17.3,17.3,17.3h47.5c9.5,0,17.3-7.7,17.3-17.3v0
	C150.1,370.9,142.4,363.1,132.9,363.1z"/>
<g>
	<rect x="359.5" y="60" class="st0" width="7.9" height="390.8"/>
</g>
<g>
	<circle class="st2" cx="200.3" cy="132.7" r="8"/>
	<circle class="st2" cx="236.3" cy="132.7" r="8"/>
	<circle class="st2" cx="272.7" cy="132.7" r="8"/>
	<ellipse class="st2" cx="308.8" cy="132.7" rx="8" ry="8"/>
	<g>
		<circle class="st2" cx="200.3" cy="160.1" r="8"/>
	</g>
	<g>
		<circle class="st2" cx="236.3" cy="160.1" r="8"/>
	</g>
	<g>
		<circle class="st2" cx="272.7" cy="160.1" r="8"/>
	</g>
	<g>
		<ellipse class="st2" cx="308.9" cy="160.1" rx="8" ry="8"/>
	</g>
	<g>
		<circle class="st2" cx="200.3" cy="187.5" r="8"/>
	</g>
	<g>
		<circle class="st2" cx="236.3" cy="187.5" r="8"/>
	</g>
	<g>
		<circle class="st2" cx="272.7" cy="187.5" r="8"/>
	</g>
	<g>
		<ellipse class="st2" cx="308.9" cy="187.5" rx="8" ry="8"/>
	</g>
	<g>
		<circle class="st2" cx="200.3" cy="214.9" r="8"/>
	</g>
	<g>
		<circle class="st2" cx="236.3" cy="214.9" r="8"/>
	</g>
	<g>
		<circle class="st2" cx="272.7" cy="214.9" r="8"/>
	</g>
	<g>
		<ellipse class="st2" cx="308.9" cy="214.9" rx="8" ry="8"/>
	</g>
</g>
<g>
	<circle class="st2" cx="200.3" cy="298" r="8"/>
	<circle class="st2" cx="236.3" cy="298" r="8"/>
	<circle class="st2" cx="272.7" cy="298" r="8"/>
	<ellipse class="st2" cx="308.8" cy="298.1" rx="8" ry="8"/>
	<g>
		<circle class="st2" cx="200.3" cy="325.4" r="8"/>
	</g>
	<g>
		<circle class="st2" cx="236.3" cy="325.4" r="8"/>
	</g>
	<g>
		<circle class="st2" cx="272.7" cy="325.4" r="8"/>
	</g>
	<g>
		<ellipse class="st2" cx="308.9" cy="325.5" rx="8" ry="8"/>
	</g>
	<g>
		<circle class="st2" cx="200.3" cy="352.9" r="8"/>
	</g>
	<g>
		<circle class="st2" cx="236.3" cy="352.9" r="8"/>
	</g>
	<g>
		<circle class="st2" cx="272.7" cy="352.9" r="8"/>
	</g>
	<g>
		<ellipse class="st2" cx="308.9" cy="352.9" rx="8" ry="8"/>
	</g>
	<g>
		<circle class="st2" cx="200.3" cy="380.3" r="8"/>
	</g>
	<g>
		<circle class="st2" cx="236.3" cy="380.3" r="8"/>
	</g>
	<g>
		<circle class="st2" cx="272.7" cy="380.3" r="8"/>
	</g>
	<g>
		<ellipse class="st2" cx="308.9" cy="380.2" rx="8" ry="8"/>
	</g>
</g>
</svg>
