<?xml version="1.0" encoding="utf-8"?>
<!-- Generator: Adobe Illustrator 22.1.0, SVG Export Plug-In . SVG Version: 6.00 Build 0)  -->
<svg version="1.1" id="Capa_1" xmlns="http://www.w3.org/2000/svg" xmlns:xlink="http://www.w3.org/1999/xlink" x="0px" y="0px"
	 viewBox="0 0 512 512" style="enable-background:new 0 0 512 512;" xml:space="preserve">
<style type="text/css">
	.st0{fill:#848484;}
	.st1{fill:#929497;}
	.st2{fill:#C4C4C4;}
</style>
<path class="st0" d="M437.5,413.5c-4,17-19.2,28.9-36.7,28.9H53.3c-14.8,0-22.5-7.8-22.5-23.3l62.1-148.4c3.5-8,9.4-14.7,18.2-14.7
	h114.6c19.2,0,37.5-8.5,49.8-23.3c12.3-14.8,30.5-23.3,49.7-23.3h137.5c11.8,0,20.5,10.7,18.2,22.1L437.5,413.5z"/>
<path class="st1" d="M100.7,162.8h326.2v-23.3c0-12.9-10.4-23.3-23.3-23.3H190.1c-2.6,0-5-1.2-6.6-3.2l-30.1-37.6
	c-2.9-3.7-7.4-5.8-12.1-5.8H54.1c-12.9,0-23.3,10.4-23.3,23.3v326.2l51.7-241.6C84.3,168.9,91.9,162.8,100.7,162.8"/>
<path class="st1" d="M54.1,92.9c0-12.9,10.4-23.3,23.3-23.3H54.1c-12.9,0-23.3,10.4-23.3,23.3v326.2l23.3-108.8V92.9z"/>
<path class="st2" d="M111.1,256h114.6c19.2,0,37.4-8.5,49.7-23.3c12.3-14.8,30.5-23.3,49.8-23.3H455l2.6-24.5
	c2.4-11.4-6.4-22.1-18.2-22.1H100.7c-8.8,0-16.4,6.1-18.2,14.7L30.8,419.1l62.1-148.4C96.4,262.7,102.3,256,111.1,256"/>
</svg>
