<?xml version="1.0" encoding="utf-8"?>
<!-- Generator: Adobe Illustrator 22.1.0, SVG Export Plug-In . SVG Version: 6.00 Build 0)  -->
<svg version="1.1" id="Layer_1" xmlns="http://www.w3.org/2000/svg" xmlns:xlink="http://www.w3.org/1999/xlink" x="0px" y="0px"
	 viewBox="0 0 512 512" style="enable-background:new 0 0 512 512;" xml:space="preserve">
<g>
	<path d="M396.9,457H115.1C82,457,55,430,55,396.9V115.1C55,82,82,55,115.1,55h281.8C430,55,457,82,457,115.1v281.8
		C457,430,430,457,396.9,457z M115.1,83C97.4,83,83,97.4,83,115.1v281.8c0,17.7,14.4,32.1,32.1,32.1h281.8
		c17.7,0,32.1-14.4,32.1-32.1V115.1c0-17.7-14.4-32.1-32.1-32.1H115.1z"/>
</g>
<g>
	<path d="M364.5,133.3c-1-0.9-2.3-1.2-3.6-1.1l-140.1,18.1c-2.3,0.3-3.9,2.2-3.9,4.5V182v19v114.8c-8.3-9.9-21.4-16.4-36.2-16.4
		c-24.9,0-45.2,18.3-45.2,40.7c0,22.4,20.3,40.7,45.2,40.7s45.2-18.3,45.2-40.7c0-1-0.1-2.1-0.2-3.1c0.1-0.3,0.2-0.6,0.2-0.9V205
		l131.1-17v82.5c-8.3-9.9-21.4-16.4-36.2-16.4c-24.9,0-45.2,18.3-45.2,40.7c0,22.4,20.3,40.7,45.2,40.7c24.7,0,44.8-17.9,45.2-40.1
		c0-0.1,0-0.1,0-0.2V182.9v-19v-27.2C366,135.4,365.4,134.2,364.5,133.3z"/>
</g>
</svg>
