<?xml version="1.0" encoding="utf-8"?>
<!-- Generator: Adobe Illustrator 22.1.0, SVG Export Plug-In . SVG Version: 6.00 Build 0)  -->
<svg version="1.1" id="Layer_1" xmlns="http://www.w3.org/2000/svg" xmlns:xlink="http://www.w3.org/1999/xlink" x="0px" y="0px"
	 viewBox="0 0 512 512" style="enable-background:new 0 0 512 512;" xml:space="preserve">
<style type="text/css">
	.st0{fill:#EDB02D;}
	.st1{fill:#EF713A;}
</style>
<g>
	<g>
		<path class="st0" d="M252.3,368.3c62.3,0,112.8-50.5,112.8-112.8c0-62.3-50.5-112.8-112.8-112.8s-112.8,50.5-112.8,112.8
			C139.5,317.8,190,368.3,252.3,368.3"/>
	</g>
	<g>
		<path class="st1" d="M252.3,341.2c47.4,0,85.7-38.4,85.7-85.7s-38.4-85.7-85.7-85.7s-85.7,38.4-85.7,85.7S204.9,341.2,252.3,341.2
			"/>
	</g>
	<g>
		<path class="st0" d="M189.1,241.9L189.1,241.9c-3.7-1-5.6-5-4.1-8.5c4-9.2,13.4-25.5,32.5-35.4c19.9-10.4,44.6-11,73.5-1.8
			c3.4,1.1,5.2,4.7,4.1,8.1h0c-1.1,3.2-4.6,4.9-7.8,3.9c-25.6-8.1-47.1-7.8-63.9,0.8c-15.8,8.2-23.6,22-26.9,29.4
			C195.3,241.2,192.1,242.7,189.1,241.9z"/>
	</g>
	<g>
		<polygon class="st0" points="256,36.2 247.2,149.6 264.8,150 		"/>
	</g>
	<g>
		<polyline class="st0" points="174.5,187 100.6,100.6 187.3,174.8 		"/>
	</g>
	<g>
		<polygon class="st0" points="36.2,256 149.6,264.8 150,247.2 		"/>
	</g>
	<g>
		<polyline class="st0" points="187,337.5 100.6,411.4 174.8,324.7 		"/>
	</g>
	<g>
		<polygon class="st0" points="256,475.8 264.8,362.4 247.2,362 		"/>
	</g>
	<g>
		<polyline class="st0" points="337.5,325 411.4,411.4 324.7,337.2 		"/>
	</g>
	<g>
		<polygon class="st0" points="362,264.8 475.8,256 362.4,247.2 		"/>
	</g>
	<g>
		<polyline class="st0" points="325,174.5 411.4,100.6 337.2,187.3 		"/>
	</g>
</g>
</svg>
