<?xml version="1.0" encoding="utf-8"?>
<!-- Generator: Adobe Illustrator 19.0.0, SVG Export Plug-In . SVG Version: 6.00 Build 0)  -->
<svg version="1.1" id="Layer_1" xmlns="http://www.w3.org/2000/svg" xmlns:xlink="http://www.w3.org/1999/xlink" x="0px" y="0px"
	 viewBox="0 0 512 512" enable-background="new 0 0 512 512" xml:space="preserve">
<path fill="#82C9EB" d="M202.1,231.9c0-3.4,2.7-6.1,6.1-6.1h9.8c3.4,0,6.1,2.7,6.1,6.1v121.2c0,3.4-2.7,6.1-6.1,6.1h-9.8
	c-3.4,0-6.1-2.7-6.1-6.1V231.9z M245,231.9c0-3.4,2.7-6.1,6.1-6.1h9.8c3.4,0,6.1,2.7,6.1,6.1v121.2c0,3.4-2.7,6.1-6.1,6.1h-9.8
	c-3.4,0-6.1-2.7-6.1-6.1V231.9z M287.8,231.9c0-3.4,2.7-6.1,6.1-6.1h9.8c3.4,0,6.1,2.7,6.1,6.1v121.2c0,3.4-2.7,6.1-6.1,6.1H294
	c-3.4,0-6.1-2.7-6.1-6.1V231.9z M170.6,391.3c0.3,8.1,7,14.4,15.1,14.4h140.7c8.1,0,14.7-6.4,15.1-14.4l10.1-212.2h-191L170.6,391.3
	z"/>
<path id="XMLID_3_" fill="#82C9EB" d="M358.2,121.6h-64.9v-12.3c0-1.7-1.4-3.1-3.2-3.1h-68.2c-1.7,0-3.1,1.4-3.1,3.1v12.3h-64.9
	c-5.2,0-9.5,4.2-9.5,9.5v29.7h223.3v-29.7C367.6,125.9,363.4,121.6,358.2,121.6"/>
</svg>
