<?xml version="1.0" encoding="utf-8"?>
<!-- Generator: Adobe Illustrator 19.0.0, SVG Export Plug-In . SVG Version: 6.00 Build 0)  -->
<svg version="1.1" id="Layer_1" xmlns="http://www.w3.org/2000/svg" xmlns:xlink="http://www.w3.org/1999/xlink" x="0px" y="0px"
	 viewBox="0 0 512 512" enable-background="new 0 0 512 512" xml:space="preserve">
<g id="XMLID_2_">
	<path id="XMLID_7_" fill="#929497" d="M264.3,388.6c-13.3-0.2-26.1-5-36.2-13.5l-66.9-58.9c-10.5-9.8-26.6-10.6-38.1-1.8l-95.2,70
		v45.4c-0.7,12.2,8.6,22.6,20.9,23.3c0.6,0,1.2,0,1.8,0h337c13.5,0,27-9.8,27-23.3V310.7l-120.9,70
		C284.8,386,274.6,388.8,264.3,388.6"/>
	<path id="XMLID_6_" fill="#929497" d="M259.3,215.5c14.9,0,27,12.1,27,27s-12.1,27-27,27c-14.9,0-27-12.1-27-27
		S244.4,215.5,259.3,215.5"/>
	<path id="XMLID_5_" fill="#929497" d="M478.5,106.9c-3.9-5.3-10-8.7-16.6-9.2L127.4,59c-6.5-0.6-13,1.2-18.4,4.9
		c-4.8,4.1-8,9.8-9.2,16l-5.5,47.9h293.4c28,0.6,50.6,23,51.6,51v216.7c0-1.2,5.5-2.5,8-4.9c5.1-4,8-10.1,8-16.6L484,124.7
		C484.6,118.2,482.7,111.8,478.5,106.9"/>
	<path fill="#929497" d="M259.4,294.1c-28.5,0-51.6-23-51.6-51.6c0-28.5,23-51.6,51.6-51.6c28.5,0,51.6,23.1,51.6,51.6
		C310.9,271,287.8,294.1,259.4,294.1 M387.6,152.3h-337c-13.5,0-22.7,12.9-22.7,26.4v174.9l81-58.9c20.6-15.3,49-14,68.2,3.1
		l67.5,58.9c10.2,8.6,24.7,9.9,36.2,3.1l133.8-78V178.7C413.7,164.3,402.1,152.9,387.6,152.3"/>
</g>
</svg>
