<?xml version="1.0" encoding="utf-8"?>
<!-- Generator: Adobe Illustrator 22.1.0, SVG Export Plug-In . SVG Version: 6.00 Build 0)  -->
<svg version="1.1" id="Layer_1" xmlns="http://www.w3.org/2000/svg" xmlns:xlink="http://www.w3.org/1999/xlink" x="0px" y="0px"
	 viewBox="0 0 512 512" style="enable-background:new 0 0 512 512;" xml:space="preserve">
<style type="text/css">
	.st0{fill:#6F60A6;}
	.st1{fill:#FFFFFF;}
</style>
<g>
	<g>
		<path class="st0" d="M160,64c0,0-96,0-96,96v192c0,0,0,96,96,96h192c0,0,96,0,96-96V160c0,0,0-96-96-96H160z"/>
	</g>
	<g>
		<path class="st0" d="M352,456H160C57.2,456,56,353,56,352V160C56,57.2,159,56,160,56h192c102.8,0,104,103,104,104v192
			C456,454.8,353,456,352,456z M160,72c-3.6,0-88,1.3-88,88v192c0,3.6,1.3,88,88,88h192c3.6,0,88-1.3,88-88V160c0-3.6-1.3-88-88-88
			H160z"/>
	</g>
	<g>
		<polygon class="st1" points="228,349.5 131,252.5 165,218.5 228,281.6 347,162.5 381,196.5 		"/>
	</g>
</g>
</svg>
