<?xml version="1.0" encoding="utf-8"?>
<!-- Generator: Adobe Illustrator 19.0.0, SVG Export Plug-In . SVG Version: 6.00 Build 0)  -->
<svg version="1.1" id="Layer_1" xmlns="http://www.w3.org/2000/svg" xmlns:xlink="http://www.w3.org/1999/xlink" x="0px" y="0px"
	 viewBox="0 0 512 512" enable-background="new 0 0 512 512" xml:space="preserve">
<g id="XMLID_10_">
	<defs>
		<rect id="XMLID_5_" x="36.1" y="84.9" width="439.9" height="342.1"/>
	</defs>
	<clipPath id="XMLID_2_">
		<use xlink:href="#XMLID_5_"  overflow="visible"/>
	</clipPath>
	<path id="XMLID_8_" clip-path="url(#XMLID_2_)" fill="#4D4D4F" d="M409.6,133.8H60.5c-13.5,0-24.4-10.9-24.4-24.4
		S47,84.9,60.5,84.9h349.1c13.5,0,24.4,10.9,24.4,24.4S423.1,133.8,409.6,133.8"/>
	<path id="XMLID_7_" clip-path="url(#XMLID_2_)" fill="#4D4D4F" d="M304.9,280.4H60.5c-13.5,0-24.4-10.9-24.4-24.4
		s10.9-24.4,24.4-24.4h244.4c13.5,0,24.4,10.9,24.4,24.4S318.4,280.4,304.9,280.4"/>
	<path id="XMLID_6_" clip-path="url(#XMLID_2_)" fill="#4D4D4F" d="M451.5,427.1h-391c-13.5,0-24.4-10.9-24.4-24.4
		s10.9-24.4,24.4-24.4h391c13.5,0,24.4,10.9,24.4,24.4S465,427.1,451.5,427.1"/>
</g>
</svg>
