<?xml version="1.0" encoding="utf-8"?>
<!-- Generator: Adobe Illustrator 22.1.0, SVG Export Plug-In . SVG Version: 6.00 Build 0)  -->
<svg version="1.1" id="Layer_1" xmlns="http://www.w3.org/2000/svg" xmlns:xlink="http://www.w3.org/1999/xlink" x="0px" y="0px"
	 viewBox="0 0 512 512" style="enable-background:new 0 0 512 512;" xml:space="preserve">
<path d="M256,34C133.4,34,34,133.4,34,256s99.4,222,222,222s222-99.4,222-222S378.6,34,256,34z M393.3,182.8L219.8,356.2
	c-2.4,2.4-6.2,2.4-8.6,0l-92.5-92.5c-5.5-5.5-5.5-14.3,0-19.7l5.1-5.1c5.5-5.5,14.3-5.5,19.7,0l67.9,57.3c2.6,2.2,6.3,2.1,8.8-0.2
	L368.5,158c5.5-5.5,14.3-5.5,19.7,0l5.1,5.1C398.8,168.6,398.8,177.4,393.3,182.8z"/>
</svg>
