<?xml version="1.0" encoding="utf-8"?>
<!-- Generator: Adobe Illustrator 22.1.0, SVG Export Plug-In . SVG Version: 6.00 Build 0)  -->
<svg version="1.1" id="Layer_1" xmlns="http://www.w3.org/2000/svg" xmlns:xlink="http://www.w3.org/1999/xlink" x="0px" y="0px"
	 viewBox="0 0 512 512" style="enable-background:new 0 0 512 512;" xml:space="preserve">
<path d="M328.6,94.9H183.8c-4.8,0-8.7-3.9-8.7-8.7V54.7c0-4.8,3.9-8.7,8.7-8.7h144.8c4.8,0,8.7,3.9,8.7,8.7v31.5
	C337.3,91,333.4,94.9,328.6,94.9z M199.5,79.1h113.3c4.8,0,8.7-3.9,8.7-8.7v0c0-4.8-3.9-8.7-8.7-8.7H199.5c-4.8,0-8.7,3.9-8.7,8.7v0
	C190.8,75.3,194.7,79.1,199.5,79.1z"/>
<path d="M330.6,466H182.1c-8.4,0-15.6-6-17.1-14.2l-57.5-302.1c-2.1-10.8,6.3-20.8,17.2-20.7l263.3,1.5c10.9,0.1,19.1,10,17,20.7
	l-57.3,300.6C346.1,460,338.9,466,330.6,466z M208.2,434.5h96.3c8.4,0,15.6-6,17.1-14.2L367,182.5c2-10.7-6.1-20.6-17-20.7l-187.2-1
	c-11-0.1-19.3,9.9-17.2,20.7L191,420.3C192.6,428.6,199.8,434.5,208.2,434.5z"/>
<g>
	<path d="M206.4,404.9l-40-214.5c-1.2-6.4,3-12.6,9.4-13.8l0,0c6.4-1.2,12.6,3,13.8,9.4l40,214.5c1.2,6.4-3,12.6-9.4,13.8h0
		C213.7,415.5,207.6,411.3,206.4,404.9z"/>
</g>
<g>
	<path d="M291.9,414.3L291.9,414.3c-6.4-1.2-10.6-7.4-9.4-13.8l40-214.5c1.2-6.4,7.4-10.6,13.8-9.4v0c6.4,1.2,10.6,7.4,9.4,13.8
		l-40,214.5C304.4,411.3,298.3,415.5,291.9,414.3z"/>
</g>
<g>
	<path d="M256,414.9L256,414.9c-6.5,0-11.8-5.3-11.8-11.8V188c0-6.5,5.3-11.8,11.8-11.8h0c6.5,0,11.8,5.3,11.8,11.8v215.1
		C267.8,409.6,262.5,414.9,256,414.9z"/>
</g>
<path d="M417.2,159.8h-322c-5.3,0-9.5-4.3-9.5-9.5v-63c0-5.3,4.3-9.5,9.5-9.5h322c5.3,0,9.5,4.3,9.5,9.5v63
	C426.7,155.5,422.5,159.8,417.2,159.8z M126.7,128.3h259c5.3,0,9.5-4.3,9.5-9.5v0c0-5.3-4.3-9.5-9.5-9.5h-259
	c-5.3,0-9.5,4.3-9.5,9.5v0C117.2,124.1,121.4,128.3,126.7,128.3z"/>
</svg>
