<?xml version="1.0" encoding="utf-8"?>
<!-- Generator: Adobe Illustrator 22.1.0, SVG Export Plug-In . SVG Version: 6.00 Build 0)  -->
<svg version="1.1" id="Layer_1" xmlns="http://www.w3.org/2000/svg" xmlns:xlink="http://www.w3.org/1999/xlink" x="0px" y="0px"
	 viewBox="0 0 512 512" style="enable-background:new 0 0 512 512;" xml:space="preserve">
<g>
	<path d="M216.4,248.6h-63.9c-17.8,0-32.2-14.4-32.2-32.2v-63.9c0-17.8,14.4-32.2,32.2-32.2h63.9c17.8,0,32.2,14.4,32.2,32.2v63.9
		C248.6,234.2,234.2,248.6,216.4,248.6z M152.5,126.3c-14.4,0-26.2,11.8-26.2,26.2v63.9c0,14.4,11.8,26.2,26.2,26.2h63.9
		c14.4,0,26.2-11.8,26.2-26.2v-63.9c0-14.4-11.8-26.2-26.2-26.2H152.5z"/>
	<path d="M359.5,248.6h-63.9c-17.8,0-32.2-14.4-32.2-32.2v-63.9c0-17.8,14.4-32.2,32.2-32.2h63.9c17.8,0,32.2,14.4,32.2,32.2v63.9
		C391.7,234.2,377.3,248.6,359.5,248.6z M295.6,126.3c-14.4,0-26.2,11.8-26.2,26.2v63.9c0,14.4,11.8,26.2,26.2,26.2h63.9
		c14.4,0,26.2-11.8,26.2-26.2v-63.9c0-14.4-11.8-26.2-26.2-26.2H295.6z"/>
	<path d="M216.4,391.7h-63.9c-17.8,0-32.2-14.4-32.2-32.2v-63.9c0-17.8,14.4-32.2,32.2-32.2h63.9c17.8,0,32.2,14.4,32.2,32.2v63.9
		C248.6,377.3,234.2,391.7,216.4,391.7z M152.5,269.4c-14.4,0-26.2,11.8-26.2,26.2v63.9c0,14.4,11.8,26.2,26.2,26.2h63.9
		c14.4,0,26.2-11.8,26.2-26.2v-63.9c0-14.4-11.8-26.2-26.2-26.2H152.5z"/>
	<path d="M359.5,391.7h-63.9c-17.8,0-32.2-14.4-32.2-32.2v-63.9c0-17.8,14.4-32.2,32.2-32.2h63.9c17.8,0,32.2,14.4,32.2,32.2v63.9
		C391.7,377.3,377.3,391.7,359.5,391.7z M295.6,269.4c-14.4,0-26.2,11.8-26.2,26.2v63.9c0,14.4,11.8,26.2,26.2,26.2h63.9
		c14.4,0,26.2-11.8,26.2-26.2v-63.9c0-14.4-11.8-26.2-26.2-26.2H295.6z"/>
</g>
</svg>
