<?xml version="1.0" encoding="utf-8"?>
<!-- Generator: Adobe Illustrator 19.0.0, SVG Export Plug-In . SVG Version: 6.00 Build 0)  -->
<svg version="1.1" id="Layer_1" xmlns="http://www.w3.org/2000/svg" xmlns:xlink="http://www.w3.org/1999/xlink" x="0px" y="0px"
	 viewBox="0 0 512 512" enable-background="new 0 0 512 512" xml:space="preserve">
<path id="XMLID_3_" fill="rgb(112, 97, 168)" d="M346.2,243.3c-3.3,0-6,2.7-6,6v36.1c0,46.4-37.8,84.2-84.2,84.2s-84.2-37.8-84.2-84.2v-36.1
	c0-3.3-2.7-6-6-6c-3.3,0-6,2.7-6,6v36.1c0,51,40,92.8,90.2,95.9v30.4h-30.1c-3.3,0-6,2.7-6,6c0,3.3,2.7,6,6,6h72.2c3.3,0,6-2.7,6-6
	c0-3.3-2.7-6-6-6H262v-30.4c50.2-3.1,90.2-44.9,90.2-95.9v-36.1C352.2,245.9,349.5,243.3,346.2,243.3"/>
<path id="XMLID_2_" fill="rgb(112, 97, 168)" d="M256,348.4c34.3,0,62.2-27.9,62.2-62.2V150.5c0-34.3-27.9-62.2-62.2-62.2
	s-62.2,27.9-62.2,62.2v135.7C193.8,320.5,221.7,348.4,256,348.4"/>
</svg>
