<?xml version="1.0" encoding="utf-8"?>
<!-- Generator: Adobe Illustrator 22.1.0, SVG Export Plug-In . SVG Version: 6.00 Build 0)  -->
<svg version="1.1" id="Layer_1" xmlns="http://www.w3.org/2000/svg" xmlns:xlink="http://www.w3.org/1999/xlink" x="0px" y="0px"
	 viewBox="0 0 479 479" style="enable-background:new 0 0 479 479;" xml:space="preserve">
<style type="text/css">
	.st0{fill:#7061A8;}
</style>
<g>
	<g>
		<path class="st0" d="M142.6,339.5c-7.5,0-13.5,6.1-13.5,13.5c0,7.4,6.1,13.5,13.5,13.5h193.9c7.5,0,13.5-6.1,13.5-13.5
			c0-7.4-6.1-13.5-13.5-13.5H142.6z M336.5,371.5H142.6c-10.2,0-18.5-8.3-18.5-18.5c0-10.2,8.3-18.5,18.5-18.5h193.9
			c10.2,0,18.5,8.3,18.5,18.5C355,363.2,346.7,371.5,336.5,371.5"/>
	</g>
	<g>
		<path class="st0" d="M158.8,334.5h161.4l31-143.7l-45.2,29.6c0.6,1,1.1,2.1,1.5,3.1c3.2,7.7,3.2,16.1,0,23.7
			c-3.2,7.7-9.1,13.6-16.8,16.8c-7.7,3.2-16.1,3.2-23.7,0c-7.7-3.2-13.6-9.1-16.8-16.8c-3.2-7.7-3.2-16.1,0-23.7
			c2.8-6.9,7.9-12.4,14.5-15.7l-25.3-60l-25.3,60c1,0.5,2,1.1,2.9,1.7c6.9,4.6,11.6,11.6,13.2,19.7c1.6,8.1,0,16.4-4.6,23.3
			c-4.6,6.9-11.6,11.6-19.7,13.2c-8.1,1.6-16.4,0-23.3-4.6c-6.9-4.6-11.6-11.6-13.2-19.7c-1.5-7.3-0.3-14.7,3.3-21.1l-45.1-29.6
			L158.8,334.5z M324.3,339.5H154.8l-34.6-159.6l59.5,39l-1.4,2.1c-3.9,5.8-5.2,12.7-3.9,19.5c1.4,6.8,5.3,12.7,11.1,16.5
			c5.8,3.8,12.7,5.2,19.6,3.8c6.8-1.4,12.7-5.3,16.5-11.1c3.9-5.8,5.2-12.7,3.9-19.6c-1.4-6.8-5.3-12.7-11.1-16.5
			c-1.4-0.9-2.8-1.7-4.3-2.3l-2.3-1l31.8-75.4l31.8,75.4l-2.3,1c-6.4,2.7-11.4,7.7-14.1,14.1c-2.7,6.4-2.7,13.5,0,19.9
			c2.7,6.4,7.7,11.4,14.1,14.1c6.4,2.7,13.5,2.7,19.9,0c6.4-2.7,11.4-7.7,14.1-14.1c2.7-6.4,2.6-13.5,0-19.9c-0.6-1.5-1.4-3-2.4-4.4
			l-1.4-2.1l59.5-38.9L324.3,339.5z"/>
	</g>
	<g>
		<path class="st0" d="M116.7,160.5c7.3,0,13.2,5.9,13.2,13.2c0,7.3-5.9,13.2-13.2,13.2c-7.3,0-13.2-5.9-13.2-13.2
			C103.5,166.3,109.4,160.5,116.7,160.5"/>
	</g>
	<g>
		<path class="st0" d="M116.7,189.3c-8.6,0-15.7-7-15.7-15.7c0-8.7,7-15.7,15.7-15.7s15.7,7,15.7,15.7
			C132.4,182.3,125.4,189.3,116.7,189.3"/>
	</g>
	<g>
		<path class="st0" d="M362.3,190.7c-8.6,0-15.7-7-15.7-15.7c0-8.7,7-15.7,15.7-15.7c8.6,0,15.7,7,15.7,15.7
			C377.9,183.7,370.9,190.7,362.3,190.7"/>
	</g>
	<g>
		<path class="st0" d="M239.5,143.9c-10,0-18.2-8.2-18.2-18.2c0-10,8.2-18.2,18.2-18.2c10,0,18.2,8.2,18.2,18.2
			C257.7,135.7,249.5,143.9,239.5,143.9"/>
	</g>
	<g>
		<polygon class="st0" points="239.5,271.2 248.7,283.5 258,295.8 248.7,308.2 239.5,320.5 230.3,308.2 221,295.8 230.3,283.5 		"/>
	</g>
	<g>
		<polygon class="st0" points="239.5,324.6 228.3,309.7 217.8,295.8 228.3,282 239.5,267 250.7,282 261.2,295.8 250.7,309.7 		"/>
	</g>
	<g>
		<polygon class="st0" points="299,282.1 305.6,290.9 312.2,299.7 305.6,308.5 299,317.3 292.4,308.5 285.8,299.7 292.4,290.9 		"/>
	</g>
	<g>
		<polygon class="st0" points="299,321.5 282.6,299.7 299,278 315.4,299.7 		"/>
	</g>
	<g>
		<polygon class="st0" points="180,282.1 186.6,290.9 193.2,299.7 186.6,308.5 180,317.3 173.4,308.5 166.8,299.7 173.4,290.9 		"/>
	</g>
	<g>
		<polygon class="st0" points="180,321.5 163.6,299.7 180,278 196.4,299.7 		"/>
	</g>
</g>
</svg>
