<?xml version="1.0" encoding="utf-8"?>
<!-- Generator: Adobe Illustrator 19.0.0, SVG Export Plug-In . SVG Version: 6.00 Build 0)  -->
<svg version="1.1" id="Capa_1" xmlns="http://www.w3.org/2000/svg" xmlns:xlink="http://www.w3.org/1999/xlink" x="0px" y="0px"
	 viewBox="-449 451 100 100" enable-background="new -449 451 100 100" xml:space="preserve">
<g>
	<g>
		<path d="M-385.4,484.9c0-13.9-6.9-18.1-15.5-18.1c-8.6,0-15.5,4.2-15.5,18.1c0,10,6.9,18.1,15.5,18.1
			C-392.3,503-385.4,494.9-385.4,484.9z"/>
	</g>
	<g>
		<path d="M-394.5,517.8c0-5.5,2.3-10.4,6.1-13.9c-0.3-0.1-0.6-0.1-0.8,0.1c-3.4,2.6-7.5,4-11.7,4c-4.2,0-8.2-1.4-11.7-4
			c-0.2-0.2-0.6-0.2-0.8-0.1l-12.1,6.3c-0.8,0.4-1.4,1.1-1.8,1.9l-7.8,17.6c-0.5,1.2-0.4,2.6,0.3,3.7c0.7,1.1,1.9,1.8,3.3,1.8h48.8
			C-389.6,532.4-394.5,525.7-394.5,517.8z"/>
	</g>
	<rect x="-378.9" y="505.6" width="5" height="27.7"/>
	<rect x="-390.2" y="516.9" width="27.7" height="5"/>
</g>
</svg>
