<?xml version="1.0" encoding="utf-8"?>
<!-- Generator: Adobe Illustrator 22.1.0, SVG Export Plug-In . SVG Version: 6.00 Build 0)  -->
<svg version="1.1" id="Layer_1" xmlns="http://www.w3.org/2000/svg" xmlns:xlink="http://www.w3.org/1999/xlink" x="0px" y="0px"
	 viewBox="0 0 512 512" style="enable-background:new 0 0 512 512;" xml:space="preserve">
<style type="text/css">
	.st0{fill:#7061A7;stroke:#202020;stroke-width:7;stroke-miterlimit:10;}
	.st1{fill:#D5D3F4;stroke:#202020;stroke-width:7;stroke-miterlimit:10;}
</style>
<g>
	<path class="st0" d="M397.3,348c32.5,0,58.8-24.4,58.8-54.5c0-25.9-19.4-47.5-45.5-53.1c-0.5-54.7-48.6-99-107.8-99
		c-40.7,0-76.1,20.8-94.4,51.6c-5.6-2.2-11.7-3.5-18.2-3.5c-23.4,0-42.6,16.1-45.5,37c-30.4,5.6-53.2,30.4-53.2,60.1
		c0,33.9,29.6,61.3,66.2,61.3C167.8,348,390.4,348,397.3,348z"/>
	<path class="st1" d="M354.2,370.6c36.6,0,66.2-27.4,66.2-61.3c0-29.8-22.8-54.6-53.2-60.1c-2.9-20.8-22.2-37-45.5-37
		c-6.5,0-12.6,1.2-18.2,3.5C285.1,184.9,249.7,164,209,164c-59.2,0-107.3,44.3-107.8,99c-26.1,5.6-45.5,27.2-45.5,53.1
		c0,30.1,26.4,54.5,58.8,54.5C121.4,370.6,344.1,370.6,354.2,370.6z"/>
</g>
</svg>
