<?xml version="1.0" encoding="utf-8"?>
<!-- Generator: Adobe Illustrator 19.0.0, SVG Export Plug-In . SVG Version: 6.00 Build 0)  -->
<svg version="1.1" id="Layer_1" xmlns="http://www.w3.org/2000/svg" xmlns:xlink="http://www.w3.org/1999/xlink" x="0px" y="0px"
	 viewBox="0 0 512 512" enable-background="new 0 0 512 512" xml:space="preserve">
<path id="XMLID_12_" d="M256,139.5c87.7,0,162.2,57.2,188.4,136.2h21C438.5,185.5,354.8,119.5,256,119.5
	c-98.8,0-182.5,66-209.4,156.2h21C93.8,196.7,168.3,139.5,256,139.5z"/>
<path id="XMLID_14_" d="M310.2,275.7c-3.1,26.6-25.8,47.3-53.2,47.3s-50.1-20.7-53.2-47.3h-20.1c3.2,37.6,34.8,67.3,73.3,67.3
	c38.5,0,70.1-29.7,73.3-67.3H310.2z"/>
<path id="XMLID_15_" d="M203.4,269.4c0-29.5,24-53.6,53.6-53.6s53.6,24,53.6,53.6c0,2.1-0.1,4.2-0.4,6.3h20.1
	c0.2-2.1,0.3-4.2,0.3-6.3c0-40.6-33-73.6-73.6-73.6c-40.6,0-73.6,33-73.6,73.6c0,2.1,0.1,4.2,0.3,6.3h20.1
	C203.6,273.6,203.4,271.5,203.4,269.4z"/>
</svg>
