<?xml version="1.0" encoding="utf-8"?>
<!-- Generator: Adobe Illustrator 22.1.0, SVG Export Plug-In . SVG Version: 6.00 Build 0)  -->
<svg version="1.1" id="Layer_1" xmlns="http://www.w3.org/2000/svg" xmlns:xlink="http://www.w3.org/1999/xlink" x="0px" y="0px"
	 viewBox="0 0 512 512" style="enable-background:new 0 0 512 512;" xml:space="preserve">
<style type="text/css">
	.st0{fill:#DBDCDD;}
	.st1{fill:#59A5D5;}
	.st2{fill:#323031;}
	.st3{fill:#A6A8AB;}
	.st4{fill:#EA4559;}
</style>
<g>
	<path class="st0" d="M228.7,46.7L89.1,193.4c-6.9,7.3-10.8,16.9-10.8,27v194.8v28.7c0,9.9,3.8,19.5,10.6,26.8l0,0
		c7.3,7.8,17.6,12.3,28.4,12.4l274.4,1.7c11.4,0.1,22.3-4.9,29.8-13.5l0.8-0.9c6.1-7,9.5-16,9.6-25.4l1.8-234.2
		c0.1-10.5-4.1-20.6-11.5-28.1L284.7,45.9C269.1,30.4,243.8,30.7,228.7,46.7z"/>
	<g>
		<path class="st1" d="M225.8,280.8c0,0-22.1,0-22.1,22.1v155.6c0,0,0,22.1,22.1,22.1h59.9c0,0,22.1,0,22.1-22.1V302.9
			c0,0,0-22.1-22.1-22.1H225.8z"/>
	</g>
	<g>
		<path class="st2" d="M285.7,494.4h-59.9c-26.3,0-35.9-21.5-35.9-35.9V302.9c0-26.3,21.5-35.9,35.9-35.9h59.9
			c26.3,0,35.9,21.5,35.9,35.9v155.6C321.6,484.8,300.1,494.4,285.7,494.4z M225.9,294.6c-8.4,0.3-8.4,5.9-8.4,8.3v155.6
			c0.3,8.3,5.9,8.3,8.3,8.3h59.9c8.3-0.3,8.3-5.9,8.3-8.3V302.9c-0.3-8.3-5.9-8.3-8.3-8.3H225.9z"/>
	</g>
	<polygon class="st3" points="365.4,61.8 365.4,139.1 428.9,169.5 428.9,61.8 	"/>
	<path class="st4" d="M67.5,234.8L67.5,234.8c-8.6-8.6-8.6-22.6,0-31.2L214.9,56.2c17.7-17.7,55.8-32.3,88.1,0l141,141
		c8.6,8.6,8.6,22.6,0,31.2l0,0c-8.6,8.6-22.6,8.6-31.2,0l-141-141c-11.2-11.1-20.8-4.8-25.6,0L98.7,234.8
		C90.1,243.4,76.1,243.4,67.5,234.8z"/>
	<g>
		<path class="st2" d="M67.5,270.1L67.5,270.1c-5.4-5.4-5.4-14.1,0-19.5L220.7,97.4c15.3-15.4,48.4-28,76.4,0L444,244.3
			c5.4,5.4,5.4,14.1,0,19.5h0c-5.4,5.4-14.1,5.4-19.5,0L277.6,116.9c-17.7-17.7-34.2-3.1-37.3,0L87,270.1
			C81.6,275.5,72.9,275.5,67.5,270.1z"/>
	</g>
	<path class="st2" d="M15.8,258.8L15.8,258.8c-5.4-5.4-5.4-14.1,0-19.5l205-205c15.4-15.4,48.4-28,76.4,0l199.1,199.2
		c5.4,5.4,5.4,14.1,0,19.5l0,0c-5.4,5.4-14.1,5.4-19.5,0L277.6,53.8c-17.8-17.8-34.2-3.1-37.3,0l-205,205
		C29.9,264.2,21.1,264.2,15.8,258.8z"/>
	<path class="st2" d="M399.7,494.4H111.8c-30.2,0-54.7-24.5-54.7-54.7V202.3L84.7,176v263.6c0,15,12.1,27.1,27.1,27.1h287.9
		c15,0,27.1-12.2,27.1-27.1V89.4c0-8.3-6.7-15-15-15h-31.4c-8.3,0-15,6.7-15,15V106h-11c-9.2,0-16.6-7.4-16.6-16.6v0
		c0-23.5,19.1-42.6,42.6-42.6h31.4c23.5,0,42.6,19.1,42.6,42.6v350.2C454.4,469.8,429.8,494.4,399.7,494.4z"/>
</g>
</svg>
