<?xml version="1.0" encoding="utf-8"?>
<!-- Generator: Adobe Illustrator 22.1.0, SVG Export Plug-In . SVG Version: 6.00 Build 0)  -->
<svg version="1.1" id="Capa_1" xmlns="http://www.w3.org/2000/svg" xmlns:xlink="http://www.w3.org/1999/xlink" x="0px" y="0px"
	 viewBox="0 0 512 512" style="enable-background:new 0 0 512 512;" xml:space="preserve">
<style type="text/css">
	.st0{fill:none;stroke:#7061a8;stroke-width:52;stroke-miterlimit:10;}
	.st1{display:none;fill:none;stroke:#7061a8;stroke-width:52;stroke-miterlimit:10;}
	.st2{fill:none;stroke:#7061a8;stroke-width:40;stroke-miterlimit:10;}
</style>
<path d="M222.4,199.9c40.2,0,72.8-39.6,72.8-88.4c0-48.8-10.7-88.4-72.8-88.4s-72.8,39.6-72.8,88.4
	C149.6,160.3,182.2,199.9,222.4,199.9z"/>
<path class="st0" d="M73.7,389.2C73.6,386,73.6,388.3,73.7,389.2L73.7,389.2z"/>
<path d="M249.5,432.6c-5.6-9.6-15.8-15.6-26.9-15.6l-0.2,0c-82,0-113.1-19.3-122.6-27.5c0-0.2,0-0.4,0-0.6c0-1.1,0.1-3,0.1-6
	c0.7-37.7,3.3-63.9,14-78.2c8.1-10.9,24.4-18.6,53-25.1c3.2-0.7,6.5-0.1,9.3,1.5c10.4,6.2,25.6,12,46.2,12c0.2,0,0.4,0,0.5,0
	c18.9-0.1,37.1-7.2,51-20c16.2-14.8,36.1-25.6,58.3-30.6c-18.6-8.5-39.9-13.5-61.2-17.3c-0.6-0.1-1.2-0.3-1.7-0.4l-4.1-1.3
	c-6.3-2-13.2,0.5-16.8,6l-3,4.6c-1.7,1.5-8.7,7-22.9,7c-14.2,0-21.2-5.4-22.9-7l-2.5-3.9c-3.2-5-9.2-7.6-15.1-6.6l-7.2,1.3
	c-39.7,7.2-79.5,18-102.4,48.5C53.1,299,48.8,332.6,47.9,381.9c-0.1,4.8-0.1,5.9-0.1,6c0.5-11.7,10.6-24.3,25.9-24.3
	c0.1,0,0.2,0,0.2,0c13.8,0.1,25.3,11.3,25.7,24.9l-1,0c-1.7-1.6-2.4-2.6-2.5-2.6c0,0,0.3,0.5,0.8,1.5l-2.5,1.2l-46.8,0.8
	c0,1.6,0,4.5,0,9.6v0c0,4,0.9,8,2.7,11.6h0c4.9,9.8,35.9,58.6,172,58.6c20.6,0,38.8-1.1,54.9-3.1
	C266.2,456.5,256.8,445.2,249.5,432.6z M245,234.5C245,234.5,245,234.5,245,234.5C245,234.5,245,234.5,245,234.5z"/>
<line class="st1" x1="371.5" y1="123" x2="500.5" y2="123"/>
<g>
	<line class="st2" x1="339.8" y1="273.4" x2="339.8" y2="442.8"/>
	<line class="st2" x1="255.1" y1="358.1" x2="424.5" y2="358.1"/>
</g>
</svg>
