<?xml version="1.0" encoding="utf-8"?>
<!-- Generator: Adobe Illustrator 22.1.0, SVG Export Plug-In . SVG Version: 6.00 Build 0)  -->
<svg version="1.1" id="Layer_1" xmlns="http://www.w3.org/2000/svg" xmlns:xlink="http://www.w3.org/1999/xlink" x="0px" y="0px"
	 viewBox="0 0 512 512" style="enable-background:new 0 0 512 512;" xml:space="preserve">
<style type="text/css">
	.st0{fill:#FFFFFF;stroke:#000000;stroke-width:52;stroke-miterlimit:10;}
</style>
<path d="M400.2,446H111.8c-25.6,0-46.3-21.7-46.3-48.3V129.2c0-26.6,20.8-48.3,46.3-48.3h133.5c9.5,0,17.2,7.7,17.2,17.2V118
	c0,9.5-7.7,17.2-17.2,17.2H117.5v256.7h277V231.7c0-9.5,7.7-17.2,17.2-17.2h17.7c9.5,0,17.2,7.7,17.2,17.2v166
	C446.5,424.3,425.7,446,400.2,446z"/>
<path d="M244.7,322.7l-41.4-41.4l179.9-179.9c11.4-11.4,30-11.4,41.4,0l0,0c11.4,11.4,11.4,30,0,41.4L244.7,322.7z"/>
<g>
	<path class="st0" d="M194.7,286.2"/>
</g>
<g>
	<polygon points="211,313.4 232.1,333.9 203.9,341.9 175.6,350 182.8,321.5 189.9,293 	"/>
</g>
</svg>
