<?xml version="1.0" encoding="utf-8"?>
<!-- Generator: Adobe Illustrator 19.0.0, SVG Export Plug-In . SVG Version: 6.00 Build 0)  -->
<svg version="1.1" id="Capa_1" xmlns="http://www.w3.org/2000/svg" xmlns:xlink="http://www.w3.org/1999/xlink" x="0px" y="0px"
	 viewBox="-96.6 0.6 512 512" enable-background="new -96.6 0.6 512 512" xml:space="preserve">
<g>
	<rect x="-1180" y="1020.4" fill="#FFFFFD" width="9.4" height="15.3"/>
	<polygon fill="#009CAC" points="-1187.9,1020.4 -1171.4,1034.1 -1171.4,1063.7 -1204.1,1063.7 -1204.1,1033.3 	"/>
	<g>
		<path d="M-1210.8,1040.2L-1210.8,1040.2c-0.7-0.8-0.6-1.9,0.2-2.6l22.7-20l22.6,19.9c0.8,0.7,0.8,1.8,0.2,2.6l0,0
			c-0.7,0.8-1.8,0.8-2.6,0.2l-20.2-17.8l-20.3,17.9C-1208.9,1041-1210.1,1040.9-1210.8,1040.2z"/>
	</g>
	<g>
		<path d="M-1170.1,1035.1h-3.6v-12h-3v6l-3.6-3.3v-4.5c0-1,0.8-1.9,1.9-1.9h6.6c1,0,1.9,0.8,1.9,1.9V1035.1z"/>
	</g>
	<rect x="-1192.6" y="1048.4" fill="#FFFFFD" width="9.4" height="15.3"/>
	<g>
		<path d="M-1181.7,1063.7h-3.5v-13.5h-5.4v13.5h-3.5v-15.4c0-0.9,0.7-1.6,1.6-1.6h9.3c0.9,0,1.6,0.7,1.6,1.6V1063.7z"/>
	</g>
	<g>
		<path d="M-1172.8,1065.5h-30.3c-1.4,0-2.6-1.2-2.6-2.6v-29.5h3.6v27.8c0,0.4,0.3,0.7,0.7,0.7h26.9c0.4,0,0.7-0.3,0.7-0.7v-27.8
			h3.6v29.5C-1170.1,1064.3-1171.3,1065.5-1172.8,1065.5z"/>
	</g>
</g>
<g>
	<g>
		<path fill="#4F5261" d="M159.4,184.2c-35.1,0-63.6-28.5-63.6-63.6c0-35.1,28.5-63.6,63.6-63.6S223,85.6,223,120.6
			C223,155.7,194.4,184.2,159.4,184.2z M159.4,81.8c-21.4,0-38.8,17.4-38.8,38.9c0,21.4,17.4,38.8,38.8,38.8
			c21.4,0,38.9-17.4,38.9-38.8C198.2,99.2,180.8,81.8,159.4,81.8z"/>
	</g>
	<g>
		<path fill="#4F5261" d="M304.5,456.2c-35.1,0-63.6-28.5-63.6-63.6s28.5-63.6,63.6-63.6s63.6,28.5,63.6,63.6
			S339.5,456.2,304.5,456.2z M304.5,353.8c-21.4,0-38.9,17.4-38.9,38.9c0,21.4,17.4,38.8,38.9,38.8c21.4,0,38.8-17.4,38.8-38.8
			C343.3,371.2,325.9,353.8,304.5,353.8z"/>
	</g>
	<g>
		<path fill="#4F5261" d="M14.3,456.2c-35,0-63.5-28.5-63.5-63.6S-20.7,329,14.3,329c35.1,0,63.6,28.5,63.6,63.6
			S49.4,456.2,14.3,456.2z M14.3,353.8c-21.4,0-38.8,17.4-38.8,38.9c0,21.4,17.4,38.8,38.8,38.8c21.4,0,38.9-17.4,38.9-38.8
			C53.2,371.2,35.7,353.8,14.3,353.8z"/>
	</g>
	<g>
		<g>
			<path fill="#4F5261" d="M88.5,339.4L88.5,339.4c-3.7-4.6-2.9-11.4,1.7-15.1l58.4-46.3v-57.2c0-5.9,4.8-10.7,10.7-10.7h0
				c5.9,0,10.7,4.8,10.7,10.7v67.6l-66.6,52.8C98.9,344.9,92.1,344.1,88.5,339.4z"/>
		</g>
		<g>
			<path fill="#4F5261" d="M219.6,341.1l-63.9-45.9l12.6-17.5l63.9,45.9c4.8,3.5,5.9,10.2,2.5,15l0,0
				C231.1,343.4,224.4,344.5,219.6,341.1z"/>
		</g>
	</g>
	<g>
		<path fill="#4F5261" d="M159.4,135.5c8.2,0,14.9-6.6,14.9-14.9c0-8.2-6.6-14.9-14.9-14.9c-8.2,0-14.9,6.6-14.9,14.9
			C144.5,128.8,151.2,135.5,159.4,135.5"/>
	</g>
	<g>
		<path fill="#4F5261" d="M304.4,407.4c8.2,0,14.9-6.6,14.9-14.9c0-8.2-6.6-14.9-14.9-14.9c-8.2,0-14.9,6.6-14.9,14.9
			C289.6,400.8,296.2,407.4,304.4,407.4"/>
	</g>
	<g>
		<path fill="#4F5261" d="M14.3,407.4c8.2,0,14.9-6.6,14.9-14.9c0-8.2-6.6-14.9-14.9-14.9s-14.9,6.6-14.9,14.9
			C-0.5,400.8,6.1,407.4,14.3,407.4"/>
	</g>
</g>
</svg>
