<?xml version="1.0" encoding="utf-8"?>
<!-- Generator: Adobe Illustrator 22.1.0, SVG Export Plug-In . SVG Version: 6.00 Build 0)  -->
<svg version="1.1" id="Layer_1" xmlns="http://www.w3.org/2000/svg" xmlns:xlink="http://www.w3.org/1999/xlink" x="0px" y="0px"
	 viewBox="0 0 512 512" style="enable-background:new 0 0 512 512;" xml:space="preserve">
<g>
	<path d="M433.8,102.5H78.2c-22.7,0-41.2,18.4-41.2,41.2V277h438V143.7C475,120.9,456.6,102.5,433.8,102.5z M171.1,227H90
		c-8.3,0-15-6.7-15-15c0-8.3,6.7-15,15-15h81.1c8.3,0,15,6.7,15,15C186.1,220.3,179.3,227,171.1,227z M215,185H90
		c-8.3,0-15-6.7-15-15c0-8.3,6.7-15,15-15h125c8.3,0,15,6.7,15,15C230,178.3,223.3,185,215,185z M383.1,239
		c-14.3,0-27.1-6.1-36.1-15.9c-8.9,9.7-21.8,15.9-36.1,15.9c-27,0-48.9-21.9-48.9-48.9c0-27,21.9-48.9,48.9-48.9
		c14.3,0,27.1,6.1,36.1,15.9c8.9-9.7,21.8-15.9,36.1-15.9c27,0,48.9,21.9,48.9,48.9C432,217.1,410.1,239,383.1,239z"/>
	<polygon points="347,157 347,157 347,157 	"/>
	<polygon points="347,223.1 347,223.1 347,223.1 	"/>
	<path d="M37,368.3c0,22.7,18.4,41.2,41.2,41.2h355.7c22.7,0,41.2-18.4,41.2-41.2V350H37V368.3z"/>
	<rect x="37" y="271" width="13" height="85"/>
	<rect x="462" y="271" width="13" height="85"/>
</g>
</svg>
