<?xml version="1.0" encoding="utf-8"?>
<!-- Generator: Adobe Illustrator 22.1.0, SVG Export Plug-In . SVG Version: 6.00 Build 0)  -->
<svg version="1.1" id="Layer_1" xmlns="http://www.w3.org/2000/svg" xmlns:xlink="http://www.w3.org/1999/xlink" x="0px" y="0px"
	 viewBox="0 0 512 512" style="enable-background:new 0 0 512 512;" xml:space="preserve">
<style type="text/css">
	.st0{fill:#EAEBEC;}
	.st1{fill:#D0D2D3;}
	.st2{fill:#9C9EA1;}
</style>
<g>
	<path class="st0" d="M255.6,450.9L255.6,450.9l-29.7-30.2c-110.5-99.2-182.7-166-182.7-247.9c0-66.8,51-118.6,116.8-118.6
		c36.1,0,72.2,17.2,95.6,45.3c23.4-28,59.5-45.3,95.6-45.3c65.9,0,116.8,51.7,116.8,118.6c0,81.9-72.2,148.7-182.7,247.9
		L255.6,450.9z"/>
</g>
<path class="st1" d="M256,117c0,0-186-24-90,118s90,204,90,204S-76.4,216.2,92.8,75.1C92.8,75.1,206,8,256,117z"/>
<path class="st2" d="M255.6,473l-40.8-41.4C106.4,334.4,27.6,263.7,27.6,172.9C27.6,97.7,85.8,38.9,160,38.9
	c35.1,0,69.7,14.1,95.6,38.3c25.9-24.2,60.5-38.3,95.6-38.3c74.2,0,132.3,58.9,132.3,134.1c0,90.8-78.8,161.5-187.8,259.4L255.6,473
	z M160,69.9c-57.8,0-101.3,44.3-101.3,103c0,73.4,64.2,134.5,177.6,236.3l19.4,19.6l18.7-19c114.1-102.4,178.2-163.6,178.2-237
	c0-58.7-43.6-103-101.3-103c-31.2,0-63.3,15.2-83.7,39.7l-11.9,14.3l-11.9-14.3C223.3,85.1,191.2,69.9,160,69.9z"/>
</svg>
