<?xml version="1.0" encoding="utf-8"?>
<!-- Generator: Adobe Illustrator 22.1.0, SVG Export Plug-In . SVG Version: 6.00 Build 0)  -->
<svg version="1.1" id="Layer_1" xmlns="http://www.w3.org/2000/svg" xmlns:xlink="http://www.w3.org/1999/xlink" x="0px" y="0px"
	 viewBox="0 0 512 512" style="enable-background:new 0 0 512 512;" xml:space="preserve">
<style type="text/css">
	.st0{fill:#CCCCCC;}
	.st1{fill:#4D4D4D;}
</style>
<path class="st0" d="M240.2,68.5L92.9,189.8c-6.9,5.7-10.8,14.1-10.6,23l4.4,211.3c0.2,8,3.7,15.7,9.7,21l11.3,10.2
	c5.3,4.8,12.2,7.4,19.4,7.4h262.8c7.2,0,14.1-2.6,19.4-7.4l11.2-10.1c6.1-5.4,9.6-13.2,9.7-21.3l2.7-221.7
	c0.1-9.2-4.1-17.8-11.4-23.4L276.3,67.8C265.6,59.6,250.6,59.9,240.2,68.5z"/>
<g>
	<path class="st1" d="M318.2,468.4h-34.9V335.2h-53.9v133.2h-34.9V316.2c0-8.9,7.2-16,16-16h91.7c8.8,0,16,7.2,16,16V468.4z"/>
</g>
<g>
	<path class="st1" d="M32.3,240L32.3,240c0,0,0,0-2.7-3.1c-2.7-3.1-2.1-12.6,4.1-18L235,42.6c0,0,24.9-21.8,49.8,0l194,169.8
		c6.2,5.4,6.8,14.9,1.4,21.1c-5.5,6.2-14.9,6.9-21.1,1.4L284.9,82.4c0,0-24.9-21.8-49.8,0l-181.7,159
		C47.2,246.8,37.7,246.2,32.3,240"/>
</g>
<g>
	<path class="st1" d="M391,479.1H121.6c-28.2,0-51.2-23-51.2-51.2V197.4h25.8v230.5c0,14,11.4,25.4,25.4,25.4H391
		c14,0,25.4-11.4,25.4-25.4V100.1c0-7.7-6.3-14-14-14h-29.4c-7.7,0-14,6.3-14,14v26.1H333v-26.1c0-22,17.9-39.9,39.9-39.9h29.4
		c22,0,39.9,17.9,39.9,39.9v327.7C442.2,456.1,419.2,479.1,391,479.1z"/>
</g>
</svg>
